AtkinsonHyperlegibleNext-ExtraLight.sfdir
StartChar: exclam
Encoding: 33 33 263
Width: 260
GlyphClass: 1
Flags: W
LayerCount: 2
Fore
SplineSet
102 497 m 1,0,-1
 102 668 l 1,1,-1
 158 668 l 1,2,-1
 158 497 l 1,3,-1
 145 171 l 1,4,-1
 114 171 l 1,5,-1
 102 497 l 1,0,-1
96 2 m 128,-1,7
 82 16 82 16 82 36 c 256,8,9
 82 56 82 56 96 70 c 128,-1,10
 110 84 110 84 130 84 c 256,11,12
 150 84 150 84 164 70 c 128,-1,13
 178 56 178 56 178 36 c 256,14,15
 178 16 178 16 164 2 c 128,-1,16
 150 -12 150 -12 130 -12 c 256,17,6
 110 -12 110 -12 96 2 c 128,-1,7
EndSplineSet
EndChar
StartChar: quotedbl
Encoding: 34 34 293
Width: 246
GlyphClass: 1
Flags: W
LayerCount: 2
Fore
SplineSet
157 668 m 1,0,-1
 206 668 l 1,1,-1
 192 454 l 1,2,-1
 171 454 l 1,3,-1
 157 668 l 1,0,-1
40 668 m 1,4,-1
 89 668 l 1,5,-1
 75 454 l 1,6,-1
 54 454 l 1,7,-1
 40 668 l 1,4,-1
EndSplineSet
EndChar
StartChar: numbersign
Encoding: 35 35 270
Width: 577
GlyphClass: 1
Flags: W
LayerCount: 2
Fore
SplineSet
161 196 m 1,0,-1
 40 196 l 1,1,-1
 47 242 l 1,2,-1
 167 242 l 1,3,-1
 192 426 l 1,4,-1
 71 426 l 1,5,-1
 78 472 l 1,6,-1
 198 472 l 1,7,-1
 225 668 l 1,8,-1
 274 668 l 1,9,-1
 247 472 l 1,10,-1
 373 472 l 1,11,-1
 400 668 l 1,12,-1
 448 668 l 1,13,-1
 422 472 l 1,14,-1
 537 472 l 1,15,-1
 530 426 l 1,16,-1
 414 426 l 1,17,-1
 390 242 l 1,18,-1
 507 242 l 1,19,-1
 499 196 l 1,20,-1
 383 196 l 1,21,-1
 356 0 l 1,22,-1
 307 0 l 1,23,-1
 334 196 l 1,24,-1
 208 196 l 1,25,-1
 181 0 l 1,26,-1
 132 0 l 1,27,-1
 161 196 l 1,0,-1
342 242 m 1,28,-1
 365 426 l 1,29,-1
 240 426 l 1,30,-1
 216 242 l 1,31,-1
 342 242 l 1,28,-1
EndSplineSet
EndChar
StartChar: dollar
Encoding: 36 36 313
Width: 581
GlyphClass: 1
Flags: W
LayerCount: 2
Fore
SplineSet
128.5 32.5 m 128,-1,1
 67 71 67 71 46 140 c 1,2,-1
 100 161 l 1,3,4
 116 106 116 106 160.5 74.5 c 128,-1,5
 205 43 205 43 263 37 c 1,6,-1
 263 329 l 1,7,-1
 230 337 l 2,8,9
 149 357 149 357 105.5 395 c 128,-1,10
 62 433 62 433 62 502 c 0,11,12
 62 549 62 549 88 588 c 128,-1,13
 114 627 114 627 159.5 651 c 128,-1,14
 205 675 205 675 263 679 c 1,15,-1
 263 758 l 1,16,-1
 302 758 l 1,17,-1
 302 680 l 1,18,19
 370 678 370 678 425 649 c 128,-1,20
 480 620 480 620 508 565 c 1,21,-1
 454 544 l 1,22,23
 434 583 434 583 391.5 606 c 128,-1,24
 349 629 349 629 302 632 c 1,25,-1
 302 374 l 1,26,-1
 338 365 l 2,27,28
 439 340 439 340 487 300 c 128,-1,29
 535 260 535 260 535 181 c 0,30,31
 535 126 535 126 504 83 c 128,-1,32
 473 40 473 40 420 15.5 c 128,-1,33
 367 -9 367 -9 302 -12 c 1,34,-1
 302 -90 l 1,35,-1
 263 -90 l 1,36,-1
 263 -11 l 1,37,0
 190 -6 190 -6 128.5 32.5 c 128,-1,1
429 78 m 128,-1,39
 478 117 478 117 478 184 c 0,40,41
 478 232 478 232 444.5 261.5 c 128,-1,42
 411 291 411 291 325 313 c 2,43,-1
 302 319 l 1,44,-1
 302 36 l 1,45,38
 380 39 380 39 429 78 c 128,-1,39
160 592 m 128,-1,47
 120 559 120 559 120 502 c 0,48,49
 120 420 120 420 243 389 c 2,50,-1
 263 384 l 1,51,-1
 263 631 l 1,52,46
 200 625 200 625 160 592 c 128,-1,47
EndSplineSet
EndChar
StartChar: percent
Encoding: 37 37 341
Width: 872
GlyphClass: 1
Flags: W
LayerCount: 2
Fore
SplineSet
643 668 m 1,0,-1
 705 668 l 1,1,-1
 228 0 l 1,2,-1
 166 0 l 1,3,-1
 643 668 l 1,0,-1
127 356 m 128,-1,5
 87 379 87 379 63.5 419 c 128,-1,6
 40 459 40 459 40 506 c 0,7,8
 40 554 40 554 63.5 594 c 128,-1,9
 87 634 87 634 127 657 c 128,-1,10
 167 680 167 680 214 680 c 0,11,12
 262 680 262 680 302 657 c 128,-1,13
 342 634 342 634 365.5 594 c 128,-1,14
 389 554 389 554 389 506 c 0,15,16
 389 459 389 459 365.5 419 c 128,-1,17
 342 379 342 379 302 356 c 128,-1,18
 262 333 262 333 214 333 c 0,19,4
 167 333 167 333 127 356 c 128,-1,5
301.5 420 m 128,-1,21
 337 456 337 456 337 506 c 0,22,23
 337 557 337 557 301.5 593 c 128,-1,24
 266 629 266 629 214 629 c 0,25,26
 163 629 163 629 127 593 c 128,-1,27
 91 557 91 557 91 506 c 0,28,29
 91 456 91 456 127 420 c 128,-1,30
 163 384 163 384 214 384 c 0,31,20
 266 384 266 384 301.5 420 c 128,-1,21
570 11 m 128,-1,33
 530 34 530 34 506.5 74 c 128,-1,34
 483 114 483 114 483 162 c 0,35,36
 483 209 483 209 506.5 249 c 128,-1,37
 530 289 530 289 570 312 c 128,-1,38
 610 335 610 335 658 335 c 0,39,40
 705 335 705 335 745 312 c 128,-1,41
 785 289 785 289 808.5 249 c 128,-1,42
 832 209 832 209 832 162 c 0,43,44
 832 114 832 114 808.5 74 c 128,-1,45
 785 34 785 34 745 11 c 128,-1,46
 705 -12 705 -12 658 -12 c 0,47,32
 610 -12 610 -12 570 11 c 128,-1,33
745 75 m 128,-1,49
 781 111 781 111 781 162 c 0,50,51
 781 212 781 212 745 248 c 128,-1,52
 709 284 709 284 658 284 c 256,53,54
 607 284 607 284 571 248.5 c 128,-1,55
 535 213 535 213 535 162 c 256,56,57
 535 111 535 111 570.5 75 c 128,-1,58
 606 39 606 39 658 39 c 0,59,48
 709 39 709 39 745 75 c 128,-1,49
EndSplineSet
EndChar
StartChar: ampersand
Encoding: 38 38 298
Width: 732
GlyphClass: 1
Flags: W
LayerCount: 2
Fore
SplineSet
125 39 m 128,-1,1
 64 89 64 89 64 173 c 0,2,3
 64 312 64 312 258 388 c 1,4,5
 220 425 220 425 198 462 c 128,-1,6
 176 499 176 499 176 538 c 0,7,8
 176 578 176 578 197 610.5 c 128,-1,9
 218 643 218 643 255.5 662 c 128,-1,10
 293 681 293 681 340 681 c 0,11,12
 380 681 380 681 418.5 666 c 128,-1,13
 457 651 457 651 481.5 619.5 c 128,-1,14
 506 588 506 588 506 540 c 0,15,16
 506 434 506 434 352 369 c 1,17,-1
 527 194 l 1,18,19
 554 253 554 253 554 341 c 1,20,-1
 610 341 l 1,21,22
 612 239 612 239 565 155 c 1,23,-1
 716 0 l 1,24,-1
 639 0 l 1,25,-1
 537 107 l 1,26,27
 498 53 498 53 434 21 c 128,-1,28
 370 -11 370 -11 289 -11 c 0,29,0
 186 -11 186 -11 125 39 c 128,-1,1
410 65 m 128,-1,31
 464 92 464 92 498 142 c 1,32,-1
 292 353 l 1,33,34
 211 318 211 318 165.5 278 c 128,-1,35
 120 238 120 238 120 177 c 0,36,37
 120 110 120 110 169 74 c 128,-1,38
 218 38 218 38 288 38 c 0,39,30
 356 38 356 38 410 65 c 128,-1,31
452 539 m 0,41,42
 452 584 452 584 419 608.5 c 128,-1,43
 386 633 386 633 340 633 c 256,44,45
 294 633 294 633 263 607 c 128,-1,46
 232 581 232 581 232 541 c 0,47,48
 232 507 232 507 253 476.5 c 128,-1,49
 274 446 274 446 318 403 c 1,50,40
 452 451 452 451 452 539 c 0,41,42
EndSplineSet
EndChar
StartChar: parenleft
Encoding: 40 40 277
Width: 276
GlyphClass: 1
Flags: W
LayerCount: 2
Fore
SplineSet
94.5 47.5 m 128,-1,1
 62 161 62 161 62 273 c 0,2,3
 62 506 62 506 185 708 c 1,4,-1
 242 708 l 1,5,6
 116 506 116 506 116 273 c 0,7,8
 116 161 116 161 149 47 c 128,-1,9
 182 -67 182 -67 242 -162 c 1,10,-1
 185 -162 l 1,11,0
 127 -66 127 -66 94.5 47.5 c 128,-1,1
EndSplineSet
EndChar
StartChar: parenright
Encoding: 41 41 278
Width: 276
GlyphClass: 1
Flags: W
LayerCount: 2
Fore
SplineSet
160 274 m 0,1,2
 160 386 160 386 127 500 c 128,-1,3
 94 614 94 614 34 709 c 1,4,-1
 92 709 l 1,5,6
 150 613 150 613 182.5 499.5 c 128,-1,7
 215 386 215 386 215 274 c 0,8,9
 215 43 215 43 92 -161 c 1,10,-1
 34 -161 l 1,11,0
 160 39 160 39 160 274 c 0,1,2
EndSplineSet
EndChar
StartChar: plus
Encoding: 43 43 320
Width: 606
GlyphClass: 1
Flags: W
LayerCount: 2
Fore
SplineSet
277 222 m 1,0,-1
 55 222 l 1,1,-1
 55 274 l 1,2,-1
 277 274 l 1,3,-1
 277 496 l 1,4,-1
 329 496 l 1,5,-1
 329 274 l 1,6,-1
 551 274 l 1,7,-1
 551 222 l 1,8,-1
 329 222 l 1,9,-1
 329 0 l 1,10,-1
 277 0 l 1,11,-1
 277 222 l 1,0,-1
EndSplineSet
EndChar
StartChar: comma
Encoding: 44 44 259
Width: 173
GlyphClass: 1
Flags: W
LayerCount: 2
Fore
SplineSet
51.5 3.5 m 128,-1,1
 39 18 39 18 39 36 c 0,2,3
 39 55 39 55 53 69.5 c 128,-1,4
 67 84 67 84 86 84 c 0,5,6
 108 84 108 84 121.5 70 c 128,-1,7
 135 56 135 56 135 37 c 0,8,9
 135 26 135 26 129 10 c 2,10,-1
 77 -126 l 1,11,-1
 39 -126 l 1,12,-1
 83 -12 l 1,13,0
 64 -11 64 -11 51.5 3.5 c 128,-1,1
EndSplineSet
EndChar
StartChar: hyphen
Encoding: 45 45 273
Width: 354
GlyphClass: 1
Flags: W
LayerCount: 2
Fore
SplineSet
40 277 m 1,0,-1
 315 277 l 1,1,-1
 315 220 l 1,2,-1
 40 220 l 1,3,-1
 40 277 l 1,0,-1
EndSplineSet
EndChar
StartChar: period
Encoding: 46 46 258
Width: 172
GlyphClass: 1
Flags: W
LayerCount: 2
Fore
SplineSet
52 2 m 128,-1,1
 38 16 38 16 38 36 c 256,2,3
 38 56 38 56 52 70 c 128,-1,4
 66 84 66 84 86 84 c 256,5,6
 106 84 106 84 120 70 c 128,-1,7
 134 56 134 56 134 36 c 256,8,9
 134 16 134 16 120 2 c 128,-1,10
 106 -12 106 -12 86 -12 c 256,11,0
 66 -12 66 -12 52 2 c 128,-1,1
EndSplineSet
EndChar
StartChar: zero
Encoding: 48 48 229
Width: 633
GlyphClass: 1
Flags: W
LayerCount: 2
Fore
SplineSet
131 76.5 m 128,-1,1
 64 166 64 166 64 335 c 256,2,3
 64 504 64 504 131 593.5 c 128,-1,4
 198 683 198 683 316 683 c 0,5,6
 435 683 435 683 502 593.5 c 128,-1,7
 569 504 569 504 569 335 c 256,8,9
 569 166 569 166 502 76.5 c 128,-1,10
 435 -13 435 -13 316 -13 c 0,11,0
 198 -13 198 -13 131 76.5 c 128,-1,1
452 99 m 1,13,-1
 156 532 l 1,14,15
 120 458 120 458 120 335 c 0,16,17
 120 181 120 181 173 109 c 128,-1,18
 226 37 226 37 316 37 c 0,19,12
 403 37 403 37 452 99 c 1,13,-1
513 335 m 0,21,22
 513 489 513 489 460 561 c 128,-1,23
 407 633 407 633 316 633 c 0,24,25
 230 633 230 633 182 572 c 1,26,-1
 478 140 l 1,27,20
 513 215 513 215 513 335 c 0,21,22
EndSplineSet
Substitution2: "'tnum' Tabular Numbers in Latin lookup 10 subtable" zero.tf
AlternateSubs2: "'aalt' Access All Alternates in Latin lookup 0 subtable" zero.tf
EndChar
StartChar: one
Encoding: 49 49 230
Width: 392
GlyphClass: 5
Flags: W
LayerCount: 2
Fore
SplineSet
217 532 m 1,0,-1
 35 532 l 1,1,-1
 35 572 l 1,2,3
 127 572 127 572 173 592 c 128,-1,4
 219 612 219 612 236 668 c 1,5,-1
 273 668 l 1,6,-1
 273 0 l 1,7,-1
 217 0 l 1,8,-1
 217 532 l 1,0,-1
EndSplineSet
Substitution2: "'tnum' Tabular Numbers in Latin lookup 10 subtable" one.tf
Substitution2: "'sups' Superscript in Latin lookup 6 subtable" uni00B9
AlternateSubs2: "'aalt' Access All Alternates in Latin lookup 0 subtable" uni00B9 one.tf
EndChar
StartChar: two
Encoding: 50 50 231
Width: 537
GlyphClass: 5
Flags: W
LayerCount: 2
Fore
SplineSet
259 231.5 m 128,-1,1
 339 306 339 306 376.5 369.5 c 128,-1,2
 414 433 414 433 414 497 c 0,3,4
 414 555 414 555 375 593 c 128,-1,5
 336 631 336 631 271 631 c 0,6,7
 213 631 213 631 170.5 599 c 128,-1,8
 128 567 128 567 115 503 c 1,9,-1
 58 520 l 1,10,11
 75 593 75 593 131 636.5 c 128,-1,12
 187 680 187 680 272 680 c 0,13,14
 362 680 362 680 417 632 c 128,-1,15
 472 584 472 584 472 498 c 0,16,17
 472 383 472 383 376.5 274.5 c 128,-1,18
 281 166 281 166 122 54 c 1,19,-1
 498 54 l 1,20,-1
 498 0 l 1,21,-1
 42 0 l 1,22,-1
 42 51 l 1,23,0
 179 157 179 157 259 231.5 c 128,-1,1
EndSplineSet
Substitution2: "'tnum' Tabular Numbers in Latin lookup 10 subtable" two.tf
Substitution2: "'sups' Superscript in Latin lookup 6 subtable" uni00B2
AlternateSubs2: "'aalt' Access All Alternates in Latin lookup 0 subtable" uni00B2 two.tf
EndChar
StartChar: three
Encoding: 51 51 232
Width: 561
GlyphClass: 5
Flags: W
LayerCount: 2
Fore
SplineSet
113.5 36.5 m 128,-1,1
 60 85 60 85 49 157 c 1,2,-1
 104 167 l 1,3,4
 115 109 115 109 156 73 c 128,-1,5
 197 37 197 37 269 37 c 0,6,7
 345 37 345 37 393.5 77 c 128,-1,8
 442 117 442 117 442 182 c 0,9,10
 442 262 442 262 386.5 296.5 c 128,-1,11
 331 331 331 331 259 331 c 2,12,-1
 234 331 l 1,13,-1
 234 381 l 1,14,-1
 259 381 l 2,15,16
 321 381 321 381 369 412 c 128,-1,17
 417 443 417 443 417 513 c 0,18,19
 417 568 417 568 376.5 599.5 c 128,-1,20
 336 631 336 631 277 631 c 0,21,22
 211 631 211 631 167.5 595 c 128,-1,23
 124 559 124 559 114 505 c 1,24,-1
 60 519 l 1,25,26
 77 588 77 588 132.5 634 c 128,-1,27
 188 680 188 680 276 680 c 0,28,29
 360 680 360 680 416.5 636 c 128,-1,30
 473 592 473 592 473 513 c 0,31,32
 473 456 473 456 442.5 413.5 c 128,-1,33
 412 371 412 371 352 357 c 1,34,35
 424 345 424 345 461.5 297 c 128,-1,36
 499 249 499 249 499 184 c 0,37,38
 499 122 499 122 467.5 77.5 c 128,-1,39
 436 33 436 33 384 10.5 c 128,-1,40
 332 -12 332 -12 269 -12 c 0,41,0
 167 -12 167 -12 113.5 36.5 c 128,-1,1
EndSplineSet
Substitution2: "'tnum' Tabular Numbers in Latin lookup 10 subtable" three.tf
Substitution2: "'sups' Superscript in Latin lookup 6 subtable" uni00B3
AlternateSubs2: "'aalt' Access All Alternates in Latin lookup 0 subtable" uni00B3 three.tf
EndChar
StartChar: four
Encoding: 52 52 233
Width: 592
GlyphClass: 5
Flags: W
LayerCount: 2
Fore
SplineSet
377 177 m 1,0,-1
 42 177 l 1,1,-1
 42 240 l 1,2,-1
 372 668 l 1,3,-1
 432 668 l 1,4,-1
 432 229 l 1,5,-1
 551 229 l 1,6,-1
 551 177 l 1,7,-1
 432 177 l 1,8,-1
 432 0 l 1,9,-1
 377 0 l 1,10,-1
 377 177 l 1,0,-1
377 229 m 1,11,-1
 377 595 l 1,12,-1
 96 229 l 1,13,-1
 377 229 l 1,11,-1
EndSplineSet
Substitution2: "'tnum' Tabular Numbers in Latin lookup 10 subtable" four.tf
AlternateSubs2: "'aalt' Access All Alternates in Latin lookup 0 subtable" four.tf
EndChar
StartChar: five
Encoding: 53 53 234
Width: 571
GlyphClass: 1
Flags: W
LayerCount: 2
Fore
SplineSet
130.5 35.5 m 128,-1,1
 79 83 79 83 65 157 c 1,2,-1
 119 169 l 1,3,4
 131 107 131 107 170 72 c 128,-1,5
 209 37 209 37 284 37 c 0,6,7
 328 37 328 37 365.5 59 c 128,-1,8
 403 81 403 81 426 122.5 c 128,-1,9
 449 164 449 164 449 219 c 0,10,11
 449 278 449 278 425.5 319 c 128,-1,12
 402 360 402 360 364.5 379.5 c 128,-1,13
 327 399 327 399 286 399 c 0,14,15
 231 399 231 399 193 372.5 c 128,-1,16
 155 346 155 346 140 318 c 1,17,-1
 87 332 l 1,18,-1
 128 668 l 1,19,-1
 477 668 l 1,20,-1
 477 614 l 1,21,-1
 174 614 l 1,22,-1
 145 382 l 1,23,24
 198 448 198 448 293 448 c 0,25,26
 352 448 352 448 400.5 420 c 128,-1,27
 449 392 449 392 477 340.5 c 128,-1,28
 505 289 505 289 505 219 c 0,29,30
 505 146 505 146 474 93.5 c 128,-1,31
 443 41 443 41 392 14.5 c 128,-1,32
 341 -12 341 -12 281 -12 c 0,33,0
 182 -12 182 -12 130.5 35.5 c 128,-1,1
EndSplineSet
Substitution2: "'tnum' Tabular Numbers in Latin lookup 10 subtable" five.tf
AlternateSubs2: "'aalt' Access All Alternates in Latin lookup 0 subtable" five.tf
EndChar
StartChar: six
Encoding: 54 54 235
Width: 583
GlyphClass: 1
Flags: W
LayerCount: 2
Fore
SplineSet
129.5 66.5 m 128,-1,1
 71 145 71 145 71 292 c 0,2,3
 71 460 71 460 128.5 570 c 128,-1,4
 186 680 186 680 317 680 c 0,5,6
 382 680 382 680 428 650 c 128,-1,7
 474 620 474 620 494 574 c 1,8,-1
 440 553 l 1,9,10
 425 588 425 588 391 609.5 c 128,-1,11
 357 631 357 631 312 631 c 0,12,13
 254 631 254 631 212.5 590.5 c 128,-1,14
 171 550 171 550 148.5 479.5 c 128,-1,15
 126 409 126 409 123 320 c 1,16,17
 143 372 143 372 192 404.5 c 128,-1,18
 241 437 241 437 310 437 c 0,19,20
 372 437 372 437 420.5 408.5 c 128,-1,21
 469 380 469 380 495.5 329 c 128,-1,22
 522 278 522 278 522 211 c 0,23,24
 522 152 522 152 495 101 c 128,-1,25
 468 50 468 50 417.5 19 c 128,-1,26
 367 -12 367 -12 300 -12 c 0,27,0
 188 -12 188 -12 129.5 66.5 c 128,-1,1
419.5 86 m 128,-1,29
 465 134 465 134 465 210 c 0,30,31
 465 290 465 290 420 339 c 128,-1,32
 375 388 375 388 301 388 c 0,33,34
 225 388 225 388 180.5 338.5 c 128,-1,35
 136 289 136 289 136 210 c 0,36,37
 136 134 136 134 181 86 c 128,-1,38
 226 38 226 38 300 38 c 256,39,28
 374 38 374 38 419.5 86 c 128,-1,29
EndSplineSet
Substitution2: "'tnum' Tabular Numbers in Latin lookup 10 subtable" six.tf
AlternateSubs2: "'aalt' Access All Alternates in Latin lookup 0 subtable" six.tf
EndChar
StartChar: eight
Encoding: 56 56 237
Width: 610
GlyphClass: 1
Flags: W
LayerCount: 2
Fore
SplineSet
181.5 15 m 128,-1,1
 128 41 128 41 98.5 85.5 c 128,-1,2
 69 130 69 130 69 185 c 0,3,4
 69 246 69 246 105 294 c 128,-1,5
 141 342 141 342 204 365 c 1,6,7
 168 388 168 388 148 425.5 c 128,-1,8
 128 463 128 463 128 507 c 0,9,10
 128 555 128 555 151.5 595.5 c 128,-1,11
 175 636 175 636 215.5 659.5 c 128,-1,12
 256 683 256 683 304 683 c 256,13,14
 352 683 352 683 393 659.5 c 128,-1,15
 434 636 434 636 457.5 595.5 c 128,-1,16
 481 555 481 555 481 507 c 0,17,18
 481 463 481 463 460.5 426 c 128,-1,19
 440 389 440 389 405 365 c 1,20,21
 467 342 467 342 503 294 c 128,-1,22
 539 246 539 246 539 185 c 0,23,24
 539 130 539 130 509.5 85.5 c 128,-1,25
 480 41 480 41 426.5 15 c 128,-1,26
 373 -11 373 -11 304 -11 c 256,27,0
 235 -11 235 -11 181.5 15 c 128,-1,1
397.5 57.5 m 128,-1,29
 438 77 438 77 460 110.5 c 128,-1,30
 482 144 482 144 482 185 c 256,31,32
 482 226 482 226 460 259.5 c 128,-1,33
 438 293 438 293 397.5 312.5 c 128,-1,34
 357 332 357 332 304 332 c 256,35,36
 251 332 251 332 211 312.5 c 128,-1,37
 171 293 171 293 149 259.5 c 128,-1,38
 127 226 127 226 127 185 c 256,39,40
 127 144 127 144 149 110.5 c 128,-1,41
 171 77 171 77 211 57.5 c 128,-1,42
 251 38 251 38 304 38 c 256,43,28
 357 38 357 38 397.5 57.5 c 128,-1,29
392.5 418.5 m 128,-1,45
 429 455 429 455 429 507 c 256,46,47
 429 559 429 559 392.5 595 c 128,-1,48
 356 631 356 631 304 631 c 256,49,50
 252 631 252 631 215.5 595 c 128,-1,51
 179 559 179 559 179 507 c 256,52,53
 179 455 179 455 215.5 418.5 c 128,-1,54
 252 382 252 382 304 382 c 256,55,44
 356 382 356 382 392.5 418.5 c 128,-1,45
EndSplineSet
Substitution2: "'tnum' Tabular Numbers in Latin lookup 10 subtable" eight.tf
AlternateSubs2: "'aalt' Access All Alternates in Latin lookup 0 subtable" eight.tf
EndChar
StartChar: nine
Encoding: 57 57 238
Width: 610
GlyphClass: 1
Flags: W
LayerCount: 2
Fore
SplineSet
303 209 m 0,1,2
 244 209 244 209 189 238.5 c 128,-1,3
 134 268 134 268 99.5 322 c 128,-1,4
 65 376 65 376 65 446 c 0,5,6
 65 511 65 511 96.5 565 c 128,-1,7
 128 619 128 619 183 651 c 128,-1,8
 238 683 238 683 303 683 c 256,9,10
 368 683 368 683 422.5 651.5 c 128,-1,11
 477 620 477 620 508.5 565.5 c 128,-1,12
 540 511 540 511 540 446 c 0,13,14
 540 397 540 397 525 362 c 128,-1,15
 510 327 510 327 473 267 c 2,16,-1
 308 0 l 1,17,-1
 244 0 l 1,18,-1
 390 228 l 1,19,0
 351 209 351 209 303 209 c 0,1,2
394.5 288.5 m 128,-1,21
 436 313 436 313 460 354.5 c 128,-1,22
 484 396 484 396 484 446 c 256,23,24
 484 496 484 496 460 537.5 c 128,-1,25
 436 579 436 579 394.5 603.5 c 128,-1,26
 353 628 353 628 303 628 c 256,27,28
 253 628 253 628 211 603.5 c 128,-1,29
 169 579 169 579 144.5 537.5 c 128,-1,30
 120 496 120 496 120 446 c 256,31,32
 120 396 120 396 144.5 354.5 c 128,-1,33
 169 313 169 313 211 288.5 c 128,-1,34
 253 264 253 264 303 264 c 256,35,20
 353 264 353 264 394.5 288.5 c 128,-1,21
EndSplineSet
Substitution2: "'tnum' Tabular Numbers in Latin lookup 10 subtable" nine.tf
AlternateSubs2: "'aalt' Access All Alternates in Latin lookup 0 subtable" nine.tf
EndChar
StartChar: less
Encoding: 60 60 327
Width: 543
GlyphClass: 1
Flags: W
LayerCount: 2
Fore
SplineSet
40 222 m 1,0,-1
 40 273 l 1,1,-1
 503 487 l 1,2,-1
 503 425 l 1,3,-1
 113 247 l 1,4,-1
 503 70 l 1,5,-1
 503 8 l 1,6,-1
 40 222 l 1,0,-1
EndSplineSet
EndChar
StartChar: equal
Encoding: 61 61 324
Width: 628
GlyphClass: 1
Flags: W
LayerCount: 2
Fore
SplineSet
66 366 m 1,0,-1
 562 366 l 1,1,-1
 562 315 l 1,2,-1
 66 315 l 1,3,-1
 66 366 l 1,0,-1
66 186 m 1,4,-1
 562 186 l 1,5,-1
 562 134 l 1,6,-1
 66 134 l 1,7,-1
 66 186 l 1,4,-1
EndSplineSet
EndChar
StartChar: greater
Encoding: 62 62 326
Width: 543
GlyphClass: 1
Flags: W
LayerCount: 2
Fore
SplineSet
40 70 m 1,0,-1
 430 247 l 1,1,-1
 40 425 l 1,2,-1
 40 487 l 1,3,-1
 503 273 l 1,4,-1
 503 222 l 1,5,-1
 40 8 l 1,6,-1
 40 70 l 1,0,-1
EndSplineSet
EndChar
StartChar: question
Encoding: 63 63 265
Width: 439
GlyphClass: 1
Flags: W
LayerCount: 2
Fore
SplineSet
182.5 267.5 m 128,-1,1
 191 293 191 293 211 315.5 c 128,-1,2
 231 338 231 338 271 368 c 0,3,4
 313 400 313 400 339 435.5 c 128,-1,5
 365 471 365 471 365 516 c 0,6,7
 365 570 365 570 327.5 601.5 c 128,-1,8
 290 633 290 633 231 633 c 0,9,10
 165 633 165 633 130.5 594.5 c 128,-1,11
 96 556 96 556 90 509 c 1,12,-1
 36 518 l 1,13,14
 44 591 44 591 99 636.5 c 128,-1,15
 154 682 154 682 233 682 c 0,16,17
 281 682 281 682 324 663.5 c 128,-1,18
 367 645 367 645 394 608 c 128,-1,19
 421 571 421 571 421 517 c 0,20,21
 421 454 421 454 386.5 408.5 c 128,-1,22
 352 363 352 363 295 320 c 0,23,24
 266 299 266 299 252.5 284.5 c 128,-1,25
 239 270 239 270 234.5 253 c 128,-1,26
 230 236 230 236 230 207 c 2,27,-1
 230 164 l 1,28,-1
 174 164 l 1,29,-1
 174 203 l 2,30,0
 174 242 174 242 182.5 267.5 c 128,-1,1
168 2 m 128,-1,32
 154 16 154 16 154 36 c 256,33,34
 154 56 154 56 168 70 c 128,-1,35
 182 84 182 84 202 84 c 256,36,37
 222 84 222 84 236 70 c 128,-1,38
 250 56 250 56 250 36 c 256,39,40
 250 16 250 16 236 2 c 128,-1,41
 222 -12 222 -12 202 -12 c 256,42,31
 182 -12 182 -12 168 2 c 128,-1,32
EndSplineSet
EndChar
StartChar: at
Encoding: 64 64 297
Width: 766
GlyphClass: 1
Flags: W
LayerCount: 2
Fore
SplineSet
227 -52 m 128,-1,1
 147 -11 147 -11 96.5 68.5 c 128,-1,2
 46 148 46 148 46 257 c 0,3,4
 46 356 46 356 92.5 434.5 c 128,-1,5
 139 513 139 513 217.5 557 c 128,-1,6
 296 601 296 601 389 601 c 0,7,8
 464 601 464 601 540 568 c 128,-1,9
 616 535 616 535 668 464 c 128,-1,10
 720 393 720 393 720 287 c 0,11,12
 720 216 720 216 699 169 c 128,-1,13
 678 122 678 122 645 100 c 128,-1,14
 612 78 612 78 575 78 c 0,15,16
 543 78 543 78 515.5 97 c 128,-1,17
 488 116 488 116 479 142 c 1,18,19
 438 75 438 75 354 75 c 0,20,21
 317 75 317 75 285.5 93.5 c 128,-1,22
 254 112 254 112 235 149 c 128,-1,23
 216 186 216 186 216 237 c 0,24,25
 216 341 216 341 270.5 390.5 c 128,-1,26
 325 440 325 440 405 440 c 0,27,28
 460 440 460 440 520 420 c 1,29,-1
 520 189 l 2,30,31
 520 154 520 154 537.5 139 c 128,-1,32
 555 124 555 124 581 124 c 0,33,34
 627 124 627 124 650.5 174.5 c 128,-1,35
 674 225 674 225 674 287 c 0,36,37
 674 363 674 363 636 424 c 128,-1,38
 598 485 598 485 533 519.5 c 128,-1,39
 468 554 468 554 389 554 c 256,40,41
 310 554 310 554 242.5 517 c 128,-1,42
 175 480 175 480 135 412 c 128,-1,43
 95 344 95 344 95 256 c 0,44,45
 95 162 95 162 137 93.5 c 128,-1,46
 179 25 179 25 246.5 -10.5 c 128,-1,47
 314 -46 314 -46 389 -46 c 0,48,49
 463 -46 463 -46 526 -11 c 1,50,-1
 526 -65 l 1,51,52
 461 -93 461 -93 394 -93 c 0,53,0
 307 -93 307 -93 227 -52 c 128,-1,1
436 152 m 128,-1,55
 468 185 468 185 468 232 c 2,56,-1
 468 386 l 1,57,58
 445 393 445 393 408 393 c 0,59,60
 351 393 351 393 309 357.5 c 128,-1,61
 267 322 267 322 267 236 c 0,62,63
 267 181 267 181 296 150 c 128,-1,64
 325 119 325 119 361 119 c 0,65,54
 404 119 404 119 436 152 c 128,-1,55
EndSplineSet
EndChar
StartChar: A
Encoding: 65 65 2
Width: 586
GlyphClass: 2
Flags: W
AnchorPoint: "Anchor-2" 576 10 basechar 0
AnchorPoint: "Anchor-1" 293 668 basechar 0
AnchorPoint: "Anchor-0" 293 0 basechar 0
LayerCount: 2
Fore
SplineSet
263 668 m 1,0,-1
 325 668 l 1,1,-1
 576 0 l 1,2,-1
 516 0 l 1,3,-1
 456 167 l 1,4,-1
 130 167 l 1,5,-1
 69 0 l 1,6,-1
 10 0 l 1,7,-1
 263 668 l 1,0,-1
437 217 m 1,8,-1
 293 611 l 1,9,-1
 149 217 l 1,10,-1
 437 217 l 1,8,-1
EndSplineSet
Substitution2: "Single Substitution lookup 15 subtable" ordfeminine
AlternateSubs2: "'aalt' Access All Alternates in Latin lookup 0 subtable" ordfeminine
EndChar
StartChar: B
Encoding: 66 66 13
Width: 587
GlyphClass: 2
Flags: W
AnchorPoint: "Anchor-1" 292 668 basechar 0
AnchorPoint: "Anchor-0" 292 0 basechar 0
LayerCount: 2
Fore
SplineSet
82 668 m 1,0,-1
 324 668 l 2,1,2
 385 668 385 668 430 645 c 128,-1,3
 475 622 475 622 498 582.5 c 128,-1,4
 521 543 521 543 521 495 c 0,5,6
 521 446 521 446 499.5 408 c 128,-1,7
 478 370 478 370 433 349 c 1,8,9
 550 305 550 305 550 191 c 0,10,11
 550 141 550 141 527 97 c 128,-1,12
 504 53 504 53 457.5 26.5 c 128,-1,13
 411 0 411 0 345 0 c 2,14,-1
 82 0 l 1,15,-1
 82 668 l 1,0,-1
453.5 88.5 m 128,-1,17
 491 127 491 127 491 188 c 0,18,19
 491 247 491 247 452 284 c 128,-1,20
 413 321 413 321 335 321 c 2,21,-1
 140 321 l 1,22,-1
 140 50 l 1,23,-1
 337 50 l 2,24,16
 416 50 416 50 453.5 88.5 c 128,-1,17
431.5 404 m 128,-1,26
 463 437 463 437 463 492 c 0,27,28
 463 548 463 548 426.5 583 c 128,-1,29
 390 618 390 618 316 618 c 2,30,-1
 140 618 l 1,31,-1
 140 371 l 1,32,-1
 332 371 l 2,33,25
 400 371 400 371 431.5 404 c 128,-1,26
EndSplineSet
EndChar
StartChar: C
Encoding: 67 67 14
Width: 633
GlyphClass: 2
Flags: W
AnchorPoint: "Anchor-1" 341 668 basechar 0
AnchorPoint: "Anchor-0" 337 0 basechar 0
LayerCount: 2
Fore
SplineSet
184 33 m 128,-1,1
 118 78 118 78 82 157 c 128,-1,2
 46 236 46 236 46 336 c 0,3,4
 46 435 46 435 83.5 513.5 c 128,-1,5
 121 592 121 592 189 636 c 128,-1,6
 257 680 257 680 344 680 c 0,7,8
 425 680 425 680 488.5 642 c 128,-1,9
 552 604 552 604 584 531 c 1,10,-1
 533 511 l 1,11,12
 508 565 508 565 461 597.5 c 128,-1,13
 414 630 414 630 342 630 c 0,14,15
 276 630 276 630 222 596 c 128,-1,16
 168 562 168 562 136.5 495.5 c 128,-1,17
 105 429 105 429 105 336 c 0,18,19
 105 242 105 242 136 175 c 128,-1,20
 167 108 167 108 221 73 c 128,-1,21
 275 38 275 38 341 38 c 0,22,23
 476 38 476 38 535 157 c 1,24,-1
 587 137 l 1,25,26
 518 -12 518 -12 337 -12 c 0,27,0
 250 -12 250 -12 184 33 c 128,-1,1
EndSplineSet
EndChar
StartChar: D
Encoding: 68 68 19
Width: 644
GlyphClass: 2
Flags: W
AnchorPoint: "Anchor-1" 311 668 basechar 0
AnchorPoint: "Anchor-0" 324 0 basechar 0
LayerCount: 2
Fore
SplineSet
82 668 m 1,0,-1
 247 668 l 2,1,2
 408 668 408 668 503 591 c 128,-1,3
 598 514 598 514 598 336 c 0,4,5
 598 161 598 161 504.5 80.5 c 128,-1,6
 411 0 411 0 247 0 c 2,7,-1
 82 0 l 1,8,-1
 82 668 l 1,0,-1
458 113 m 128,-1,10
 538 176 538 176 538 336 c 256,11,12
 538 496 538 496 458.5 557 c 128,-1,13
 379 618 379 618 239 618 c 2,14,-1
 140 618 l 1,15,-1
 140 50 l 1,16,-1
 239 50 l 2,17,9
 378 50 378 50 458 113 c 128,-1,10
EndSplineSet
EndChar
StartChar: F
Encoding: 70 70 32
Width: 536
GlyphClass: 2
Flags: W
AnchorPoint: "Anchor-1" 265 668 basechar 0
AnchorPoint: "Anchor-0" 265 0 basechar 0
LayerCount: 2
Fore
SplineSet
82 668 m 1,0,-1
 493 668 l 1,1,-1
 493 618 l 1,2,-1
 140 618 l 1,3,-1
 140 369 l 1,4,-1
 489 369 l 1,5,-1
 489 319 l 1,6,-1
 140 319 l 1,7,-1
 140 0 l 1,8,-1
 82 0 l 1,9,-1
 82 668 l 1,0,-1
EndSplineSet
EndChar
StartChar: G
Encoding: 71 71 33
Width: 674
GlyphClass: 2
Flags: W
AnchorPoint: "Anchor-1" 341 668 basechar 0
AnchorPoint: "Anchor-0" 341 0 basechar 0
LayerCount: 2
Fore
SplineSet
181.5 33 m 128,-1,1
 115 78 115 78 80.5 156.5 c 128,-1,2
 46 235 46 235 46 334 c 0,3,4
 46 437 46 437 82.5 515.5 c 128,-1,5
 119 594 119 594 187 637 c 128,-1,6
 255 680 255 680 345 680 c 0,7,8
 428 680 428 680 492.5 640 c 128,-1,9
 557 600 557 600 590 525 c 1,10,-1
 537 505 l 1,11,12
 512 564 512 564 462 597 c 128,-1,13
 412 630 412 630 343 630 c 0,14,15
 275 630 275 630 221 596 c 128,-1,16
 167 562 167 562 136 495 c 128,-1,17
 105 428 105 428 105 334 c 0,18,19
 105 244 105 244 135 177 c 128,-1,20
 165 110 165 110 218.5 74 c 128,-1,21
 272 38 272 38 341 38 c 0,22,23
 427 38 427 38 491 87 c 128,-1,24
 555 136 555 136 555 252 c 2,25,-1
 555 278 l 1,26,-1
 338 278 l 1,27,-1
 338 328 l 1,28,-1
 611 328 l 1,29,-1
 611 0 l 1,30,-1
 570 0 l 1,31,-1
 556 96 l 1,32,33
 522 41 522 41 465.5 14.5 c 128,-1,34
 409 -12 409 -12 340 -12 c 0,35,0
 248 -12 248 -12 181.5 33 c 128,-1,1
EndSplineSet
EndChar
StartChar: I
Encoding: 73 73 39
Width: 360
GlyphClass: 2
Flags: W
AnchorPoint: "Anchor-2" 303 10 basechar 0
AnchorPoint: "Anchor-1" 180 668 basechar 0
AnchorPoint: "Anchor-0" 180 0 basechar 0
LayerCount: 2
Fore
SplineSet
57 44 m 1,0,-1
 151 44 l 1,1,-1
 151 624 l 1,2,-1
 57 624 l 1,3,-1
 57 668 l 1,4,-1
 303 668 l 1,5,-1
 303 624 l 1,6,-1
 209 624 l 1,7,-1
 209 44 l 1,8,-1
 303 44 l 1,9,-1
 303 0 l 1,10,-1
 57 0 l 1,11,-1
 57 44 l 1,0,-1
EndSplineSet
EndChar
StartChar: J
Encoding: 74 74 48
Width: 474
GlyphClass: 2
Flags: W
AnchorPoint: "Anchor-1" 363 668 basechar 0
AnchorPoint: "Anchor-0" 243 0 basechar 0
LayerCount: 2
Fore
SplineSet
66.5 40 m 128,-1,1
 16 92 16 92 20 196 c 1,2,-1
 76 207 l 1,3,4
 75 199 75 199 75 184 c 0,5,6
 75 109 75 109 113.5 73.5 c 128,-1,7
 152 38 152 38 209 38 c 0,8,9
 258 38 258 38 296 70 c 128,-1,10
 334 102 334 102 334 186 c 2,11,-1
 334 668 l 1,12,-1
 393 668 l 1,13,-1
 393 185 l 2,14,15
 393 89 393 89 343.5 38.5 c 128,-1,16
 294 -12 294 -12 209 -12 c 0,17,0
 117 -12 117 -12 66.5 40 c 128,-1,1
EndSplineSet
Substitution2: "Single Substitution lookup 14 subtable" uni004A0301
AlternateSubs2: "'aalt' Access All Alternates in Latin lookup 0 subtable" uni004A0301
EndChar
StartChar: K
Encoding: 75 75 50
Width: 602
GlyphClass: 2
Flags: W
AnchorPoint: "Anchor-1" 292 668 basechar 0
AnchorPoint: "Anchor-0" 292 0 basechar 0
LayerCount: 2
Fore
SplineSet
82 668 m 1,0,-1
 140 668 l 1,1,-1
 140 293 l 1,2,-1
 474 668 l 1,3,-1
 550 668 l 1,4,-1
 298 392 l 1,5,-1
 586 0 l 1,6,-1
 511 0 l 1,7,-1
 259 348 l 1,8,-1
 140 218 l 1,9,-1
 140 0 l 1,10,-1
 82 0 l 1,11,-1
 82 668 l 1,0,-1
EndSplineSet
EndChar
StartChar: L
Encoding: 76 76 52
Width: 523
GlyphClass: 2
Flags: W
AnchorPoint: "Anchor-3" 216 459 basechar 0
AnchorPoint: "Anchor-1" 256 668 basechar 0
AnchorPoint: "Anchor-0" 256 0 basechar 0
LayerCount: 2
Fore
SplineSet
82 668 m 1,0,-1
 140 668 l 1,1,-1
 140 50 l 1,2,-1
 518 50 l 1,3,-1
 518 0 l 1,4,-1
 82 0 l 1,5,-1
 82 668 l 1,0,-1
EndSplineSet
EndChar
StartChar: N
Encoding: 78 78 57
Width: 663
GlyphClass: 2
Flags: W
AnchorPoint: "Anchor-1" 332 668 basechar 0
AnchorPoint: "Anchor-0" 332 0 basechar 0
LayerCount: 2
Fore
SplineSet
82 668 m 1,0,-1
 176 668 l 1,1,-1
 523 54 l 1,2,-1
 523 668 l 1,3,-1
 581 668 l 1,4,-1
 581 0 l 1,5,-1
 489 0 l 1,6,-1
 140 618 l 1,7,-1
 140 0 l 1,8,-1
 82 0 l 1,9,-1
 82 668 l 1,0,-1
EndSplineSet
EndChar
StartChar: O
Encoding: 79 79 62
Width: 686
GlyphClass: 2
Flags: W
AnchorPoint: "Anchor-3" 678 668 basechar 0
AnchorPoint: "Anchor-2" 627 10 basechar 0
AnchorPoint: "Anchor-1" 344 668 basechar 0
AnchorPoint: "Anchor-0" 344 0 basechar 0
LayerCount: 2
Fore
SplineSet
185.5 32.5 m 128,-1,1
 118 77 118 77 82 156 c 128,-1,2
 46 235 46 235 46 334 c 256,3,4
 46 433 46 433 82 512 c 128,-1,5
 118 591 118 591 185.5 635.5 c 128,-1,6
 253 680 253 680 343 680 c 256,7,8
 433 680 433 680 500.5 635 c 128,-1,9
 568 590 568 590 604 511.5 c 128,-1,10
 640 433 640 433 640 334 c 256,11,12
 640 235 640 235 604 156.5 c 128,-1,13
 568 78 568 78 500.5 33 c 128,-1,14
 433 -12 433 -12 343 -12 c 256,15,0
 253 -12 253 -12 185.5 32.5 c 128,-1,1
464 73 m 128,-1,17
 518 108 518 108 549.5 175 c 128,-1,18
 581 242 581 242 581 334 c 256,19,20
 581 426 581 426 549.5 493 c 128,-1,21
 518 560 518 560 464 595 c 128,-1,22
 410 630 410 630 343 630 c 256,23,24
 276 630 276 630 222 595 c 128,-1,25
 168 560 168 560 136.5 493 c 128,-1,26
 105 426 105 426 105 334 c 256,27,28
 105 242 105 242 136.5 175 c 128,-1,29
 168 108 168 108 222 73 c 128,-1,30
 276 38 276 38 343 38 c 256,31,16
 410 38 410 38 464 73 c 128,-1,17
EndSplineSet
Substitution2: "Single Substitution lookup 15 subtable" ordmasculine
AlternateSubs2: "'aalt' Access All Alternates in Latin lookup 0 subtable" ordmasculine
EndChar
StartChar: P
Encoding: 80 80 71
Width: 561
GlyphClass: 2
Flags: W
AnchorPoint: "Anchor-1" 281 668 basechar 0
AnchorPoint: "Anchor-0" 281 0 basechar 0
LayerCount: 2
Fore
SplineSet
82 668 m 1,0,-1
 297 668 l 2,1,2
 406 668 406 668 468 619.5 c 128,-1,3
 530 571 530 571 530 476 c 256,4,5
 530 381 530 381 468 332.5 c 128,-1,6
 406 284 406 284 297 284 c 2,7,-1
 140 284 l 1,8,-1
 140 0 l 1,9,-1
 82 0 l 1,10,-1
 82 668 l 1,0,-1
424 367 m 128,-1,12
 471 400 471 400 471 476 c 256,13,14
 471 552 471 552 424 585 c 128,-1,15
 377 618 377 618 291 618 c 2,16,-1
 140 618 l 1,17,-1
 140 334 l 1,18,-1
 291 334 l 2,19,11
 377 334 377 334 424 367 c 128,-1,12
EndSplineSet
EndChar
StartChar: Q
Encoding: 81 81 73
Width: 696
GlyphClass: 1
Flags: W
LayerCount: 2
Fore
SplineSet
185.5 32.5 m 128,-1,1
 118 77 118 77 82 156 c 128,-1,2
 46 235 46 235 46 334 c 256,3,4
 46 433 46 433 82 512 c 128,-1,5
 118 591 118 591 185.5 635.5 c 128,-1,6
 253 680 253 680 343 680 c 256,7,8
 433 680 433 680 500.5 635 c 128,-1,9
 568 590 568 590 604 511.5 c 128,-1,10
 640 433 640 433 640 334 c 0,11,12
 640 207 640 207 583 116 c 1,13,-1
 706 0 l 1,14,-1
 668 -38 l 1,15,-1
 549 74 l 1,16,17
 510 33 510 33 458 10.5 c 128,-1,18
 406 -12 406 -12 343 -12 c 0,19,0
 253 -12 253 -12 185.5 32.5 c 128,-1,1
434.5 56.5 m 128,-1,21
 477 75 477 75 509 111 c 1,22,-1
 328 281 l 1,23,-1
 365 320 l 1,24,-1
 540 156 l 1,25,26
 581 229 581 229 581 334 c 0,27,28
 581 426 581 426 549.5 493 c 128,-1,29
 518 560 518 560 464 595 c 128,-1,30
 410 630 410 630 343 630 c 256,31,32
 276 630 276 630 222 595 c 128,-1,33
 168 560 168 560 136.5 493 c 128,-1,34
 105 426 105 426 105 334 c 256,35,36
 105 242 105 242 136.5 175 c 128,-1,37
 168 108 168 108 222 73 c 128,-1,38
 276 38 276 38 343 38 c 0,39,20
 392 38 392 38 434.5 56.5 c 128,-1,21
EndSplineSet
EndChar
StartChar: R
Encoding: 82 82 74
Width: 585
GlyphClass: 2
Flags: W
AnchorPoint: "Anchor-1" 267 668 basechar 0
AnchorPoint: "Anchor-0" 286 0 basechar 0
LayerCount: 2
Fore
SplineSet
82 668 m 1,0,-1
 309 668 l 2,1,2
 415 668 415 668 476.5 620.5 c 128,-1,3
 538 573 538 573 538 479 c 0,4,5
 538 391 538 391 482.5 344.5 c 128,-1,6
 427 298 427 298 331 293 c 1,7,-1
 549 0 l 1,8,-1
 476 0 l 1,9,-1
 264 290 l 1,10,-1
 140 290 l 1,11,-1
 140 0 l 1,12,-1
 82 0 l 1,13,-1
 82 668 l 1,0,-1
431.5 374 m 128,-1,15
 479 408 479 408 479 479 c 256,16,17
 479 550 479 550 432 584 c 128,-1,18
 385 618 385 618 306 618 c 2,19,-1
 140 618 l 1,20,-1
 140 340 l 1,21,-1
 306 340 l 2,22,14
 384 340 384 340 431.5 374 c 128,-1,15
EndSplineSet
EndChar
StartChar: S
Encoding: 83 83 77
Width: 581
GlyphClass: 2
Flags: W
AnchorPoint: "Anchor-1" 290 668 basechar 0
AnchorPoint: "Anchor-0" 290 0 basechar 0
LayerCount: 2
Fore
SplineSet
137.5 26.5 m 128,-1,1
 68 65 68 65 46 140 c 1,2,-1
 102 161 l 1,3,4
 120 101 120 101 172.5 69.5 c 128,-1,5
 225 38 225 38 290 38 c 0,6,7
 371 38 371 38 423.5 76 c 128,-1,8
 476 114 476 114 476 184 c 0,9,10
 476 231 476 231 443 260.5 c 128,-1,11
 410 290 410 290 325 312 c 2,12,-1
 230 336 l 2,13,14
 150 356 150 356 106 394.5 c 128,-1,15
 62 433 62 433 62 502 c 0,16,17
 62 553 62 553 91.5 593.5 c 128,-1,18
 121 634 121 634 173 657 c 128,-1,19
 225 680 225 680 290 680 c 0,20,21
 361 680 361 680 419.5 651 c 128,-1,22
 478 622 478 622 508 565 c 1,23,-1
 452 544 l 1,24,25
 431 584 431 584 384.5 607 c 128,-1,26
 338 630 338 630 290 630 c 0,27,28
 216 630 216 630 169 596 c 128,-1,29
 122 562 122 562 122 503 c 0,30,31
 122 419 122 419 243 390 c 2,32,-1
 338 366 l 2,33,34
 435 342 435 342 485 302 c 128,-1,35
 535 262 535 262 535 181 c 0,36,37
 535 123 535 123 501.5 79 c 128,-1,38
 468 35 468 35 411 11.5 c 128,-1,39
 354 -12 354 -12 286 -12 c 0,40,0
 207 -12 207 -12 137.5 26.5 c 128,-1,1
EndSplineSet
EndChar
StartChar: T
Encoding: 84 84 83
Width: 524
GlyphClass: 2
Flags: W
AnchorPoint: "Anchor-1" 262 668 basechar 0
AnchorPoint: "Anchor-0" 263 0 basechar 0
LayerCount: 2
Fore
SplineSet
233 618 m 1,0,-1
 8 618 l 1,1,-1
 8 668 l 1,2,-1
 516 668 l 1,3,-1
 516 618 l 1,4,-1
 291 618 l 1,5,-1
 291 0 l 1,6,-1
 233 0 l 1,7,-1
 233 618 l 1,0,-1
EndSplineSet
EndChar
StartChar: U
Encoding: 85 85 87
Width: 673
GlyphClass: 2
Flags: W
AnchorPoint: "Anchor-3" 666 668 basechar 0
AnchorPoint: "Anchor-2" 504 10 basechar 0
AnchorPoint: "Anchor-1" 337 668 basechar 0
AnchorPoint: "Anchor-0" 336 0 basechar 0
LayerCount: 2
Fore
SplineSet
141.5 58 m 128,-1,1
 80 128 80 128 80 272 c 2,2,-1
 80 668 l 1,3,-1
 138 668 l 1,4,-1
 138 268 l 2,5,6
 138 152 138 152 185.5 95 c 128,-1,7
 233 38 233 38 336 38 c 0,8,9
 438 38 438 38 486.5 95.5 c 128,-1,10
 535 153 535 153 535 268 c 2,11,-1
 535 668 l 1,12,-1
 593 668 l 1,13,-1
 593 272 l 2,14,15
 593 128 593 128 531 58 c 128,-1,16
 469 -12 469 -12 336 -12 c 256,17,0
 203 -12 203 -12 141.5 58 c 128,-1,1
EndSplineSet
EndChar
StartChar: V
Encoding: 86 86 96
Width: 567
GlyphClass: 2
Flags: W
AnchorPoint: "Anchor-1" 284 668 basechar 0
AnchorPoint: "Anchor-0" 284 0 basechar 0
LayerCount: 2
Fore
SplineSet
16 668 m 1,0,-1
 76 668 l 1,1,-1
 283 69 l 1,2,-1
 491 668 l 1,3,-1
 551 668 l 1,4,-1
 313 0 l 1,5,-1
 251 0 l 1,6,-1
 16 668 l 1,0,-1
EndSplineSet
EndChar
StartChar: bracketright
Encoding: 93 93 282
Width: 295
GlyphClass: 1
Flags: W
LayerCount: 2
Fore
SplineSet
35 -120 m 1,0,-1
 158 -120 l 1,1,-1
 158 666 l 1,2,-1
 35 666 l 1,3,-1
 35 708 l 1,4,-1
 213 708 l 1,5,-1
 213 -162 l 1,6,-1
 35 -162 l 1,7,-1
 35 -120 l 1,0,-1
EndSplineSet
EndChar
StartChar: underscore
Encoding: 95 95 276
Width: 355
GlyphClass: 1
Flags: W
LayerCount: 2
Fore
SplineSet
-2 0 m 1,0,-1
 357 0 l 1,1,-1
 357 -55 l 1,2,-1
 -2 -55 l 1,3,-1
 -2 0 l 1,0,-1
EndSplineSet
EndChar
StartChar: a
Encoding: 97 97 112
Width: 505
GlyphClass: 2
Flags: W
AnchorPoint: "Anchor-2" 444 10 basechar 0
AnchorPoint: "Anchor-1" 247 496 basechar 0
AnchorPoint: "Anchor-0" 247 0 basechar 0
LayerCount: 2
Fore
SplineSet
81.5 23.5 m 128,-1,1
 34 59 34 59 34 122 c 0,2,3
 34 207 34 207 114.5 249.5 c 128,-1,4
 195 292 195 292 371 305 c 1,5,-1
 371 318 l 2,6,7
 371 385 371 385 340.5 422 c 128,-1,8
 310 459 310 459 247 459 c 0,9,10
 197 459 197 459 164 434.5 c 128,-1,11
 131 410 131 410 122 371 c 1,12,-1
 64 385 l 1,13,14
 83 443 83 443 132.5 474.5 c 128,-1,15
 182 506 182 506 246 506 c 0,16,17
 426 506 426 506 426 313 c 2,18,-1
 426 194 l 2,19,20
 426 79 426 79 444 0 c 1,21,-1
 398 0 l 1,22,-1
 378 80 l 1,23,24
 359 41 359 41 315.5 14.5 c 128,-1,25
 272 -12 272 -12 204 -12 c 0,26,0
 129 -12 129 -12 81.5 23.5 c 128,-1,1
325 75 m 128,-1,28
 371 114 371 114 371 196 c 2,29,-1
 371 260 l 1,30,31
 226 250 226 250 158.5 217 c 128,-1,32
 91 184 91 184 91 125 c 0,33,34
 91 85 91 85 123 60.5 c 128,-1,35
 155 36 155 36 208 36 c 0,36,27
 279 36 279 36 325 75 c 128,-1,28
EndSplineSet
Substitution2: "Single Substitution lookup 15 subtable" ordfeminine
AlternateSubs2: "'aalt' Access All Alternates in Latin lookup 0 subtable" ordfeminine
EndChar
StartChar: b
Encoding: 98 98 123
Width: 546
GlyphClass: 2
Flags: W
AnchorPoint: "Anchor-1" 277 496 basechar 0
AnchorPoint: "Anchor-0" 277 0 basechar 0
LayerCount: 2
Fore
SplineSet
131 83 m 1,1,-1
 117 0 l 1,2,-1
 76 0 l 1,3,-1
 76 708 l 1,4,-1
 132 708 l 1,5,-1
 132 406 l 1,6,7
 150 448 150 448 193 477 c 128,-1,8
 236 506 236 506 294 506 c 0,9,10
 354 506 354 506 402 476 c 128,-1,11
 450 446 450 446 478 386.5 c 128,-1,12
 506 327 506 327 506 243 c 0,13,14
 506 161 506 161 476 103.5 c 128,-1,15
 446 46 446 46 398 17 c 128,-1,16
 350 -12 350 -12 295 -12 c 0,17,0
 182 -12 182 -12 131 83 c 1,1,-1
406 91.5 m 128,-1,19
 449 146 449 146 449 244 c 0,20,21
 449 344 449 344 406 400 c 128,-1,22
 363 456 363 456 287 456 c 0,23,24
 214 456 214 456 172.5 399 c 128,-1,25
 131 342 131 342 131 244 c 0,26,27
 131 150 131 150 173 93.5 c 128,-1,28
 215 37 215 37 287 37 c 0,29,18
 363 37 363 37 406 91.5 c 128,-1,19
EndSplineSet
EndChar
StartChar: c
Encoding: 99 99 124
Width: 470
GlyphClass: 2
Flags: W
AnchorPoint: "Anchor-1" 262 496 basechar 0
AnchorPoint: "Anchor-0" 259 0 basechar 0
LayerCount: 2
Fore
SplineSet
145 21 m 128,-1,1
 95 54 95 54 67.5 112.5 c 128,-1,2
 40 171 40 171 40 243 c 0,3,4
 40 316 40 316 66.5 376 c 128,-1,5
 93 436 93 436 144.5 471 c 128,-1,6
 196 506 196 506 266 506 c 0,7,8
 331 506 331 506 374.5 473.5 c 128,-1,9
 418 441 418 441 441 398 c 1,10,-1
 392 379 l 1,11,12
 373 416 373 416 339 436 c 128,-1,13
 305 456 305 456 262 456 c 0,14,15
 217 456 217 456 179.5 433 c 128,-1,16
 142 410 142 410 119.5 362 c 128,-1,17
 97 314 97 314 97 245 c 0,18,19
 97 177 97 177 119.5 130.5 c 128,-1,20
 142 84 142 84 179 61 c 128,-1,21
 216 38 216 38 260 38 c 256,22,23
 304 38 304 38 339.5 58.5 c 128,-1,24
 375 79 375 79 393 114 c 1,25,-1
 445 94 l 1,26,27
 420 49 420 49 373 18.5 c 128,-1,28
 326 -12 326 -12 259 -12 c 0,29,0
 195 -12 195 -12 145 21 c 128,-1,1
EndSplineSet
EndChar
StartChar: d
Encoding: 100 100 129
Width: 550
GlyphClass: 2
Flags: W
AnchorPoint: "Anchor-3" 516 498 basechar 0
AnchorPoint: "Anchor-1" 268 796 basechar 0
AnchorPoint: "Anchor-0" 268 0 basechar 0
LayerCount: 2
Fore
SplineSet
145.5 17.5 m 128,-1,1
 98 47 98 47 69 104.5 c 128,-1,2
 40 162 40 162 40 243 c 256,3,4
 40 324 40 324 67.5 383.5 c 128,-1,5
 95 443 95 443 142.5 474.5 c 128,-1,6
 190 506 190 506 249 506 c 0,7,8
 364 506 364 506 416 410 c 1,9,-1
 416 708 l 1,10,-1
 471 708 l 1,11,-1
 471 183 l 2,12,13
 471 94 471 94 488 0 c 1,14,-1
 437 0 l 1,15,-1
 414 80 l 1,16,17
 393 38 393 38 352 13 c 128,-1,18
 311 -12 311 -12 249 -12 c 0,19,0
 193 -12 193 -12 145.5 17.5 c 128,-1,1
373.5 93.5 m 128,-1,21
 416 150 416 150 416 244 c 0,22,23
 416 341 416 341 373 398.5 c 128,-1,24
 330 456 330 456 258 456 c 0,25,26
 182 456 182 456 139.5 399.5 c 128,-1,27
 97 343 97 343 97 243 c 0,28,29
 97 145 97 145 140 91 c 128,-1,30
 183 37 183 37 258 37 c 0,31,20
 331 37 331 37 373.5 93.5 c 128,-1,21
EndSplineSet
EndChar
StartChar: e
Encoding: 101 101 133
Width: 523
GlyphClass: 2
Flags: W
AnchorPoint: "Anchor-2" 412 10 basechar 0
AnchorPoint: "Anchor-1" 272 496 basechar 0
AnchorPoint: "Anchor-0" 259 0 basechar 0
LayerCount: 2
Fore
SplineSet
147 22 m 128,-1,1
 95 56 95 56 67.5 114.5 c 128,-1,2
 40 173 40 173 40 245 c 0,3,4
 40 323 40 323 69.5 382 c 128,-1,5
 99 441 99 441 150.5 473.5 c 128,-1,6
 202 506 202 506 267 506 c 0,7,8
 337 506 337 506 388 468.5 c 128,-1,9
 439 431 439 431 463.5 370 c 128,-1,10
 488 309 488 309 483 243 c 1,11,-1
 97 243 l 1,12,13
 97 169 97 169 125 123 c 128,-1,14
 153 77 153 77 193 57.5 c 128,-1,15
 233 38 233 38 273 38 c 0,16,17
 356 38 356 38 400 101 c 1,18,-1
 455 81 l 1,19,20
 392 -12 392 -12 269 -12 c 0,21,0
 199 -12 199 -12 147 22 c 128,-1,1
405 367 m 128,-1,23
 387 406 387 406 351.5 431 c 128,-1,24
 316 456 316 456 267 456 c 0,25,26
 203 456 203 456 156 416 c 128,-1,27
 109 376 109 376 99 289 c 1,28,-1
 424 289 l 1,29,22
 423 328 423 328 405 367 c 128,-1,23
EndSplineSet
EndChar
StartChar: f
Encoding: 102 102 142
Width: 288
GlyphClass: 2
Flags: W
AnchorPoint: "Anchor-1" 144 796 basechar 0
AnchorPoint: "Anchor-0" 144 0 basechar 0
LayerCount: 2
Fore
SplineSet
102 451 m 1,0,-1
 17 451 l 1,1,-1
 17 496 l 1,2,-1
 102 496 l 1,3,-1
 102 597 l 2,4,5
 102 646 102 646 111 671 c 128,-1,6
 120 696 120 696 143 706 c 128,-1,7
 166 716 166 716 212 716 c 2,8,-1
 258 716 l 1,9,-1
 258 667 l 1,10,-1
 209 667 l 2,11,12
 179 667 179 667 168.5 655.5 c 128,-1,13
 158 644 158 644 158 607 c 2,14,-1
 158 496 l 1,15,-1
 258 496 l 1,16,-1
 258 451 l 1,17,-1
 158 451 l 1,18,-1
 158 0 l 1,19,-1
 102 0 l 1,20,-1
 102 451 l 1,0,-1
EndSplineSet
EndChar
StartChar: g
Encoding: 103 103 143
Width: 536
GlyphClass: 2
Flags: W
AnchorPoint: "Anchor-1" 266 496 basechar 0
AnchorPoint: "Anchor-0" 266 -251 basechar 0
LayerCount: 2
Fore
SplineSet
144 -157.5 m 128,-1,1
 92 -129 92 -129 78 -72 c 1,2,-1
 135 -57 l 1,3,4
 145 -95 145 -95 178.5 -115.5 c 128,-1,5
 212 -136 212 -136 264 -136 c 0,6,7
 330 -136 330 -136 368.5 -102 c 128,-1,8
 407 -68 407 -68 407 1 c 2,9,-1
 407 98 l 1,10,11
 387 57 387 57 349.5 30.5 c 128,-1,12
 312 4 312 4 252 4 c 0,13,14
 195 4 195 4 146.5 31.5 c 128,-1,15
 98 59 98 59 69 114 c 128,-1,16
 40 169 40 169 40 248 c 0,17,18
 40 326 40 326 67 384.5 c 128,-1,19
 94 443 94 443 142.5 474.5 c 128,-1,20
 191 506 191 506 254 506 c 0,21,22
 312 506 312 506 347.5 481 c 128,-1,23
 383 456 383 456 407 413 c 1,24,-1
 421 496 l 1,25,-1
 463 496 l 1,26,-1
 463 -3 l 2,27,28
 463 -88 463 -88 408.5 -137 c 128,-1,29
 354 -186 354 -186 262 -186 c 0,30,0
 196 -186 196 -186 144 -157.5 c 128,-1,1
365 103 m 128,-1,32
 407 152 407 152 407 252 c 0,33,34
 407 353 407 353 364.5 404.5 c 128,-1,35
 322 456 322 456 256 456 c 0,36,37
 185 456 185 456 141 400 c 128,-1,38
 97 344 97 344 97 249 c 0,39,40
 97 157 97 157 141 105.5 c 128,-1,41
 185 54 185 54 257 54 c 0,42,31
 323 54 323 54 365 103 c 128,-1,32
EndSplineSet
EndChar
StartChar: h
Encoding: 104 104 147
Width: 537
GlyphClass: 2
Flags: W
AnchorPoint: "Anchor-1" 263 796 basechar 0
AnchorPoint: "Anchor-0" 263 0 basechar 0
LayerCount: 2
Fore
SplineSet
76 708 m 1,0,-1
 132 708 l 1,1,-1
 132 419 l 1,2,3
 154 454 154 454 193.5 479.5 c 128,-1,4
 233 505 233 505 292 505 c 0,5,6
 378 505 378 505 420.5 456 c 128,-1,7
 463 407 463 407 463 326 c 2,8,-1
 463 0 l 1,9,-1
 407 0 l 1,10,-1
 407 309 l 2,11,12
 407 456 407 456 285 456 c 0,13,14
 216 456 216 456 174 407.5 c 128,-1,15
 132 359 132 359 132 276 c 2,16,-1
 132 0 l 1,17,-1
 76 0 l 1,18,-1
 76 708 l 1,0,-1
EndSplineSet
EndChar
StartChar: k
Encoding: 107 107 161
Width: 453
GlyphClass: 2
Flags: W
AnchorPoint: "Anchor-1" 227 796 basechar 0
AnchorPoint: "Anchor-0" 227 0 basechar 0
LayerCount: 2
Fore
SplineSet
76 708 m 1,0,-1
 132 708 l 1,1,-1
 132 256 l 1,2,-1
 346 496 l 1,3,-1
 415 496 l 1,4,-1
 229 293 l 1,5,-1
 443 0 l 1,6,-1
 375 0 l 1,7,-1
 191 252 l 1,8,-1
 132 187 l 1,9,-1
 132 0 l 1,10,-1
 76 0 l 1,11,-1
 76 708 l 1,0,-1
EndSplineSet
EndChar
StartChar: l
Encoding: 108 108 163
Width: 236
GlyphClass: 2
Flags: W
AnchorPoint: "Anchor-3" 172 499 basechar 0
AnchorPoint: "Anchor-1" 99 796 basechar 0
AnchorPoint: "Anchor-0" 125 0 basechar 0
LayerCount: 2
Fore
SplineSet
93 20.5 m 128,-1,1
 72 41 72 41 72 96 c 2,2,-1
 72 708 l 1,3,-1
 128 708 l 1,4,-1
 128 98 l 2,5,6
 128 69 128 69 138.5 58.5 c 128,-1,7
 149 48 149 48 178 48 c 2,8,-1
 214 48 l 1,9,-1
 214 0 l 1,10,-1
 172 0 l 2,11,0
 114 0 114 0 93 20.5 c 128,-1,1
EndSplineSet
EndChar
StartChar: m
Encoding: 109 109 167
Width: 829
GlyphClass: 2
Flags: W
AnchorPoint: "Anchor-1" 406 496 basechar 0
AnchorPoint: "Anchor-0" 406 0 basechar 0
LayerCount: 2
Fore
SplineSet
76 496 m 1,0,-1
 117 496 l 1,1,-1
 130 416 l 1,2,3
 148 450 148 450 188.5 477.5 c 128,-1,4
 229 505 229 505 282 505 c 0,5,6
 393 505 393 505 429 410 c 1,7,8
 485 505 485 505 594 505 c 0,9,10
 676 505 676 505 715.5 456 c 128,-1,11
 755 407 755 407 755 326 c 2,12,-1
 755 0 l 1,13,-1
 699 0 l 1,14,-1
 699 309 l 2,15,16
 699 456 699 456 587 456 c 0,17,18
 522 456 522 456 482.5 409 c 128,-1,19
 443 362 443 362 443 276 c 2,20,-1
 443 0 l 1,21,-1
 388 0 l 1,22,-1
 388 309 l 2,23,24
 388 456 388 456 277 456 c 0,25,26
 237 456 237 456 204 434.5 c 128,-1,27
 171 413 171 413 151.5 372 c 128,-1,28
 132 331 132 331 132 276 c 2,29,-1
 132 0 l 1,30,-1
 76 0 l 1,31,-1
 76 496 l 1,0,-1
EndSplineSet
EndChar
StartChar: n
Encoding: 110 110 168
Width: 537
GlyphClass: 2
Flags: W
AnchorPoint: "Anchor-1" 268 496 basechar 0
AnchorPoint: "Anchor-0" 268 0 basechar 0
LayerCount: 2
Fore
SplineSet
76 496 m 1,0,-1
 117 496 l 1,1,-1
 130 416 l 1,2,3
 151 452 151 452 192 478.5 c 128,-1,4
 233 505 233 505 292 505 c 0,5,6
 378 505 378 505 420.5 456 c 128,-1,7
 463 407 463 407 463 326 c 2,8,-1
 463 0 l 1,9,-1
 407 0 l 1,10,-1
 407 309 l 2,11,12
 407 456 407 456 285 456 c 0,13,14
 216 456 216 456 174 407.5 c 128,-1,15
 132 359 132 359 132 273 c 2,16,-1
 132 0 l 1,17,-1
 76 0 l 1,18,-1
 76 496 l 1,0,-1
EndSplineSet
EndChar
StartChar: o
Encoding: 111 111 173
Width: 529
GlyphClass: 2
Flags: W
AnchorPoint: "Anchor-3" 516 496 basechar 0
AnchorPoint: "Anchor-2" 482 10 basechar 0
AnchorPoint: "Anchor-1" 265 496 basechar 0
AnchorPoint: "Anchor-0" 265 0 basechar 0
LayerCount: 2
Fore
SplineSet
157.5 16.5 m 128,-1,1
 106 45 106 45 73 103 c 128,-1,2
 40 161 40 161 40 247 c 256,3,4
 40 333 40 333 73 391 c 128,-1,5
 106 449 106 449 157.5 477.5 c 128,-1,6
 209 506 209 506 265 506 c 0,7,8
 320 506 320 506 371.5 477.5 c 128,-1,9
 423 449 423 449 456 391 c 128,-1,10
 489 333 489 333 489 247 c 256,11,12
 489 161 489 161 456 103 c 128,-1,13
 423 45 423 45 371.5 16.5 c 128,-1,14
 320 -12 320 -12 265 -12 c 0,15,0
 209 -12 209 -12 157.5 16.5 c 128,-1,1
347 61 m 128,-1,17
 385 84 385 84 408.5 131 c 128,-1,18
 432 178 432 178 432 247 c 256,19,20
 432 316 432 316 408.5 363 c 128,-1,21
 385 410 385 410 347 433 c 128,-1,22
 309 456 309 456 265 456 c 0,23,24
 220 456 220 456 182 433 c 128,-1,25
 144 410 144 410 120.5 363 c 128,-1,26
 97 316 97 316 97 247 c 256,27,28
 97 178 97 178 120.5 131 c 128,-1,29
 144 84 144 84 182 61 c 128,-1,30
 220 38 220 38 265 38 c 0,31,16
 309 38 309 38 347 61 c 128,-1,17
EndSplineSet
Substitution2: "Single Substitution lookup 15 subtable" ordmasculine
AlternateSubs2: "'aalt' Access All Alternates in Latin lookup 0 subtable" ordmasculine
EndChar
StartChar: p
Encoding: 112 112 182
Width: 546
GlyphClass: 2
Flags: W
AnchorPoint: "Anchor-1" 274 496 basechar 0
AnchorPoint: "Anchor-0" 274 0 basechar 0
LayerCount: 2
Fore
SplineSet
76 496 m 1,0,-1
 117 496 l 1,1,-1
 132 412 l 1,2,3
 181 506 181 506 296 506 c 0,4,5
 352 506 352 506 400 477.5 c 128,-1,6
 448 449 448 449 477 391 c 128,-1,7
 506 333 506 333 506 251 c 0,8,9
 506 167 506 167 478.5 107.5 c 128,-1,10
 451 48 451 48 403 18 c 128,-1,11
 355 -12 355 -12 295 -12 c 0,12,13
 237 -12 237 -12 193 15 c 128,-1,14
 149 42 149 42 132 83 c 1,15,-1
 132 -162 l 1,16,-1
 76 -162 l 1,17,-1
 76 496 l 1,0,-1
408 93 m 128,-1,19
 449 149 449 149 449 250 c 0,20,21
 449 348 449 348 406 402 c 128,-1,22
 363 456 363 456 287 456 c 0,23,24
 215 456 215 456 173 400 c 128,-1,25
 131 344 131 344 131 250 c 0,26,27
 131 153 131 153 175 95 c 128,-1,28
 219 37 219 37 292 37 c 0,29,18
 367 37 367 37 408 93 c 128,-1,19
EndSplineSet
EndChar
StartChar: q
Encoding: 113 113 184
Width: 553
GlyphClass: 2
Flags: W
AnchorPoint: "Anchor-1" 271 496 basechar 0
AnchorPoint: "Anchor-0" 271 0 basechar 0
LayerCount: 2
Fore
SplineSet
445.5 -147 m 128,-1,1
 416 -120 416 -120 416 -54 c 2,2,-1
 416 85 l 1,3,4
 396 42 396 42 353.5 15 c 128,-1,5
 311 -12 311 -12 252 -12 c 0,6,7
 192 -12 192 -12 144 18 c 128,-1,8
 96 48 96 48 68 107.5 c 128,-1,9
 40 167 40 167 40 251 c 0,10,11
 40 333 40 333 69.5 390.5 c 128,-1,12
 99 448 99 448 147.5 477 c 128,-1,13
 196 506 196 506 251 506 c 0,14,15
 364 506 364 506 415 411 c 1,16,-1
 430 496 l 1,17,-1
 471 496 l 1,18,-1
 471 -53 l 2,19,20
 471 -90 471 -90 486.5 -107 c 128,-1,21
 502 -124 502 -124 536 -124 c 0,22,23
 568 -124 568 -124 595 -110 c 1,24,-1
 595 -160 l 1,25,26
 562 -174 562 -174 529 -174 c 0,27,0
 475 -174 475 -174 445.5 -147 c 128,-1,1
373 94.5 m 128,-1,29
 416 152 416 152 416 250 c 0,30,31
 416 344 416 344 374 400 c 128,-1,32
 332 456 332 456 260 456 c 0,33,34
 184 456 184 456 140.5 402 c 128,-1,35
 97 348 97 348 97 250 c 0,36,37
 97 149 97 149 138.5 93 c 128,-1,38
 180 37 180 37 256 37 c 0,39,28
 330 37 330 37 373 94.5 c 128,-1,29
EndSplineSet
EndChar
StartChar: r
Encoding: 114 114 185
Width: 326
GlyphClass: 2
Flags: W
AnchorPoint: "Anchor-1" 193 496 basechar 0
AnchorPoint: "Anchor-0" 158 0 basechar 0
LayerCount: 2
Fore
SplineSet
76 496 m 1,0,-1
 117 496 l 1,1,-1
 134 402 l 1,2,3
 156 443 156 443 203 473.5 c 128,-1,4
 250 504 250 504 311 501 c 1,5,-1
 311 447 l 1,6,7
 214 445 214 445 173 388.5 c 128,-1,8
 132 332 132 332 132 227 c 2,9,-1
 132 0 l 1,10,-1
 76 0 l 1,11,-1
 76 496 l 1,0,-1
EndSplineSet
EndChar
StartChar: s
Encoding: 115 115 188
Width: 448
GlyphClass: 2
Flags: W
AnchorPoint: "Anchor-1" 222 496 basechar 0
AnchorPoint: "Anchor-0" 232 0 basechar 0
LayerCount: 2
Fore
SplineSet
115 20 m 128,-1,1
 58 52 58 52 36 112 c 1,2,-1
 90 133 l 1,3,4
 103 88 103 88 142.5 62.5 c 128,-1,5
 182 37 182 37 232 37 c 0,6,7
 288 37 288 37 323 63.5 c 128,-1,8
 358 90 358 90 358 132 c 0,9,10
 358 172 358 172 329 193.5 c 128,-1,11
 300 215 300 215 233 231 c 2,12,-1
 189 241 l 2,13,14
 118 258 118 258 83.5 285.5 c 128,-1,15
 49 313 49 313 49 370 c 0,16,17
 49 408 49 408 71 439 c 128,-1,18
 93 470 93 470 132.5 488 c 128,-1,19
 172 506 172 506 222 506 c 0,20,21
 280 506 280 506 328 479.5 c 128,-1,22
 376 453 376 453 396 407 c 1,23,-1
 343 386 l 1,24,25
 330 420 330 420 295 438.5 c 128,-1,26
 260 457 260 457 220 457 c 0,27,28
 169 457 169 457 136 433 c 128,-1,29
 103 409 103 409 103 373 c 0,30,31
 103 341 103 341 126.5 322 c 128,-1,32
 150 303 150 303 204 291 c 2,33,-1
 247 281 l 2,34,35
 304 268 304 268 339 252 c 128,-1,36
 374 236 374 236 393 208.5 c 128,-1,37
 412 181 412 181 412 136 c 0,38,39
 412 94 412 94 388.5 60 c 128,-1,40
 365 26 365 26 323.5 7 c 128,-1,41
 282 -12 282 -12 231 -12 c 0,42,0
 172 -12 172 -12 115 20 c 128,-1,1
EndSplineSet
EndChar
StartChar: t
Encoding: 116 116 194
Width: 296
GlyphClass: 2
Flags: W
AnchorPoint: "Anchor-3" 189 542 basechar 0
AnchorPoint: "Anchor-1" 150 496 basechar 0
AnchorPoint: "Anchor-0" 180 0 basechar 0
LayerCount: 2
Fore
SplineSet
145.5 9 m 128,-1,1
 123 18 123 18 113.5 43 c 128,-1,2
 104 68 104 68 104 116 c 2,3,-1
 104 451 l 1,4,-1
 19 451 l 1,5,-1
 19 496 l 1,6,-1
 104 496 l 1,7,-1
 104 620 l 1,8,-1
 160 620 l 1,9,-1
 160 496 l 1,10,-1
 261 496 l 1,11,-1
 261 451 l 1,12,-1
 160 451 l 1,13,-1
 160 118 l 2,14,15
 160 88 160 88 164 74 c 128,-1,16
 168 60 168 60 179.5 55 c 128,-1,17
 191 50 191 50 215 50 c 2,18,-1
 260 50 l 1,19,-1
 260 0 l 1,20,-1
 210 0 l 2,21,0
 168 0 168 0 145.5 9 c 128,-1,1
EndSplineSet
EndChar
StartChar: u
Encoding: 117 117 198
Width: 526
GlyphClass: 2
Flags: W
AnchorPoint: "Anchor-3" 491 496 basechar 0
AnchorPoint: "Anchor-2" 450 10 basechar 0
AnchorPoint: "Anchor-1" 252 496 basechar 0
AnchorPoint: "Anchor-0" 252 0 basechar 0
LayerCount: 2
Fore
SplineSet
114 35.5 m 128,-1,1
 74 83 74 83 74 167 c 2,2,-1
 74 496 l 1,3,-1
 130 496 l 1,4,-1
 130 184 l 2,5,6
 130 113 130 113 156 75.5 c 128,-1,7
 182 38 182 38 247 38 c 0,8,9
 313 38 313 38 353.5 86 c 128,-1,10
 394 134 394 134 394 220 c 2,11,-1
 394 496 l 1,12,-1
 450 496 l 1,13,-1
 450 0 l 1,14,-1
 409 0 l 1,15,-1
 396 80 l 1,16,17
 376 41 376 41 337 14.5 c 128,-1,18
 298 -12 298 -12 239 -12 c 0,19,0
 154 -12 154 -12 114 35.5 c 128,-1,1
EndSplineSet
EndChar
StartChar: v
Encoding: 118 118 207
Width: 419
GlyphClass: 2
Flags: W
AnchorPoint: "Anchor-1" 210 496 basechar 0
AnchorPoint: "Anchor-0" 210 0 basechar 0
LayerCount: 2
Fore
SplineSet
10 496 m 1,0,-1
 69 496 l 1,1,-1
 211 86 l 1,2,-1
 351 496 l 1,3,-1
 409 496 l 1,4,-1
 232 0 l 1,5,-1
 187 0 l 1,6,-1
 10 496 l 1,0,-1
EndSplineSet
EndChar
StartChar: x
Encoding: 120 120 213
Width: 445
GlyphClass: 2
Flags: W
AnchorPoint: "Anchor-1" 223 496 basechar 0
AnchorPoint: "Anchor-0" 223 0 basechar 0
LayerCount: 2
Fore
SplineSet
185 253 m 1,0,-1
 16 496 l 1,1,-1
 81 496 l 1,2,-1
 220 291 l 1,3,-1
 364 496 l 1,4,-1
 429 496 l 1,5,-1
 259 252 l 1,6,-1
 435 0 l 1,7,-1
 369 0 l 1,8,-1
 221 212 l 1,9,-1
 75 0 l 1,10,-1
 10 0 l 1,11,-1
 185 253 l 1,0,-1
EndSplineSet
EndChar
StartChar: y
Encoding: 121 121 214
Width: 411
GlyphClass: 2
Flags: W
AnchorPoint: "Anchor-1" 206 496 basechar 0
AnchorPoint: "Anchor-0" 203 0 basechar 0
LayerCount: 2
Fore
SplineSet
33 -112 m 1,0,-1
 80 -112 l 2,1,2
 124 -112 124 -112 142.5 -94.5 c 128,-1,3
 161 -77 161 -77 176 -25 c 2,4,-1
 184 7 l 1,5,-1
 10 496 l 1,6,-1
 68 496 l 1,7,-1
 212 83 l 1,8,-1
 344 496 l 1,9,-1
 401 496 l 1,10,-1
 227 -33 l 2,11,12
 209 -88 209 -88 193 -114.5 c 128,-1,13
 177 -141 177 -141 152 -151.5 c 128,-1,14
 127 -162 127 -162 79 -162 c 2,15,-1
 33 -162 l 1,16,-1
 33 -112 l 1,0,-1
EndSplineSet
EndChar
StartChar: z
Encoding: 122 122 219
Width: 426
GlyphClass: 2
Flags: W
AnchorPoint: "Anchor-1" 222 496 basechar 0
AnchorPoint: "Anchor-0" 210 0 basechar 0
LayerCount: 2
Fore
SplineSet
39 50 m 1,0,-1
 324 446 l 1,1,-1
 46 446 l 1,2,-1
 46 496 l 1,3,-1
 388 496 l 1,4,-1
 388 446 l 1,5,-1
 103 50 l 1,6,-1
 396 50 l 1,7,-1
 396 0 l 1,8,-1
 39 0 l 1,9,-1
 39 50 l 1,0,-1
EndSplineSet
EndChar
StartChar: braceleft
Encoding: 123 123 279
Width: 319
GlyphClass: 1
Flags: W
LayerCount: 2
Fore
SplineSet
175.5 -152.5 m 128,-1,1
 154 -143 154 -143 147 -124 c 128,-1,2
 140 -105 140 -105 140 -68 c 2,3,-1
 140 156 l 2,4,5
 140 206 140 206 120.5 226.5 c 128,-1,6
 101 247 101 247 45 251 c 1,7,-1
 45 295 l 1,8,9
 101 299 101 299 120.5 319.5 c 128,-1,10
 140 340 140 340 140 390 c 2,11,-1
 140 614 l 2,12,13
 140 651 140 651 147 670 c 128,-1,14
 154 689 154 689 175.5 698.5 c 128,-1,15
 197 708 197 708 241 708 c 2,16,-1
 285 708 l 1,17,-1
 285 664 l 1,18,-1
 237 664 l 2,19,20
 213 664 213 664 203.5 655 c 128,-1,21
 194 646 194 646 194 624 c 2,22,-1
 194 402 l 2,23,24
 194 342 194 342 178 314 c 128,-1,25
 162 286 162 286 127 276 c 1,26,-1
 127 270 l 1,27,28
 162 260 162 260 178 232 c 128,-1,29
 194 204 194 204 194 144 c 2,30,-1
 194 -78 l 2,31,32
 194 -100 194 -100 203.5 -109 c 128,-1,33
 213 -118 213 -118 237 -118 c 2,34,-1
 285 -118 l 1,35,-1
 285 -162 l 1,36,-1
 241 -162 l 2,37,0
 197 -162 197 -162 175.5 -152.5 c 128,-1,1
EndSplineSet
EndChar
StartChar: braceright
Encoding: 125 125 280
Width: 319
GlyphClass: 1
Flags: W
LayerCount: 2
Fore
SplineSet
34 -118 m 1,0,-1
 82 -118 l 2,1,2
 106 -118 106 -118 115 -109 c 128,-1,3
 124 -100 124 -100 124 -78 c 2,4,-1
 124 144 l 2,5,6
 124 204 124 204 140 232 c 128,-1,7
 156 260 156 260 192 270 c 1,8,-1
 192 276 l 1,9,10
 156 286 156 286 140 314 c 128,-1,11
 124 342 124 342 124 402 c 2,12,-1
 124 624 l 2,13,14
 124 646 124 646 115 655 c 128,-1,15
 106 664 106 664 82 664 c 2,16,-1
 34 664 l 1,17,-1
 34 708 l 1,18,-1
 78 708 l 2,19,20
 122 708 122 708 143.5 698.5 c 128,-1,21
 165 689 165 689 172 670 c 128,-1,22
 179 651 179 651 179 614 c 2,23,-1
 179 390 l 2,24,25
 179 340 179 340 198.5 319.5 c 128,-1,26
 218 299 218 299 274 295 c 1,27,-1
 274 251 l 1,28,29
 218 247 218 247 198.5 226.5 c 128,-1,30
 179 206 179 206 179 156 c 2,31,-1
 179 -68 l 2,32,33
 179 -105 179 -105 172 -124 c 128,-1,34
 165 -143 165 -143 143.5 -152.5 c 128,-1,35
 122 -162 122 -162 78 -162 c 2,36,-1
 34 -162 l 1,37,-1
 34 -118 l 1,0,-1
EndSplineSet
EndChar
StartChar: asciitilde
Encoding: 126 126 333
Width: 565
GlyphClass: 1
Flags: W
LayerCount: 2
Fore
SplineSet
79.5 287.5 m 128,-1,1
 110 318 110 318 165 318 c 0,2,3
 192 318 192 318 221 309 c 128,-1,4
 250 300 250 300 294 283 c 0,5,6
 334 268 334 268 358 260.5 c 128,-1,7
 382 253 382 253 403 253 c 0,8,9
 465 253 465 253 473 324 c 1,10,-1
 523 314 l 1,11,12
 516 261 516 261 486 231 c 128,-1,13
 456 201 456 201 400 201 c 0,14,15
 373 201 373 201 344 210 c 128,-1,16
 315 219 315 219 271 236 c 0,17,18
 230 252 230 252 207 259 c 128,-1,19
 184 266 184 266 163 266 c 0,20,21
 100 266 100 266 92 195 c 1,22,-1
 42 205 l 1,23,0
 49 257 49 257 79.5 287.5 c 128,-1,1
EndSplineSet
EndChar
StartChar: exclamdown
Encoding: 161 161 264
Width: 260
GlyphClass: 1
Flags: W
LayerCount: 2
Fore
SplineSet
102 1 m 1,0,-1
 114 327 l 1,1,-1
 145 327 l 1,2,-1
 158 1 l 1,3,-1
 158 -170 l 1,4,-1
 102 -170 l 1,5,-1
 102 1 l 1,0,-1
96 428 m 128,-1,7
 82 442 82 442 82 462 c 256,8,9
 82 482 82 482 96 496 c 128,-1,10
 110 510 110 510 130 510 c 256,11,12
 150 510 150 510 164 496 c 128,-1,13
 178 482 178 482 178 462 c 256,14,15
 178 442 178 442 164 428 c 128,-1,16
 150 414 150 414 130 414 c 256,17,6
 110 414 110 414 96 428 c 128,-1,7
EndSplineSet
EndChar
StartChar: cent
Encoding: 162 162 311
Width: 470
GlyphClass: 1
Flags: W
LayerCount: 2
Fore
SplineSet
127.5 33 m 128,-1,1
 85 69 85 69 62.5 125 c 128,-1,2
 40 181 40 181 40 245 c 256,3,4
 40 309 40 309 64 364.5 c 128,-1,5
 88 420 88 420 130.5 456 c 128,-1,6
 173 492 173 492 227 500 c 1,7,-1
 227 586 l 1,8,-1
 265 586 l 1,9,-1
 265 502 l 1,10,11
 330 501 330 501 373.5 471 c 128,-1,12
 417 441 417 441 441 400 c 1,13,-1
 390 380 l 1,14,15
 371 411 371 411 339.5 430 c 128,-1,16
 308 449 308 449 265 451 c 1,17,-1
 265 39 l 1,18,19
 308 42 308 42 341 63 c 128,-1,20
 374 84 374 84 392 115 c 1,21,-1
 445 95 l 1,22,23
 421 53 421 53 375 22 c 128,-1,24
 329 -9 329 -9 265 -12 c 1,25,-1
 265 -90 l 1,26,-1
 227 -90 l 1,27,-1
 227 -10 l 1,28,0
 170 -3 170 -3 127.5 33 c 128,-1,1
136 382 m 128,-1,30
 99 329 99 329 99 247 c 0,31,32
 99 167 99 167 134 110.5 c 128,-1,33
 169 54 169 54 227 43 c 1,34,-1
 227 448 l 1,35,29
 173 435 173 435 136 382 c 128,-1,30
EndSplineSet
EndChar
StartChar: sterling
Encoding: 163 163 316
Width: 572
GlyphClass: 1
Flags: W
LayerCount: 2
Fore
SplineSet
128.5 68.5 m 128,-1,1
 159 94 159 94 182.5 132 c 128,-1,2
 206 170 206 170 206 215 c 0,3,4
 206 268 206 268 182 329 c 1,5,-1
 72 329 l 1,6,-1
 72 369 l 1,7,-1
 163 369 l 1,8,9
 140 419 140 419 129.5 450.5 c 128,-1,10
 119 482 119 482 119 515 c 0,11,12
 119 592 119 592 171.5 636.5 c 128,-1,13
 224 681 224 681 315 681 c 0,14,15
 396 681 396 681 449.5 644 c 128,-1,16
 503 607 503 607 518 544 c 1,17,-1
 457 531 l 1,18,19
 431 632 431 632 317 632 c 0,20,21
 251 632 251 632 213 602 c 128,-1,22
 175 572 175 572 175 517 c 0,23,24
 175 489 175 489 184 462 c 128,-1,25
 193 435 193 435 212 392 c 2,26,-1
 222 369 l 1,27,-1
 437 369 l 1,28,-1
 437 329 l 1,29,-1
 240 329 l 1,30,31
 261 273 261 273 261 224 c 0,32,33
 261 169 261 169 241.5 131.5 c 128,-1,34
 222 94 222 94 183 69 c 1,35,36
 203 77 203 77 221 77 c 0,37,38
 240 77 240 77 257.5 73 c 128,-1,39
 275 69 275 69 306 59 c 0,40,41
 338 48 338 48 362.5 42.5 c 128,-1,42
 387 37 387 37 415 37 c 0,43,44
 435 37 435 37 454 41.5 c 128,-1,45
 473 46 473 46 511 60 c 1,46,-1
 526 15 l 1,47,48
 462 -12 462 -12 418 -12 c 0,49,50
 393 -12 393 -12 370.5 -7 c 128,-1,51
 348 -2 348 -2 319 8 c 0,52,53
 286 18 286 18 266 22.5 c 128,-1,54
 246 27 246 27 220 27 c 0,55,56
 190 27 190 27 161 18.5 c 128,-1,57
 132 10 132 10 93 -10 c 1,58,-1
 74 31 l 1,59,0
 98 43 98 43 128.5 68.5 c 128,-1,1
EndSplineSet
EndChar
StartChar: currency
Encoding: 164 164 312
Width: 572
GlyphClass: 1
Flags: W
LayerCount: 2
Fore
SplineSet
53 115 m 1,0,-1
 118 180 l 1,1,2
 68 241 68 241 68 321 c 256,3,4
 68 401 68 401 118 462 c 1,5,-1
 53 527 l 1,6,-1
 81 553 l 1,7,-1
 147 489 l 1,8,9
 176 512 176 512 211.5 525 c 128,-1,10
 247 538 247 538 286 538 c 256,11,12
 325 538 325 538 361 525.5 c 128,-1,13
 397 513 397 513 426 489 c 1,14,-1
 491 553 l 1,15,-1
 519 527 l 1,16,-1
 454 462 l 1,17,18
 504 401 504 401 504 321 c 256,19,20
 504 241 504 241 454 180 c 1,21,-1
 519 115 l 1,22,-1
 491 89 l 1,23,-1
 426 153 l 1,24,25
 397 129 397 129 361 116.5 c 128,-1,26
 325 104 325 104 286 104 c 256,27,28
 247 104 247 104 211.5 117 c 128,-1,29
 176 130 176 130 147 153 c 1,30,-1
 81 89 l 1,31,-1
 53 115 l 1,0,-1
368.5 178 m 128,-1,33
 406 200 406 200 428 238 c 128,-1,34
 450 276 450 276 450 321 c 256,35,36
 450 366 450 366 428 404 c 128,-1,37
 406 442 406 442 368.5 464 c 128,-1,38
 331 486 331 486 286 486 c 256,39,40
 241 486 241 486 204 464 c 128,-1,41
 167 442 167 442 145 404 c 128,-1,42
 123 366 123 366 123 321 c 256,43,44
 123 276 123 276 145 238 c 128,-1,45
 167 200 167 200 204 178 c 128,-1,46
 241 156 241 156 286 156 c 256,47,32
 331 156 331 156 368.5 178 c 128,-1,33
EndSplineSet
EndChar
StartChar: yen
Encoding: 165 165 317
Width: 529
GlyphClass: 1
Flags: W
LayerCount: 2
Fore
SplineSet
234 92 m 1,0,-1
 73 92 l 1,1,-1
 73 131 l 1,2,-1
 234 131 l 1,3,-1
 234 229 l 1,4,-1
 73 229 l 1,5,-1
 73 268 l 1,6,-1
 228 268 l 1,7,-1
 0 668 l 1,8,-1
 63 668 l 1,9,-1
 265 312 l 1,10,-1
 467 668 l 1,11,-1
 529 668 l 1,12,-1
 302 268 l 1,13,-1
 455 268 l 1,14,-1
 455 229 l 1,15,-1
 296 229 l 1,16,-1
 296 131 l 1,17,-1
 455 131 l 1,18,-1
 455 92 l 1,19,-1
 296 92 l 1,20,-1
 296 0 l 1,21,-1
 234 0 l 1,22,-1
 234 92 l 1,0,-1
EndSplineSet
EndChar
StartChar: brokenbar
Encoding: 166 166 306
Width: 219
GlyphClass: 1
Flags: W
LayerCount: 2
Fore
SplineSet
82 233 m 1,0,-1
 137 233 l 1,1,-1
 137 -162 l 1,2,-1
 82 -162 l 1,3,-1
 82 233 l 1,0,-1
82 838 m 1,4,-1
 137 838 l 1,5,-1
 137 443 l 1,6,-1
 82 443 l 1,7,-1
 82 838 l 1,4,-1
EndSplineSet
EndChar
StartChar: section
Encoding: 167 167 300
Width: 511
GlyphClass: 1
Flags: W
LayerCount: 2
Fore
SplineSet
132.5 -140.5 m 128,-1,1
 84 -108 84 -108 68 -49 c 1,2,-1
 127 -36 l 1,3,4
 138 -80 138 -80 168 -103.5 c 128,-1,5
 198 -127 198 -127 254 -127 c 0,6,7
 304 -127 304 -127 338 -101.5 c 128,-1,8
 372 -76 372 -76 372 -39 c 0,9,10
 372 -15 372 -15 359 2.5 c 128,-1,11
 346 20 346 20 325 33.5 c 128,-1,12
 304 47 304 47 260 71 c 2,13,-1
 165 123 l 2,14,15
 94 162 94 162 65 195.5 c 128,-1,16
 36 229 36 229 36 278 c 0,17,18
 36 370 36 370 169 425 c 1,19,20
 123 454 123 454 105.5 480.5 c 128,-1,21
 88 507 88 507 88 542 c 0,22,23
 88 583 88 583 111.5 614.5 c 128,-1,24
 135 646 135 646 174 663 c 128,-1,25
 213 680 213 680 258 680 c 0,26,27
 329 680 329 680 377.5 647.5 c 128,-1,28
 426 615 426 615 442 556 c 1,29,-1
 383 543 l 1,30,31
 372 587 372 587 342 610.5 c 128,-1,32
 312 634 312 634 257 634 c 0,33,34
 206 634 206 634 172.5 608.5 c 128,-1,35
 139 583 139 583 139 546 c 0,36,37
 139 522 139 522 152 504.5 c 128,-1,38
 165 487 165 487 186 473 c 128,-1,39
 207 459 207 459 250 436 c 2,40,-1
 345 384 l 2,41,42
 416 345 416 345 445 311.5 c 128,-1,43
 474 278 474 278 474 229 c 0,44,45
 474 137 474 137 341 82 c 1,46,47
 387 53 387 53 405 26.5 c 128,-1,48
 423 0 423 0 423 -35 c 0,49,50
 423 -76 423 -76 399 -107.5 c 128,-1,51
 375 -139 375 -139 336 -156 c 128,-1,52
 297 -173 297 -173 253 -173 c 0,53,0
 181 -173 181 -173 132.5 -140.5 c 128,-1,1
391 158.5 m 128,-1,55
 423 187 423 187 423 228 c 0,56,57
 423 261 423 261 396 287 c 128,-1,58
 369 313 369 313 311 344 c 2,59,-1
 210 400 l 1,60,61
 151 377 151 377 119 348.5 c 128,-1,62
 87 320 87 320 87 279 c 0,63,64
 87 246 87 246 114 220 c 128,-1,65
 141 194 141 194 199 163 c 2,66,-1
 301 107 l 1,67,54
 359 130 359 130 391 158.5 c 128,-1,55
EndSplineSet
EndChar
StartChar: copyright
Encoding: 169 169 301
Width: 798
GlyphClass: 1
Flags: W
LayerCount: 2
Fore
SplineSet
225 33.5 m 128,-1,1
 145 80 145 80 98.5 160 c 128,-1,2
 52 240 52 240 52 334 c 256,3,4
 52 428 52 428 98.5 508 c 128,-1,5
 145 588 145 588 225 634.5 c 128,-1,6
 305 681 305 681 399 681 c 256,7,8
 493 681 493 681 573 634.5 c 128,-1,9
 653 588 653 588 699.5 508 c 128,-1,10
 746 428 746 428 746 334 c 256,11,12
 746 240 746 240 699.5 160 c 128,-1,13
 653 80 653 80 573 33.5 c 128,-1,14
 493 -13 493 -13 399 -13 c 256,15,0
 305 -13 305 -13 225 33.5 c 128,-1,1
277.5 194.5 m 128,-1,17
 230 246 230 246 230 336 c 0,18,19
 230 425 230 425 278.5 475.5 c 128,-1,20
 327 526 327 526 405 526 c 0,21,22
 497 526 497 526 541 446 c 1,23,-1
 489 426 l 1,24,25
 461 481 461 481 399 481 c 0,26,27
 351 481 351 481 319.5 443.5 c 128,-1,28
 288 406 288 406 288 336 c 0,29,30
 288 267 288 267 320.5 228 c 128,-1,31
 353 189 353 189 401 189 c 0,32,33
 435 189 435 189 456.5 201.5 c 128,-1,34
 478 214 478 214 493 243 c 1,35,-1
 544 223 l 1,36,37
 498 143 498 143 404 143 c 0,38,16
 325 143 325 143 277.5 194.5 c 128,-1,17
548.5 76.5 m 128,-1,40
 617 117 617 117 656.5 185.5 c 128,-1,41
 696 254 696 254 696 334 c 256,42,43
 696 414 696 414 656.5 482.5 c 128,-1,44
 617 551 617 551 548.5 591.5 c 128,-1,45
 480 632 480 632 399 632 c 256,46,47
 318 632 318 632 249.5 591.5 c 128,-1,48
 181 551 181 551 141.5 482.5 c 128,-1,49
 102 414 102 414 102 334 c 256,50,51
 102 254 102 254 141.5 185.5 c 128,-1,52
 181 117 181 117 249.5 76.5 c 128,-1,53
 318 36 318 36 399 36 c 256,54,39
 480 36 480 36 548.5 76.5 c 128,-1,40
EndSplineSet
EndChar
StartChar: ordfeminine
Encoding: 170 170 223
Width: 359
GlyphClass: 1
Flags: W
LayerCount: 2
Fore
SplineSet
78.5 413.5 m 128,-1,1
 53 433 53 433 53 469 c 0,2,3
 53 515 53 515 105 541.5 c 128,-1,4
 157 568 157 568 243 572 c 1,5,6
 243 607 243 607 231 627.5 c 128,-1,7
 219 648 219 648 178 648 c 0,8,9
 151 648 151 648 131.5 637.5 c 128,-1,10
 112 627 112 627 107 607 c 1,11,-1
 65 618 l 1,12,13
 74 649 74 649 104.5 668.5 c 128,-1,14
 135 688 135 688 179 688 c 0,15,16
 225 688 225 688 257.5 661.5 c 128,-1,17
 290 635 290 635 290 570 c 2,18,-1
 290 490 l 2,19,20
 290 455 290 455 292 436.5 c 128,-1,21
 294 418 294 418 301 400 c 1,22,-1
 258 400 l 1,23,-1
 247 445 l 1,24,25
 231 419 231 419 205 406.5 c 128,-1,26
 179 394 179 394 148 394 c 0,27,0
 104 394 104 394 78.5 413.5 c 128,-1,1
220 457.5 m 128,-1,29
 243 483 243 483 243 520 c 2,30,-1
 243 536 l 1,31,32
 171 532 171 532 137.5 514.5 c 128,-1,33
 104 497 104 497 104 472 c 0,34,35
 104 453 104 453 118.5 442.5 c 128,-1,36
 133 432 133 432 157 432 c 0,37,28
 197 432 197 432 220 457.5 c 128,-1,29
EndSplineSet
EndChar
StartChar: guillemotleft
Encoding: 171 171 289
Width: 509
GlyphClass: 1
Flags: W
LayerCount: 2
Fore
SplineSet
246 250 m 1,0,-1
 394 460 l 1,1,-1
 456 460 l 1,2,-1
 308 250 l 1,3,-1
 456 40 l 1,4,-1
 394 40 l 1,5,-1
 246 250 l 1,0,-1
53 250 m 1,6,-1
 201 460 l 1,7,-1
 263 460 l 1,8,-1
 115 250 l 1,9,-1
 263 40 l 1,10,-1
 201 40 l 1,11,-1
 53 250 l 1,6,-1
EndSplineSet
EndChar
StartChar: registered
Encoding: 174 174 302
Width: 798
GlyphClass: 1
Flags: W
LayerCount: 2
Fore
SplineSet
225 33.5 m 128,-1,1
 145 80 145 80 98.5 160 c 128,-1,2
 52 240 52 240 52 334 c 256,3,4
 52 428 52 428 98.5 508 c 128,-1,5
 145 588 145 588 225 634.5 c 128,-1,6
 305 681 305 681 399 681 c 256,7,8
 493 681 493 681 573 634.5 c 128,-1,9
 653 588 653 588 699.5 508 c 128,-1,10
 746 428 746 428 746 334 c 256,11,12
 746 240 746 240 699.5 160 c 128,-1,13
 653 80 653 80 573 33.5 c 128,-1,14
 493 -13 493 -13 399 -13 c 256,15,0
 305 -13 305 -13 225 33.5 c 128,-1,1
548.5 76.5 m 128,-1,17
 617 117 617 117 656.5 185.5 c 128,-1,18
 696 254 696 254 696 334 c 256,19,20
 696 414 696 414 656.5 482.5 c 128,-1,21
 617 551 617 551 548.5 591.5 c 128,-1,22
 480 632 480 632 399 632 c 256,23,24
 318 632 318 632 249.5 591.5 c 128,-1,25
 181 551 181 551 141.5 482.5 c 128,-1,26
 102 414 102 414 102 334 c 256,27,28
 102 254 102 254 141.5 185.5 c 128,-1,29
 181 117 181 117 249.5 76.5 c 128,-1,30
 318 36 318 36 399 36 c 256,31,16
 480 36 480 36 548.5 76.5 c 128,-1,17
276 529 m 1,32,-1
 401 529 l 2,33,34
 469 529 469 529 505.5 499 c 128,-1,35
 542 469 542 469 542 417 c 0,36,37
 542 377 542 377 518.5 349.5 c 128,-1,38
 495 322 495 322 454 311 c 1,39,-1
 562 162 l 1,40,-1
 496 162 l 1,41,-1
 396 302 l 1,42,-1
 332 302 l 1,43,-1
 332 162 l 1,44,-1
 276 162 l 1,45,-1
 276 529 l 1,32,-1
484 417 m 0,47,48
 484 452 484 452 460 468 c 128,-1,49
 436 484 436 484 391 484 c 2,50,-1
 332 484 l 1,51,-1
 332 348 l 1,52,-1
 397 348 l 2,53,46
 484 348 484 348 484 417 c 0,47,48
EndSplineSet
EndChar
StartChar: degree
Encoding: 176 176 304
Width: 326
GlyphClass: 1
Flags: W
LayerCount: 2
Fore
SplineSet
76 470 m 128,-1,1
 40 506 40 506 40 556 c 0,2,3
 40 608 40 608 76 644 c 128,-1,4
 112 680 112 680 163 680 c 0,5,6
 196 680 196 680 224.5 663.5 c 128,-1,7
 253 647 253 647 269.5 618.5 c 128,-1,8
 286 590 286 590 286 556 c 0,9,10
 286 523 286 523 269.5 495 c 128,-1,11
 253 467 253 467 224.5 450.5 c 128,-1,12
 196 434 196 434 163 434 c 0,13,0
 112 434 112 434 76 470 c 128,-1,1
218.5 501 m 128,-1,15
 241 524 241 524 241 556 c 0,16,17
 241 590 241 590 218.5 612.5 c 128,-1,18
 196 635 196 635 163 635 c 256,19,20
 130 635 130 635 107 612 c 128,-1,21
 84 589 84 589 84 556 c 0,22,23
 84 524 84 524 107.5 501 c 128,-1,24
 131 478 131 478 163 478 c 0,25,14
 196 478 196 478 218.5 501 c 128,-1,15
EndSplineSet
EndChar
StartChar: plusminus
Encoding: 177 177 330
Width: 582
GlyphClass: 1
Flags: W
LayerCount: 2
Fore
SplineSet
265 273 m 1,0,-1
 53 273 l 1,1,-1
 53 325 l 1,2,-1
 265 325 l 1,3,-1
 265 496 l 1,4,-1
 317 496 l 1,5,-1
 317 325 l 1,6,-1
 529 325 l 1,7,-1
 529 273 l 1,8,-1
 317 273 l 1,9,-1
 317 101 l 1,10,-1
 265 101 l 1,11,-1
 265 273 l 1,0,-1
53 55 m 1,12,-1
 529 55 l 1,13,-1
 529 0 l 1,14,-1
 53 0 l 1,15,-1
 53 55 l 1,12,-1
EndSplineSet
EndChar
StartChar: uni00B2
Encoding: 178 178 254
Width: 370
GlyphClass: 1
Flags: W
LayerCount: 2
Fore
SplineSet
205.5 586.5 m 128,-1,1
 251 639 251 639 251 685 c 0,2,3
 251 715 251 715 233 731.5 c 128,-1,4
 215 748 215 748 185 748 c 0,5,6
 159 748 159 748 139 732.5 c 128,-1,7
 119 717 119 717 116 682 c 1,8,-1
 66 692 l 1,9,10
 74 735 74 735 106.5 760.5 c 128,-1,11
 139 786 139 786 188 786 c 0,12,13
 238 786 238 786 271.5 758.5 c 128,-1,14
 305 731 305 731 305 688 c 0,15,16
 305 586 305 586 118 447 c 1,17,-1
 317 447 l 1,18,-1
 317 403 l 1,19,-1
 53 403 l 1,20,-1
 53 445 l 1,21,0
 160 534 160 534 205.5 586.5 c 128,-1,1
EndSplineSet
EndChar
StartChar: uni00B3
Encoding: 179 179 255
Width: 368
GlyphClass: 1
Flags: W
LayerCount: 2
Fore
SplineSet
97 422 m 128,-1,1
 63 448 63 448 53 488 c 1,2,-1
 101 498 l 1,3,4
 120 434 120 434 184 434 c 0,5,6
 219 434 219 434 241.5 453 c 128,-1,7
 264 472 264 472 264 505 c 0,8,9
 264 589 264 589 143 581 c 1,10,-1
 143 620 l 1,11,-1
 162 619 l 1,12,13
 255 619 255 619 255 687 c 0,14,15
 255 717 255 717 234.5 732.5 c 128,-1,16
 214 748 214 748 184 748 c 0,17,18
 122 748 122 748 105 686 c 1,19,-1
 58 696 l 1,20,21
 69 737 69 737 103 761.5 c 128,-1,22
 137 786 137 786 188 786 c 0,23,24
 233 786 233 786 270 761 c 128,-1,25
 307 736 307 736 307 685 c 0,26,27
 307 660 307 660 291.5 638 c 128,-1,28
 276 616 276 616 251 602 c 1,29,30
 282 589 282 589 298.5 563.5 c 128,-1,31
 315 538 315 538 315 510 c 0,32,33
 315 457 315 457 277 426.5 c 128,-1,34
 239 396 239 396 184 396 c 0,35,0
 131 396 131 396 97 422 c 128,-1,1
EndSplineSet
EndChar
StartChar: paragraph
Encoding: 182 182 299
Width: 482
GlyphClass: 1
Flags: W
LayerCount: 2
Fore
SplineSet
83.5 357.5 m 128,-1,1
 40 410 40 410 40 479 c 0,2,3
 40 530 40 530 65.5 573.5 c 128,-1,4
 91 617 91 617 134.5 642.5 c 128,-1,5
 178 668 178 668 229 668 c 2,6,-1
 452 668 l 1,7,-1
 452 620 l 1,8,-1
 416 620 l 1,9,-1
 416 -162 l 1,10,-1
 361 -162 l 1,11,-1
 361 620 l 1,12,-1
 247 620 l 1,13,-1
 247 -162 l 1,14,-1
 193 -162 l 1,15,-1
 193 292 l 1,16,0
 127 305 127 305 83.5 357.5 c 128,-1,1
EndSplineSet
EndChar
StartChar: uni00B9
Encoding: 185 185 253
Width: 238
GlyphClass: 1
Flags: W
LayerCount: 2
Fore
SplineSet
135 701 m 1,0,-1
 53 701 l 1,1,-1
 53 728 l 1,2,3
 84 728 84 728 108 741 c 128,-1,4
 132 754 132 754 141 779 c 1,5,-1
 185 779 l 1,6,-1
 185 403 l 1,7,-1
 135 403 l 1,8,-1
 135 701 l 1,0,-1
EndSplineSet
EndChar
StartChar: ordmasculine
Encoding: 186 186 224
Width: 367
GlyphClass: 1
Flags: W
LayerCount: 2
Fore
SplineSet
119.5 410.5 m 128,-1,1
 90 427 90 427 71.5 460.5 c 128,-1,2
 53 494 53 494 53 541 c 256,3,4
 53 588 53 588 71.5 621.5 c 128,-1,5
 90 655 90 655 119.5 671.5 c 128,-1,6
 149 688 149 688 183 688 c 0,7,8
 237 688 237 688 275.5 649.5 c 128,-1,9
 314 611 314 611 314 541 c 256,10,11
 314 471 314 471 275.5 432.5 c 128,-1,12
 237 394 237 394 183 394 c 0,13,0
 149 394 149 394 119.5 410.5 c 128,-1,1
241 464 m 128,-1,15
 263 492 263 492 263 541 c 256,16,17
 263 590 263 590 241 618 c 128,-1,18
 219 646 219 646 183 646 c 0,19,20
 148 646 148 646 126 618 c 128,-1,21
 104 590 104 590 104 541 c 256,22,23
 104 492 104 492 126 464 c 128,-1,24
 148 436 148 436 183 436 c 0,25,14
 219 436 219 436 241 464 c 128,-1,15
EndSplineSet
EndChar
StartChar: guillemotright
Encoding: 187 187 290
Width: 509
GlyphClass: 1
Flags: W
LayerCount: 2
Fore
SplineSet
394 250 m 1,0,-1
 246 460 l 1,1,-1
 308 460 l 1,2,-1
 456 250 l 1,3,-1
 308 40 l 1,4,-1
 246 40 l 1,5,-1
 394 250 l 1,0,-1
201 250 m 1,6,-1
 53 460 l 1,7,-1
 115 460 l 1,8,-1
 263 250 l 1,9,-1
 115 40 l 1,10,-1
 53 40 l 1,11,-1
 201 250 l 1,6,-1
EndSplineSet
EndChar
StartChar: onequarter
Encoding: 188 188 251
Width: 782
GlyphClass: 3
Flags: W
LayerCount: 2
Fore
SplineSet
586 668 m 1,0,-1
 646 668 l 1,1,-1
 178 0 l 1,2,-1
 118 0 l 1,3,-1
 586 668 l 1,0,-1
135 588 m 1,4,-1
 53 588 l 1,5,-1
 53 616 l 1,6,7
 84 616 84 616 108 629 c 128,-1,8
 132 642 132 642 141 668 c 1,9,-1
 189 668 l 1,10,-1
 189 301 l 1,11,-1
 135 301 l 1,12,-1
 135 588 l 1,4,-1
608 124 m 1,13,-1
 608 296 l 1,14,-1
 479 124 l 1,15,-1
 608 124 l 1,13,-1
608 82 m 1,16,-1
 421 82 l 1,17,-1
 421 125 l 1,18,-1
 610 367 l 1,19,-1
 660 367 l 1,20,-1
 660 124 l 1,21,-1
 729 124 l 1,22,-1
 729 82 l 1,23,-1
 660 82 l 1,24,-1
 660 0 l 1,25,-1
 608 0 l 1,26,-1
 608 82 l 1,16,-1
EndSplineSet
Ligature2: "'frac' Diagonal Fractions in Latin lookup 7 subtable" one slash four
EndChar
StartChar: onehalf
Encoding: 189 189 250
Width: 801
GlyphClass: 3
Flags: W
LayerCount: 2
Fore
SplineSet
586 668 m 1,0,-1
 646 668 l 1,1,-1
 178 0 l 1,2,-1
 118 0 l 1,3,-1
 586 668 l 1,0,-1
135 588 m 1,4,-1
 53 588 l 1,5,-1
 53 616 l 1,6,7
 84 616 84 616 108 629 c 128,-1,8
 132 642 132 642 141 668 c 1,9,-1
 189 668 l 1,10,-1
 189 301 l 1,11,-1
 135 301 l 1,12,-1
 135 588 l 1,4,-1
607.5 144 m 128,-1,14
 647 180 647 180 664.5 208.5 c 128,-1,15
 682 237 682 237 682 268 c 0,16,17
 682 297 682 297 664.5 316 c 128,-1,18
 647 335 647 335 618 335 c 0,19,20
 592 335 592 335 572 319 c 128,-1,21
 552 303 552 303 548 267 c 1,22,-1
 497 280 l 1,23,24
 507 322 507 322 540 347.5 c 128,-1,25
 573 373 573 373 621 373 c 0,26,27
 670 373 670 373 702.5 344 c 128,-1,28
 735 315 735 315 735 272 c 0,29,30
 735 218 735 218 688.5 163.5 c 128,-1,31
 642 109 642 109 546 44 c 1,32,-1
 748 44 l 1,33,-1
 748 0 l 1,34,-1
 485 0 l 1,35,-1
 485 41 l 1,36,13
 568 108 568 108 607.5 144 c 128,-1,14
EndSplineSet
Ligature2: "'frac' Diagonal Fractions in Latin lookup 7 subtable" one slash two
EndChar
StartChar: threequarters
Encoding: 190 190 252
Width: 823
GlyphClass: 3
Flags: W
LayerCount: 2
Fore
SplineSet
626 668 m 1,0,-1
 686 668 l 1,1,-1
 218 0 l 1,2,-1
 159 0 l 1,3,-1
 626 668 l 1,0,-1
96 323.5 m 128,-1,5
 63 348 63 348 53 388 c 1,6,-1
 101 400 l 1,7,8
 109 370 109 370 127.5 353.5 c 128,-1,9
 146 337 146 337 180 337 c 0,10,11
 215 337 215 337 239.5 355.5 c 128,-1,12
 264 374 264 374 264 407 c 0,13,14
 264 479 264 479 172 479 c 1,15,-1
 143 477 l 1,16,-1
 143 516 l 1,17,18
 152 515 152 515 168 515 c 0,19,20
 255 515 255 515 255 579 c 0,21,22
 255 609 255 609 234.5 623.5 c 128,-1,23
 214 638 214 638 184 638 c 0,24,25
 123 638 123 638 105 579 c 1,26,-1
 58 589 l 1,27,28
 69 630 69 630 103 653.5 c 128,-1,29
 137 677 137 677 187 677 c 0,30,31
 234 677 234 677 270.5 653 c 128,-1,32
 307 629 307 629 307 578 c 0,33,34
 307 554 307 554 291.5 532.5 c 128,-1,35
 276 511 276 511 251 498 c 1,36,37
 282 486 282 486 298.5 462 c 128,-1,38
 315 438 315 438 315 411 c 0,39,40
 315 355 315 355 276.5 327 c 128,-1,41
 238 299 238 299 179 299 c 0,42,4
 129 299 129 299 96 323.5 c 128,-1,5
649 82 m 1,43,-1
 462 82 l 1,44,-1
 462 125 l 1,45,-1
 650 367 l 1,46,-1
 701 367 l 1,47,-1
 701 124 l 1,48,-1
 770 124 l 1,49,-1
 770 82 l 1,50,-1
 701 82 l 1,51,-1
 701 0 l 1,52,-1
 649 0 l 1,53,-1
 649 82 l 1,43,-1
649 124 m 1,54,-1
 649 296 l 1,55,-1
 520 124 l 1,56,-1
 649 124 l 1,54,-1
EndSplineSet
Ligature2: "'frac' Diagonal Fractions in Latin lookup 7 subtable" three slash four
EndChar
StartChar: questiondown
Encoding: 191 191 266
Width: 403
GlyphClass: 1
Flags: W
LayerCount: 2
Fore
SplineSet
114 -165.5 m 128,-1,1
 71 -147 71 -147 44 -110 c 128,-1,2
 17 -73 17 -73 17 -19 c 0,3,4
 17 44 17 44 52 89.5 c 128,-1,5
 87 135 87 135 144 178 c 0,6,7
 173 199 173 199 186.5 213.5 c 128,-1,8
 200 228 200 228 204.5 245 c 128,-1,9
 209 262 209 262 209 291 c 2,10,-1
 209 334 l 1,11,-1
 265 334 l 1,12,-1
 265 295 l 2,13,14
 265 256 265 256 256.5 230.5 c 128,-1,15
 248 205 248 205 228 182.5 c 128,-1,16
 208 160 208 160 168 130 c 0,17,18
 125 99 125 99 99 63 c 128,-1,19
 73 27 73 27 73 -18 c 0,20,21
 73 -72 73 -72 111 -103.5 c 128,-1,22
 149 -135 149 -135 208 -135 c 0,23,24
 274 -135 274 -135 308.5 -96.5 c 128,-1,25
 343 -58 343 -58 348 -11 c 1,26,-1
 403 -20 l 1,27,28
 394 -93 394 -93 339 -138.5 c 128,-1,29
 284 -184 284 -184 205 -184 c 0,30,0
 157 -184 157 -184 114 -165.5 c 128,-1,1
203 428 m 128,-1,32
 189 442 189 442 189 462 c 256,33,34
 189 482 189 482 203 496 c 128,-1,35
 217 510 217 510 237 510 c 256,36,37
 257 510 257 510 271 496 c 128,-1,38
 285 482 285 482 285 462 c 256,39,40
 285 442 285 442 271 428 c 128,-1,41
 257 414 257 414 237 414 c 256,42,31
 217 414 217 414 203 428 c 128,-1,32
EndSplineSet
EndChar
StartChar: Aring
Encoding: 197 197 10
Width: 586
GlyphClass: 2
Flags: W
AnchorPoint: "Anchor-2" 576 10 basechar 0
AnchorPoint: "Anchor-1" 293 835 basechar 0
AnchorPoint: "Anchor-0" 293 0 basechar 0
LayerCount: 2
Fore
SplineSet
213.5 686 m 128,-1,1
 197 710 197 710 197 739 c 0,2,3
 197 779 197 779 225.5 807 c 128,-1,4
 254 835 254 835 293 835 c 0,5,6
 333 835 333 835 361 807 c 128,-1,7
 389 779 389 779 389 739 c 0,8,9
 389 711 389 711 372.5 687 c 128,-1,10
 356 663 356 663 331 651 c 1,11,-1
 576 0 l 1,12,-1
 516 0 l 1,13,-1
 456 167 l 1,14,-1
 130 167 l 1,15,-1
 69 0 l 1,16,-1
 10 0 l 1,17,-1
 257 651 l 1,18,0
 230 662 230 662 213.5 686 c 128,-1,1
437 217 m 1,19,-1
 293 611 l 1,20,-1
 149 217 l 1,21,-1
 437 217 l 1,19,-1
332 701 m 128,-1,23
 348 717 348 717 348 739 c 0,24,25
 348 762 348 762 332 778 c 128,-1,26
 316 794 316 794 293 794 c 0,27,28
 271 794 271 794 254.5 778 c 128,-1,29
 238 762 238 762 238 739 c 0,30,31
 238 717 238 717 254 701 c 128,-1,32
 270 685 270 685 293 685 c 256,33,22
 316 685 316 685 332 701 c 128,-1,23
EndSplineSet
EndChar
StartChar: AE
Encoding: 198 198 12
Width: 867
GlyphClass: 2
Flags: W
AnchorPoint: "Anchor-1" 418 668 basechar 0
AnchorPoint: "Anchor-0" 418 0 basechar 0
LayerCount: 2
Fore
SplineSet
376 668 m 1,0,-1
 823 668 l 1,1,-1
 823 618 l 1,2,-1
 465 618 l 1,3,-1
 465 369 l 1,4,-1
 755 369 l 1,5,-1
 755 319 l 1,6,-1
 465 319 l 1,7,-1
 465 50 l 1,8,-1
 827 50 l 1,9,-1
 827 0 l 1,10,-1
 406 0 l 1,11,-1
 406 167 l 1,12,-1
 154 167 l 1,13,-1
 61 0 l 1,14,-1
 0 0 l 1,15,-1
 376 668 l 1,0,-1
406 217 m 1,16,-1
 406 621 l 1,17,-1
 181 217 l 1,18,-1
 406 217 l 1,16,-1
EndSplineSet
EndChar
StartChar: Ccedilla
Encoding: 199 199 17
Width: 633
GlyphClass: 2
Flags: W
AnchorPoint: "Anchor-1" 341 668 basechar 0
LayerCount: 2
Fore
SplineSet
287 -170.5 m 128,-1,1
 265 -164 265 -164 246 -154 c 1,2,-1
 260 -128 l 1,3,4
 294 -145 294 -145 323 -145 c 0,5,6
 349 -145 349 -145 361 -133.5 c 128,-1,7
 373 -122 373 -122 373 -108 c 0,8,9
 373 -92 373 -92 364 -84.5 c 128,-1,10
 355 -77 355 -77 333 -77 c 0,11,12
 325 -77 325 -77 310 -80 c 128,-1,13
 295 -83 295 -83 291 -83 c 0,14,15
 276 -83 276 -83 276 -69 c 0,16,17
 276 -63 276 -63 281 -55 c 2,18,-1
 308 -11 l 1,19,20
 229 -4 229 -4 169.5 42.5 c 128,-1,21
 110 89 110 89 78 165.5 c 128,-1,22
 46 242 46 242 46 336 c 0,23,24
 46 435 46 435 83.5 513.5 c 128,-1,25
 121 592 121 592 189 636 c 128,-1,26
 257 680 257 680 344 680 c 0,27,28
 425 680 425 680 488.5 642 c 128,-1,29
 552 604 552 604 584 531 c 1,30,-1
 533 511 l 1,31,32
 508 565 508 565 461 597.5 c 128,-1,33
 414 630 414 630 342 630 c 0,34,35
 276 630 276 630 222 596 c 128,-1,36
 168 562 168 562 136.5 495.5 c 128,-1,37
 105 429 105 429 105 336 c 0,38,39
 105 242 105 242 136 175 c 128,-1,40
 167 108 167 108 221 73 c 128,-1,41
 275 38 275 38 341 38 c 0,42,43
 476 38 476 38 535 157 c 1,44,-1
 587 137 l 1,45,46
 519 -7 519 -7 346 -12 c 1,47,-1
 323 -48 l 1,48,49
 340 -44 340 -44 354 -44 c 0,50,51
 383 -44 383 -44 399.5 -60 c 128,-1,52
 416 -76 416 -76 416 -99 c 0,53,54
 416 -126 416 -126 393 -151.5 c 128,-1,55
 370 -177 370 -177 324 -177 c 0,56,0
 309 -177 309 -177 287 -170.5 c 128,-1,1
EndSplineSet
EndChar
StartChar: Eth
Encoding: 208 208 22
Width: 664
GlyphClass: 1
Flags: W
LayerCount: 2
Fore
SplineSet
102 326 m 1,0,-1
 24 326 l 1,1,-1
 24 376 l 1,2,-1
 102 376 l 1,3,-1
 102 668 l 1,4,-1
 267 668 l 2,5,6
 428 668 428 668 523 591 c 128,-1,7
 618 514 618 514 618 336 c 0,8,9
 618 161 618 161 524.5 80.5 c 128,-1,10
 431 0 431 0 267 0 c 2,11,-1
 102 0 l 1,12,-1
 102 326 l 1,0,-1
478 113 m 128,-1,14
 558 176 558 176 558 336 c 256,15,16
 558 496 558 496 478.5 557 c 128,-1,17
 399 618 399 618 259 618 c 2,18,-1
 160 618 l 1,19,-1
 160 376 l 1,20,-1
 361 376 l 1,21,-1
 361 326 l 1,22,-1
 160 326 l 1,23,-1
 160 50 l 1,24,-1
 259 50 l 2,25,13
 398 50 398 50 478 113 c 128,-1,14
EndSplineSet
EndChar
StartChar: multiply
Encoding: 215 215 322
Width: 517
GlyphClass: 1
Flags: W
LayerCount: 2
Fore
SplineSet
55 81 m 1,0,-1
 222 248 l 1,1,-1
 55 415 l 1,2,-1
 91 452 l 1,3,-1
 258 284 l 1,4,-1
 426 452 l 1,5,-1
 462 415 l 1,6,-1
 295 248 l 1,7,-1
 462 81 l 1,8,-1
 426 45 l 1,9,-1
 258 212 l 1,10,-1
 91 45 l 1,11,-1
 55 81 l 1,0,-1
EndSplineSet
EndChar
StartChar: Oslash
Encoding: 216 216 68
Width: 686
GlyphClass: 2
Flags: W
AnchorPoint: "Anchor-3" 678 668 basechar 0
AnchorPoint: "Anchor-1" 344 668 basechar 0
AnchorPoint: "Anchor-0" 344 0 basechar 0
LayerCount: 2
Fore
SplineSet
232.5 8.5 m 128,-1,1
 182 29 182 29 143 67 c 1,2,-1
 83 -3 l 1,3,-1
 54 22 l 1,4,-1
 117 97 l 1,5,6
 82 143 82 143 64 203.5 c 128,-1,7
 46 264 46 264 46 334 c 0,8,9
 46 433 46 433 82 512 c 128,-1,10
 118 591 118 591 185.5 635.5 c 128,-1,11
 253 680 253 680 343 680 c 0,12,13
 404 680 404 680 455 659 c 128,-1,14
 506 638 506 638 544 600 c 1,15,-1
 604 670 l 1,16,-1
 634 646 l 1,17,-1
 570 570 l 1,18,19
 604 524 604 524 622 463.5 c 128,-1,20
 640 403 640 403 640 334 c 0,21,22
 640 235 640 235 604 156.5 c 128,-1,23
 568 78 568 78 500.5 33 c 128,-1,24
 433 -12 433 -12 343 -12 c 0,25,0
 283 -12 283 -12 232.5 8.5 c 128,-1,1
464 73 m 128,-1,27
 518 108 518 108 549.5 175 c 128,-1,28
 581 242 581 242 581 334 c 0,29,30
 581 449 581 449 532 526 c 1,31,-1
 179 109 l 1,32,33
 211 74 211 74 252.5 56 c 128,-1,34
 294 38 294 38 343 38 c 0,35,26
 410 38 410 38 464 73 c 128,-1,27
155 142 m 1,37,-1
 508 558 l 1,38,39
 477 593 477 593 434 611.5 c 128,-1,40
 391 630 391 630 343 630 c 0,41,42
 276 630 276 630 222 595 c 128,-1,43
 168 560 168 560 136.5 493 c 128,-1,44
 105 426 105 426 105 334 c 0,45,36
 105 217 105 217 155 142 c 1,37,-1
EndSplineSet
EndChar
StartChar: Thorn
Encoding: 222 222 72
Width: 561
GlyphClass: 2
Flags: W
AnchorPoint: "Anchor-1" 263 668 basechar 0
AnchorPoint: "Anchor-0" 263 0 basechar 0
LayerCount: 2
Fore
SplineSet
82 668 m 1,0,-1
 140 668 l 1,1,-1
 140 532 l 1,2,-1
 297 532 l 2,3,4
 406 532 406 532 468 483.5 c 128,-1,5
 530 435 530 435 530 340 c 256,6,7
 530 245 530 245 468 196 c 128,-1,8
 406 147 406 147 297 147 c 2,9,-1
 140 147 l 1,10,-1
 140 0 l 1,11,-1
 82 0 l 1,12,-1
 82 668 l 1,0,-1
424 230.5 m 128,-1,14
 471 264 471 264 471 340 c 256,15,16
 471 416 471 416 424 449 c 128,-1,17
 377 482 377 482 291 482 c 2,18,-1
 140 482 l 1,19,-1
 140 197 l 1,20,-1
 291 197 l 2,21,13
 377 197 377 197 424 230.5 c 128,-1,14
EndSplineSet
EndChar
StartChar: germandbls
Encoding: 223 223 193
Width: 557
GlyphClass: 1
Flags: W
LayerCount: 2
Fore
SplineSet
277 36 m 0,1,2
 363 36 363 36 413.5 78.5 c 128,-1,3
 464 121 464 121 464 205 c 0,4,5
 464 258 464 258 434.5 299.5 c 128,-1,6
 405 341 405 341 354 363.5 c 128,-1,7
 303 386 303 386 242 386 c 2,8,-1
 230 386 l 1,9,-1
 230 435 l 1,10,11
 303 435 303 435 342 465.5 c 128,-1,12
 381 496 381 496 381 538 c 0,13,14
 381 579 381 579 349 605 c 128,-1,15
 317 631 317 631 268 631 c 0,16,17
 211 630 211 630 174.5 592.5 c 128,-1,18
 138 555 138 555 138 476 c 2,19,-1
 138 0 l 1,20,-1
 82 0 l 1,21,-1
 82 478 l 2,22,23
 82 567 82 567 128.5 623 c 128,-1,24
 175 679 175 679 270 680 c 0,25,26
 318 680 318 680 356 660.5 c 128,-1,27
 394 641 394 641 415 609 c 128,-1,28
 436 577 436 577 436 540 c 0,29,30
 436 496 436 496 411.5 464.5 c 128,-1,31
 387 433 387 433 332 414 c 1,32,33
 416 399 416 399 468 343.5 c 128,-1,34
 520 288 520 288 520 205 c 0,35,36
 520 131 520 131 486.5 82 c 128,-1,37
 453 33 453 33 397.5 10 c 128,-1,38
 342 -13 342 -13 277 -13 c 2,39,-1
 264 -13 l 1,40,-1
 249 37 l 1,41,0
 259 36 259 36 277 36 c 0,1,2
EndSplineSet
EndChar
StartChar: ae
Encoding: 230 230 122
Width: 853
GlyphClass: 2
Flags: W
AnchorPoint: "Anchor-1" 427 496 basechar 0
AnchorPoint: "Anchor-0" 427 0 basechar 0
LayerCount: 2
Fore
SplineSet
81.5 23.5 m 128,-1,1
 34 59 34 59 34 123 c 0,2,3
 34 207 34 207 116 245.5 c 128,-1,4
 198 284 198 284 372 289 c 1,5,-1
 372 318 l 2,6,7
 372 384 372 384 339.5 421.5 c 128,-1,8
 307 459 307 459 243 459 c 0,9,10
 194 459 194 459 161.5 434.5 c 128,-1,11
 129 410 129 410 120 371 c 1,12,-1
 62 385 l 1,13,14
 81 443 81 443 129.5 474.5 c 128,-1,15
 178 506 178 506 242 506 c 256,16,17
 306 506 306 506 350 478.5 c 128,-1,18
 394 451 394 451 413 399 c 1,19,20
 443 450 443 450 490.5 478 c 128,-1,21
 538 506 538 506 597 506 c 0,22,23
 667 506 667 506 718 468.5 c 128,-1,24
 769 431 769 431 793 370 c 128,-1,25
 817 309 817 309 812 243 c 1,26,-1
 426 243 l 1,27,28
 426 169 426 169 454.5 123 c 128,-1,29
 483 77 483 77 523 57.5 c 128,-1,30
 563 38 563 38 603 38 c 0,31,32
 686 38 686 38 730 101 c 1,33,-1
 785 81 l 1,34,35
 722 -12 722 -12 599 -12 c 0,36,37
 532 -12 532 -12 482 20.5 c 128,-1,38
 432 53 432 53 404 111 c 1,39,40
 381 49 381 49 329.5 18.5 c 128,-1,41
 278 -12 278 -12 205 -12 c 0,42,0
 129 -12 129 -12 81.5 23.5 c 128,-1,1
326 74 m 128,-1,44
 372 113 372 113 372 196 c 2,45,-1
 372 243 l 1,46,47
 226 241 226 241 158.5 213.5 c 128,-1,48
 91 186 91 186 91 125 c 0,49,50
 91 84 91 84 123 59.5 c 128,-1,51
 155 35 155 35 209 35 c 0,52,43
 280 35 280 35 326 74 c 128,-1,44
735 367 m 128,-1,54
 717 406 717 406 681.5 431 c 128,-1,55
 646 456 646 456 597 456 c 0,56,57
 533 456 533 456 486 416 c 128,-1,58
 439 376 439 376 429 289 c 1,59,-1
 754 289 l 1,60,53
 753 328 753 328 735 367 c 128,-1,54
EndSplineSet
EndChar
StartChar: ccedilla
Encoding: 231 231 127
Width: 470
GlyphClass: 2
Flags: W
AnchorPoint: "Anchor-1" 262 496 basechar 0
LayerCount: 2
Fore
SplineSet
210 -170.5 m 128,-1,1
 188 -164 188 -164 169 -154 c 1,2,-1
 183 -128 l 1,3,4
 217 -145 217 -145 246 -145 c 0,5,6
 272 -145 272 -145 284 -133.5 c 128,-1,7
 296 -122 296 -122 296 -108 c 0,8,9
 296 -92 296 -92 286.5 -84.5 c 128,-1,10
 277 -77 277 -77 255 -77 c 0,11,12
 248 -77 248 -77 233.5 -80 c 128,-1,13
 219 -83 219 -83 214 -83 c 0,14,15
 207 -83 207 -83 203 -79.5 c 128,-1,16
 199 -76 199 -76 199 -70 c 0,17,18
 199 -63 199 -63 204 -55 c 2,19,-1
 231 -10 l 1,20,21
 175 -3 175 -3 131.5 31.5 c 128,-1,22
 88 66 88 66 64 121 c 128,-1,23
 40 176 40 176 40 243 c 0,24,25
 40 316 40 316 66.5 376 c 128,-1,26
 93 436 93 436 144.5 471 c 128,-1,27
 196 506 196 506 266 506 c 0,28,29
 331 506 331 506 374.5 473.5 c 128,-1,30
 418 441 418 441 441 398 c 1,31,-1
 392 379 l 1,32,33
 373 416 373 416 339 436 c 128,-1,34
 305 456 305 456 262 456 c 0,35,36
 217 456 217 456 179.5 433 c 128,-1,37
 142 410 142 410 119.5 362 c 128,-1,38
 97 314 97 314 97 245 c 0,39,40
 97 177 97 177 119.5 130.5 c 128,-1,41
 142 84 142 84 179 61 c 128,-1,42
 216 38 216 38 260 38 c 256,43,44
 304 38 304 38 339.5 58.5 c 128,-1,45
 375 79 375 79 393 114 c 1,46,-1
 445 94 l 1,47,48
 420 52 420 52 375.5 21.5 c 128,-1,49
 331 -9 331 -9 269 -12 c 1,50,-1
 246 -48 l 1,51,52
 263 -44 263 -44 277 -44 c 0,53,54
 306 -44 306 -44 322.5 -60 c 128,-1,55
 339 -76 339 -76 339 -99 c 0,56,57
 339 -126 339 -126 316 -151.5 c 128,-1,58
 293 -177 293 -177 247 -177 c 0,59,0
 232 -177 232 -177 210 -170.5 c 128,-1,1
EndSplineSet
EndChar
StartChar: eth
Encoding: 240 240 132
Width: 546
GlyphClass: 2
Flags: W
AnchorPoint: "Anchor-1" 270 796 basechar 0
AnchorPoint: "Anchor-0" 270 0 basechar 0
LayerCount: 2
Fore
SplineSet
142.5 20 m 128,-1,1
 93 52 93 52 66.5 103.5 c 128,-1,2
 40 155 40 155 40 212 c 0,3,4
 40 279 40 279 68 331 c 128,-1,5
 96 383 96 383 145 412 c 128,-1,6
 194 441 194 441 256 441 c 0,7,8
 322 441 322 441 370 408.5 c 128,-1,9
 418 376 418 376 436 327 c 1,10,11
 435 436 435 436 414.5 501 c 128,-1,12
 394 566 394 566 358 602 c 1,13,-1
 277 524 l 1,14,-1
 250 552 l 1,15,-1
 325 628 l 1,16,17
 299 644 299 644 258.5 652.5 c 128,-1,18
 218 661 218 661 171 661 c 1,19,-1
 171 708 l 1,20,21
 287 708 287 708 361 665 c 1,22,-1
 403 705 l 1,23,-1
 431 678 l 1,24,-1
 394 640 l 1,25,26
 445 587 445 587 466.5 504.5 c 128,-1,27
 488 422 488 422 488 311 c 0,28,29
 488 170 488 170 435 79 c 128,-1,30
 382 -12 382 -12 258 -12 c 0,31,0
 192 -12 192 -12 142.5 20 c 128,-1,1
342.5 59.5 m 128,-1,33
 380 82 380 82 401 122 c 128,-1,34
 422 162 422 162 422 212 c 0,35,36
 422 291 422 291 376.5 342 c 128,-1,37
 331 393 331 393 257 393 c 0,38,39
 186 393 186 393 141 342.5 c 128,-1,40
 96 292 96 292 96 212 c 0,41,42
 96 135 96 135 140.5 86 c 128,-1,43
 185 37 185 37 258 37 c 0,44,32
 305 37 305 37 342.5 59.5 c 128,-1,33
EndSplineSet
EndChar
StartChar: divide
Encoding: 247 247 323
Width: 606
GlyphClass: 1
Flags: W
LayerCount: 2
Fore
SplineSet
55 274 m 1,0,-1
 551 274 l 1,1,-1
 551 222 l 1,2,-1
 55 222 l 1,3,-1
 55 274 l 1,0,-1
262.5 43.5 m 128,-1,5
 246 60 246 60 246 85 c 0,6,7
 246 108 246 108 262.5 124.5 c 128,-1,8
 279 141 279 141 303 141 c 256,9,10
 327 141 327 141 343 124.5 c 128,-1,11
 359 108 359 108 359 85 c 0,12,13
 359 60 359 60 343 43.5 c 128,-1,14
 327 27 327 27 303 27 c 256,15,4
 279 27 279 27 262.5 43.5 c 128,-1,5
262.5 371.5 m 128,-1,17
 246 387 246 387 246 411 c 0,18,19
 246 436 246 436 262.5 453 c 128,-1,20
 279 470 279 470 303 470 c 256,21,22
 327 470 327 470 343 453 c 128,-1,23
 359 436 359 436 359 411 c 0,24,25
 359 387 359 387 343 371.5 c 128,-1,26
 327 356 327 356 303 356 c 256,27,16
 279 356 279 356 262.5 371.5 c 128,-1,17
EndSplineSet
EndChar
StartChar: oslash
Encoding: 248 248 179
Width: 529
GlyphClass: 2
Flags: W
AnchorPoint: "Anchor-3" 516 496 basechar 0
AnchorPoint: "Anchor-1" 265 496 basechar 0
AnchorPoint: "Anchor-0" 265 0 basechar 0
LayerCount: 2
Fore
SplineSet
187.5 2.5 m 128,-1,1
 149 17 149 17 118 45 c 1,2,-1
 79 -2 l 1,3,-1
 49 24 l 1,4,-1
 91 74 l 1,5,6
 40 141 40 141 40 247 c 0,7,8
 40 333 40 333 73 391 c 128,-1,9
 106 449 106 449 157.5 477.5 c 128,-1,10
 209 506 209 506 265 506 c 0,11,12
 304 506 304 506 342 491.5 c 128,-1,13
 380 477 380 477 411 449 c 1,14,-1
 451 498 l 1,15,-1
 480 472 l 1,16,-1
 437 421 l 1,17,18
 489 352 489 352 489 247 c 0,19,20
 489 161 489 161 456 103 c 128,-1,21
 423 45 423 45 371.5 16.5 c 128,-1,22
 320 -12 320 -12 265 -12 c 0,23,0
 226 -12 226 -12 187.5 2.5 c 128,-1,1
347 61 m 128,-1,25
 385 84 385 84 408.5 131 c 128,-1,26
 432 178 432 178 432 247 c 0,27,28
 432 328 432 328 401 379 c 1,29,-1
 152 85 l 1,30,31
 174 62 174 62 203.5 50 c 128,-1,32
 233 38 233 38 265 38 c 0,33,24
 309 38 309 38 347 61 c 128,-1,25
127 116 m 1,35,-1
 376 410 l 1,36,37
 354 433 354 433 325 444.5 c 128,-1,38
 296 456 296 456 265 456 c 0,39,40
 220 456 220 456 182 433 c 128,-1,41
 144 410 144 410 120.5 363 c 128,-1,42
 97 316 97 316 97 247 c 0,43,34
 97 171 97 171 127 116 c 1,35,-1
EndSplineSet
EndChar
StartChar: thorn
Encoding: 254 254 183
Width: 547
GlyphClass: 2
Flags: W
AnchorPoint: "Anchor-1" 272 496 basechar 0
AnchorPoint: "Anchor-0" 272 0 basechar 0
LayerCount: 2
Fore
SplineSet
76 708 m 1,0,-1
 132 708 l 1,1,-1
 132 410 l 1,2,3
 184 506 184 506 296 506 c 0,4,5
 352 506 352 506 400.5 477.5 c 128,-1,6
 449 449 449 449 478 391 c 128,-1,7
 507 333 507 333 507 251 c 0,8,9
 507 167 507 167 479 107.5 c 128,-1,10
 451 48 451 48 403 18 c 128,-1,11
 355 -12 355 -12 295 -12 c 0,12,13
 237 -12 237 -12 193 15 c 128,-1,14
 149 42 149 42 132 83 c 1,15,-1
 132 -162 l 1,16,-1
 76 -162 l 1,17,-1
 76 708 l 1,0,-1
408.5 93 m 128,-1,19
 450 149 450 149 450 250 c 0,20,21
 450 348 450 348 406.5 402 c 128,-1,22
 363 456 363 456 287 456 c 0,23,24
 215 456 215 456 172.5 400 c 128,-1,25
 130 344 130 344 130 250 c 0,26,27
 130 186 130 186 150.5 138 c 128,-1,28
 171 90 171 90 207.5 63.5 c 128,-1,29
 244 37 244 37 291 37 c 0,30,18
 367 37 367 37 408.5 93 c 128,-1,19
EndSplineSet
EndChar
StartChar: Aogonek
Encoding: 260 260 9
Width: 586
GlyphClass: 2
Flags: W
AnchorPoint: "Anchor-1" 293 668 basechar 0
AnchorPoint: "Anchor-0" 293 0 basechar 0
LayerCount: 2
Fore
SplineSet
467.5 -148 m 128,-1,1
 444 -128 444 -128 444 -94 c 0,2,3
 444 -33 444 -33 514 5 c 1,4,-1
 456 167 l 1,5,-1
 130 167 l 1,6,-1
 69 0 l 1,7,-1
 10 0 l 1,8,-1
 263 668 l 1,9,-1
 325 668 l 1,10,-1
 576 0 l 1,11,12
 536 -13 536 -13 513 -35 c 128,-1,13
 490 -57 490 -57 490 -83 c 0,14,15
 490 -105 490 -105 504.5 -115.5 c 128,-1,16
 519 -126 519 -126 543 -126 c 0,17,18
 561 -126 561 -126 576 -119 c 1,19,-1
 576 -159 l 1,20,21
 554 -168 554 -168 527 -168 c 0,22,0
 491 -168 491 -168 467.5 -148 c 128,-1,1
437 217 m 1,23,-1
 293 611 l 1,24,-1
 149 217 l 1,25,-1
 437 217 l 1,23,-1
EndSplineSet
EndChar
StartChar: aogonek
Encoding: 261 261 119
Width: 505
GlyphClass: 2
Flags: W
AnchorPoint: "Anchor-1" 247 496 basechar 0
AnchorPoint: "Anchor-0" 247 0 basechar 0
LayerCount: 2
Fore
SplineSet
335 -148 m 128,-1,1
 312 -128 312 -128 312 -94 c 256,2,3
 312 -60 312 -60 332.5 -35 c 128,-1,4
 353 -10 353 -10 395 11 c 1,5,-1
 378 80 l 1,6,7
 359 41 359 41 315.5 14.5 c 128,-1,8
 272 -12 272 -12 204 -12 c 0,9,10
 129 -12 129 -12 81.5 23.5 c 128,-1,11
 34 59 34 59 34 122 c 0,12,13
 34 207 34 207 114.5 249.5 c 128,-1,14
 195 292 195 292 371 305 c 1,15,-1
 371 318 l 2,16,17
 371 385 371 385 340.5 422 c 128,-1,18
 310 459 310 459 247 459 c 0,19,20
 197 459 197 459 164 434.5 c 128,-1,21
 131 410 131 410 122 371 c 1,22,-1
 64 385 l 1,23,24
 83 443 83 443 132.5 474.5 c 128,-1,25
 182 506 182 506 246 506 c 0,26,27
 426 506 426 506 426 313 c 2,28,-1
 426 194 l 2,29,30
 426 79 426 79 444 0 c 1,31,32
 404 -13 404 -13 381.5 -35.5 c 128,-1,33
 359 -58 359 -58 359 -83 c 0,34,35
 359 -105 359 -105 372.5 -115.5 c 128,-1,36
 386 -126 386 -126 410 -126 c 0,37,38
 427 -126 427 -126 444 -119 c 1,39,-1
 444 -159 l 1,40,41
 420 -168 420 -168 395 -168 c 0,42,0
 358 -168 358 -168 335 -148 c 128,-1,1
325 75 m 128,-1,44
 371 114 371 114 371 196 c 2,45,-1
 371 260 l 1,46,47
 226 250 226 250 158.5 217 c 128,-1,48
 91 184 91 184 91 125 c 0,49,50
 91 85 91 85 123 60.5 c 128,-1,51
 155 36 155 36 208 36 c 0,52,43
 279 36 279 36 325 75 c 128,-1,44
EndSplineSet
EndChar
StartChar: dcroat
Encoding: 273 273 131
Width: 550
GlyphClass: 1
Flags: W
LayerCount: 2
Fore
SplineSet
145.5 17.5 m 128,-1,1
 98 47 98 47 69 104.5 c 128,-1,2
 40 162 40 162 40 243 c 256,3,4
 40 324 40 324 67.5 383.5 c 128,-1,5
 95 443 95 443 142.5 474.5 c 128,-1,6
 190 506 190 506 249 506 c 0,7,8
 364 506 364 506 416 410 c 1,9,-1
 416 560 l 1,10,-1
 257 560 l 1,11,-1
 257 602 l 1,12,-1
 416 602 l 1,13,-1
 416 708 l 1,14,-1
 471 708 l 1,15,-1
 471 602 l 1,16,-1
 547 602 l 1,17,-1
 547 560 l 1,18,-1
 471 560 l 1,19,-1
 471 183 l 2,20,21
 471 94 471 94 488 0 c 1,22,-1
 437 0 l 1,23,-1
 414 80 l 1,24,25
 393 38 393 38 352 13 c 128,-1,26
 311 -12 311 -12 249 -12 c 0,27,0
 193 -12 193 -12 145.5 17.5 c 128,-1,1
373.5 93.5 m 128,-1,29
 416 150 416 150 416 244 c 0,30,31
 416 341 416 341 373 398.5 c 128,-1,32
 330 456 330 456 258 456 c 0,33,34
 182 456 182 456 139.5 399.5 c 128,-1,35
 97 343 97 343 97 243 c 0,36,37
 97 145 97 145 140 91 c 128,-1,38
 183 37 183 37 258 37 c 0,39,28
 331 37 331 37 373.5 93.5 c 128,-1,29
EndSplineSet
EndChar
StartChar: Eogonek
Encoding: 280 280 31
Width: 544
GlyphClass: 2
Flags: W
AnchorPoint: "Anchor-1" 281 668 basechar 0
AnchorPoint: "Anchor-0" 271 0 basechar 0
LayerCount: 2
Fore
SplineSet
82 668 m 1,0,-1
 500 668 l 1,1,-1
 500 618 l 1,2,-1
 140 618 l 1,3,-1
 140 369 l 1,4,-1
 432 369 l 1,5,-1
 432 319 l 1,6,-1
 140 319 l 1,7,-1
 140 50 l 1,8,-1
 504 50 l 1,9,-1
 504 0 l 1,10,11
 464 -13 464 -13 441.5 -35 c 128,-1,12
 419 -57 419 -57 419 -83 c 0,13,14
 419 -105 419 -105 433 -115.5 c 128,-1,15
 447 -126 447 -126 471 -126 c 0,16,17
 490 -126 490 -126 504 -119 c 1,18,-1
 504 -159 l 1,19,20
 482 -168 482 -168 455 -168 c 0,21,22
 419 -168 419 -168 395.5 -148 c 128,-1,23
 372 -128 372 -128 372 -94 c 0,24,25
 372 -37 372 -37 434 0 c 1,26,-1
 82 0 l 1,27,-1
 82 668 l 1,0,-1
EndSplineSet
EndChar
StartChar: eogonek
Encoding: 281 281 141
Width: 523
GlyphClass: 2
Flags: W
AnchorPoint: "Anchor-1" 272 496 basechar 0
AnchorPoint: "Anchor-0" 259 0 basechar 0
LayerCount: 2
Fore
SplineSet
304 -148 m 128,-1,1
 281 -128 281 -128 281 -94 c 0,2,3
 281 -71 281 -71 290.5 -48.5 c 128,-1,4
 300 -26 300 -26 317 -8 c 1,5,6
 296 -12 296 -12 270 -12 c 0,7,8
 202 -12 202 -12 149.5 20 c 128,-1,9
 97 52 97 52 68.5 110.5 c 128,-1,10
 40 169 40 169 40 245 c 0,11,12
 40 323 40 323 69.5 382 c 128,-1,13
 99 441 99 441 150.5 473.5 c 128,-1,14
 202 506 202 506 267 506 c 0,15,16
 337 506 337 506 388 468.5 c 128,-1,17
 439 431 439 431 463.5 370 c 128,-1,18
 488 309 488 309 483 243 c 1,19,-1
 97 243 l 1,20,21
 97 169 97 169 125 123 c 128,-1,22
 153 77 153 77 193 57.5 c 128,-1,23
 233 38 233 38 273 38 c 0,24,25
 356 38 356 38 400 101 c 1,26,-1
 455 81 l 1,27,28
 433 46 433 46 387 17 c 0,29,30
 327 -21 327 -21 327 -78 c 0,31,32
 327 -100 327 -100 341.5 -113 c 128,-1,33
 356 -126 356 -126 380 -126 c 0,34,35
 398 -126 398 -126 412 -119 c 1,36,-1
 412 -159 l 1,37,38
 390 -168 390 -168 364 -168 c 0,39,0
 327 -168 327 -168 304 -148 c 128,-1,1
405 367 m 128,-1,41
 387 406 387 406 351.5 431 c 128,-1,42
 316 456 316 456 267 456 c 0,43,44
 203 456 203 456 156 416 c 128,-1,45
 109 376 109 376 99 289 c 1,46,-1
 424 289 l 1,47,40
 423 328 423 328 405 367 c 128,-1,41
EndSplineSet
EndChar
StartChar: Hbar
Encoding: 294 294 38
Width: 668
GlyphClass: 1
Flags: W
LayerCount: 2
Fore
SplineSet
82 516 m 1,0,-1
 17 516 l 1,1,-1
 17 564 l 1,2,-1
 82 564 l 1,3,-1
 82 668 l 1,4,-1
 140 668 l 1,5,-1
 140 564 l 1,6,-1
 528 564 l 1,7,-1
 528 668 l 1,8,-1
 586 668 l 1,9,-1
 586 564 l 1,10,-1
 651 564 l 1,11,-1
 651 516 l 1,12,-1
 586 516 l 1,13,-1
 586 0 l 1,14,-1
 528 0 l 1,15,-1
 528 320 l 1,16,-1
 140 320 l 1,17,-1
 140 0 l 1,18,-1
 82 0 l 1,19,-1
 82 516 l 1,0,-1
528 370 m 1,20,-1
 528 516 l 1,21,-1
 140 516 l 1,22,-1
 140 370 l 1,23,-1
 528 370 l 1,20,-1
EndSplineSet
EndChar
StartChar: hbar
Encoding: 295 295 148
Width: 537
GlyphClass: 1
Flags: W
LayerCount: 2
Fore
SplineSet
76 560 m 1,0,-1
 0 560 l 1,1,-1
 0 602 l 1,2,-1
 76 602 l 1,3,-1
 76 708 l 1,4,-1
 132 708 l 1,5,-1
 132 602 l 1,6,-1
 291 602 l 1,7,-1
 291 560 l 1,8,-1
 132 560 l 1,9,-1
 132 419 l 1,10,11
 154 454 154 454 193.5 479.5 c 128,-1,12
 233 505 233 505 292 505 c 0,13,14
 378 505 378 505 420.5 456 c 128,-1,15
 463 407 463 407 463 326 c 2,16,-1
 463 0 l 1,17,-1
 407 0 l 1,18,-1
 407 309 l 2,19,20
 407 456 407 456 285 456 c 0,21,22
 216 456 216 456 174 407.5 c 128,-1,23
 132 359 132 359 132 276 c 2,24,-1
 132 0 l 1,25,-1
 76 0 l 1,26,-1
 76 560 l 1,0,-1
EndSplineSet
EndChar
StartChar: Iogonek
Encoding: 302 302 47
Width: 360
GlyphClass: 2
Flags: W
AnchorPoint: "Anchor-1" 180 668 basechar 0
AnchorPoint: "Anchor-0" 180 0 basechar 0
LayerCount: 2
Fore
SplineSet
57 44 m 1,0,-1
 151 44 l 1,1,-1
 151 624 l 1,2,-1
 57 624 l 1,3,-1
 57 668 l 1,4,-1
 303 668 l 1,5,-1
 303 624 l 1,6,-1
 209 624 l 1,7,-1
 209 44 l 1,8,-1
 303 44 l 1,9,-1
 303 0 l 1,10,11
 263 -13 263 -13 240.5 -35 c 128,-1,12
 218 -57 218 -57 218 -83 c 0,13,14
 218 -105 218 -105 232.5 -115.5 c 128,-1,15
 247 -126 247 -126 271 -126 c 0,16,17
 289 -126 289 -126 303 -119 c 1,18,-1
 303 -159 l 1,19,20
 289 -165 289 -165 278.5 -166.5 c 128,-1,21
 268 -168 268 -168 254 -168 c 0,22,23
 218 -168 218 -168 195 -148 c 128,-1,24
 172 -128 172 -128 172 -94 c 0,25,26
 172 -36 172 -36 233 0 c 1,27,-1
 57 0 l 1,28,-1
 57 44 l 1,0,-1
EndSplineSet
EndChar
StartChar: iogonek
Encoding: 303 303 156
Width: 223
GlyphClass: 2
Flags: W
AnchorPoint: "Anchor-1" 106 694 basechar 0
AnchorPoint: "Anchor-0" 111 0 basechar 0
LayerCount: 2
Fore
SplineSet
73 614 m 128,-1,1
 59 628 59 628 59 647 c 256,2,3
 59 666 59 666 73 680 c 128,-1,4
 87 694 87 694 106 694 c 0,5,6
 126 694 126 694 139.5 680.5 c 128,-1,7
 153 667 153 667 153 647 c 0,8,9
 153 628 153 628 139 614 c 128,-1,10
 125 600 125 600 106 600 c 256,11,0
 87 600 87 600 73 614 c 128,-1,1
36 -148 m 128,-1,13
 13 -128 13 -128 13 -94 c 0,14,15
 13 -62 13 -62 32 -37.5 c 128,-1,16
 51 -13 51 -13 89 8 c 1,17,-1
 89 451 l 1,18,-1
 28 451 l 1,19,-1
 28 496 l 1,20,-1
 145 496 l 1,21,-1
 145 0 l 1,22,23
 105 -13 105 -13 82.5 -35.5 c 128,-1,24
 60 -58 60 -58 60 -83 c 0,25,26
 60 -105 60 -105 74 -115.5 c 128,-1,27
 88 -126 88 -126 112 -126 c 0,28,29
 128 -126 128 -126 145 -119 c 1,30,-1
 145 -159 l 1,31,32
 123 -168 123 -168 96 -168 c 0,33,12
 59 -168 59 -168 36 -148 c 128,-1,13
EndSplineSet
EndChar
StartChar: Lslash
Encoding: 321 321 55
Width: 553
GlyphClass: 1
Flags: W
LayerCount: 2
Fore
SplineSet
112 260 m 1,0,-1
 -3 193 l 1,1,-1
 -3 249 l 1,2,-1
 112 317 l 1,3,-1
 112 668 l 1,4,-1
 170 668 l 1,5,-1
 170 350 l 1,6,-1
 371 467 l 1,7,-1
 371 411 l 1,8,-1
 170 294 l 1,9,-1
 170 50 l 1,10,-1
 548 50 l 1,11,-1
 548 0 l 1,12,-1
 112 0 l 1,13,-1
 112 260 l 1,0,-1
EndSplineSet
EndChar
StartChar: lslash
Encoding: 322 322 166
Width: 275
GlyphClass: 1
Flags: W
LayerCount: 2
Fore
SplineSet
113 20.5 m 128,-1,1
 92 41 92 41 92 96 c 2,2,-1
 92 275 l 1,3,-1
 28 233 l 1,4,-1
 28 282 l 1,5,-1
 92 324 l 1,6,-1
 92 708 l 1,7,-1
 148 708 l 1,8,-1
 148 360 l 1,9,-1
 232 415 l 1,10,-1
 232 365 l 1,11,-1
 148 311 l 1,12,-1
 148 98 l 2,13,14
 148 69 148 69 158.5 58.5 c 128,-1,15
 169 48 169 48 198 48 c 2,16,-1
 234 48 l 1,17,-1
 234 0 l 1,18,-1
 192 0 l 2,19,0
 134 0 134 0 113 20.5 c 128,-1,1
EndSplineSet
EndChar
StartChar: OE
Encoding: 338 338 70
Width: 986
GlyphClass: 2
Flags: W
AnchorPoint: "Anchor-1" 501 668 basechar 0
AnchorPoint: "Anchor-0" 501 0 basechar 0
LayerCount: 2
Fore
SplineSet
180 33 m 128,-1,1
 115 78 115 78 80.5 157 c 128,-1,2
 46 236 46 236 46 336 c 0,3,4
 46 435 46 435 80.5 513 c 128,-1,5
 115 591 115 591 180 635.5 c 128,-1,6
 245 680 245 680 333 680 c 0,7,8
 408 680 408 680 464.5 645.5 c 128,-1,9
 521 611 521 611 554 547 c 1,10,-1
 554 668 l 1,11,-1
 942 668 l 1,12,-1
 942 616 l 1,13,-1
 612 616 l 1,14,-1
 612 370 l 1,15,-1
 875 370 l 1,16,-1
 875 317 l 1,17,-1
 612 317 l 1,18,-1
 612 52 l 1,19,-1
 946 52 l 1,20,-1
 946 0 l 1,21,-1
 554 0 l 1,22,-1
 554 123 l 1,23,24
 520 58 520 58 464 23 c 128,-1,25
 408 -12 408 -12 333 -12 c 0,26,0
 245 -12 245 -12 180 33 c 128,-1,1
445.5 76.5 m 128,-1,28
 496 111 496 111 525 177.5 c 128,-1,29
 554 244 554 244 554 336 c 256,30,31
 554 428 554 428 525 493 c 128,-1,32
 496 558 496 558 445.5 592 c 128,-1,33
 395 626 395 626 330 626 c 0,34,35
 266 626 266 626 215 592 c 128,-1,36
 164 558 164 558 135 492.5 c 128,-1,37
 106 427 106 427 106 336 c 0,38,39
 106 244 106 244 135.5 177.5 c 128,-1,40
 165 111 165 111 215.5 76.5 c 128,-1,41
 266 42 266 42 330 42 c 0,42,27
 395 42 395 42 445.5 76.5 c 128,-1,28
EndSplineSet
EndChar
StartChar: oe
Encoding: 339 339 181
Width: 916
GlyphClass: 2
Flags: W
AnchorPoint: "Anchor-1" 458 496 basechar 0
AnchorPoint: "Anchor-0" 458 0 basechar 0
LayerCount: 2
Fore
SplineSet
540 23.5 m 128,-1,1
 488 59 488 59 461 120 c 1,2,3
 433 55 433 55 379 21.5 c 128,-1,4
 325 -12 325 -12 265 -12 c 0,5,6
 209 -12 209 -12 157.5 16.5 c 128,-1,7
 106 45 106 45 73 103 c 128,-1,8
 40 161 40 161 40 247 c 256,9,10
 40 333 40 333 73 391 c 128,-1,11
 106 449 106 449 157.5 477.5 c 128,-1,12
 209 506 209 506 265 506 c 0,13,14
 325 506 325 506 379 472 c 128,-1,15
 433 438 433 438 461 373 c 1,16,17
 489 436 489 436 541 471 c 128,-1,18
 593 506 593 506 659 506 c 0,19,20
 730 506 730 506 780.5 468.5 c 128,-1,21
 831 431 831 431 855.5 370.5 c 128,-1,22
 880 310 880 310 875 243 c 1,23,-1
 489 243 l 1,24,25
 490 169 490 169 518 123 c 128,-1,26
 546 77 546 77 586 57.5 c 128,-1,27
 626 38 626 38 666 38 c 0,28,29
 748 38 748 38 792 101 c 1,30,-1
 848 81 l 1,31,32
 785 -12 785 -12 661 -12 c 0,33,0
 592 -12 592 -12 540 23.5 c 128,-1,1
347 61 m 128,-1,35
 385 84 385 84 408.5 131 c 128,-1,36
 432 178 432 178 432 247 c 256,37,38
 432 316 432 316 408.5 363 c 128,-1,39
 385 410 385 410 347 433 c 128,-1,40
 309 456 309 456 265 456 c 0,41,42
 220 456 220 456 182 433 c 128,-1,43
 144 410 144 410 120.5 363 c 128,-1,44
 97 316 97 316 97 247 c 256,45,46
 97 178 97 178 120.5 131 c 128,-1,47
 144 84 144 84 182 61 c 128,-1,48
 220 38 220 38 265 38 c 0,49,34
 309 38 309 38 347 61 c 128,-1,35
797 367 m 128,-1,51
 779 406 779 406 743.5 431 c 128,-1,52
 708 456 708 456 659 456 c 0,53,54
 596 456 596 456 548.5 415.5 c 128,-1,55
 501 375 501 375 491 289 c 1,56,-1
 816 289 l 1,57,50
 815 328 815 328 797 367 c 128,-1,51
EndSplineSet
EndChar
StartChar: Scedilla
Encoding: 350 350 80
Width: 581
GlyphClass: 2
Flags: W
AnchorPoint: "Anchor-1" 290 668 basechar 0
LayerCount: 2
Fore
SplineSet
241 -170.5 m 128,-1,1
 219 -164 219 -164 200 -154 c 1,2,-1
 214 -128 l 1,3,4
 248 -145 248 -145 277 -145 c 0,5,6
 303 -145 303 -145 315 -133.5 c 128,-1,7
 327 -122 327 -122 327 -108 c 0,8,9
 327 -92 327 -92 317.5 -84.5 c 128,-1,10
 308 -77 308 -77 286 -77 c 0,11,12
 279 -77 279 -77 264.5 -80 c 128,-1,13
 250 -83 250 -83 245 -83 c 0,14,15
 238 -83 238 -83 234 -79.5 c 128,-1,16
 230 -76 230 -76 230 -70 c 0,17,18
 230 -63 230 -63 235 -55 c 2,19,-1
 262 -11 l 1,20,21
 188 -5 188 -5 127 33 c 128,-1,22
 66 71 66 71 46 140 c 1,23,-1
 102 161 l 1,24,25
 120 101 120 101 172.5 69.5 c 128,-1,26
 225 38 225 38 290 38 c 0,27,28
 371 38 371 38 423.5 76 c 128,-1,29
 476 114 476 114 476 184 c 0,30,31
 476 231 476 231 443 260.5 c 128,-1,32
 410 290 410 290 325 312 c 2,33,-1
 230 336 l 2,34,35
 150 356 150 356 106 394.5 c 128,-1,36
 62 433 62 433 62 502 c 0,37,38
 62 553 62 553 91.5 593.5 c 128,-1,39
 121 634 121 634 173 657 c 128,-1,40
 225 680 225 680 290 680 c 0,41,42
 361 680 361 680 419.5 651 c 128,-1,43
 478 622 478 622 508 565 c 1,44,-1
 452 544 l 1,45,46
 431 584 431 584 384.5 607 c 128,-1,47
 338 630 338 630 290 630 c 0,48,49
 216 630 216 630 169 596 c 128,-1,50
 122 562 122 562 122 503 c 0,51,52
 122 419 122 419 243 390 c 2,53,-1
 338 366 l 2,54,55
 435 342 435 342 485 302 c 128,-1,56
 535 262 535 262 535 181 c 0,57,58
 535 125 535 125 503.5 82 c 128,-1,59
 472 39 472 39 419 15 c 128,-1,60
 366 -9 366 -9 301 -12 c 1,61,-1
 277 -48 l 1,62,63
 294 -44 294 -44 308 -44 c 0,64,65
 337 -44 337 -44 353.5 -60 c 128,-1,66
 370 -76 370 -76 370 -99 c 0,67,68
 370 -126 370 -126 347 -151.5 c 128,-1,69
 324 -177 324 -177 278 -177 c 0,70,0
 263 -177 263 -177 241 -170.5 c 128,-1,1
EndSplineSet
Substitution2: "'locl' Localized Forms in Latin lookup 4 subtable" uni0218
AlternateSubs2: "'aalt' Access All Alternates in Latin lookup 0 subtable" uni0218
EndChar
StartChar: scedilla
Encoding: 351 351 191
Width: 448
GlyphClass: 2
Flags: W
AnchorPoint: "Anchor-1" 222 496 basechar 0
LayerCount: 2
Fore
SplineSet
181.5 -170.5 m 128,-1,1
 160 -164 160 -164 142 -154 c 1,2,-1
 156 -128 l 1,3,4
 189 -145 189 -145 218 -145 c 0,5,6
 244 -145 244 -145 256 -133.5 c 128,-1,7
 268 -122 268 -122 268 -108 c 0,8,9
 268 -92 268 -92 259 -84.5 c 128,-1,10
 250 -77 250 -77 230 -77 c 0,11,12
 221 -77 221 -77 205.5 -80 c 128,-1,13
 190 -83 190 -83 186 -83 c 0,14,15
 171 -83 171 -83 171 -69 c 0,16,17
 171 -63 171 -63 176 -55 c 2,18,-1
 203 -10 l 1,19,20
 149 -3 149 -3 102 28 c 128,-1,21
 55 59 55 59 36 112 c 1,22,-1
 90 133 l 1,23,24
 103 88 103 88 142.5 62.5 c 128,-1,25
 182 37 182 37 232 37 c 0,26,27
 288 37 288 37 323 63.5 c 128,-1,28
 358 90 358 90 358 132 c 0,29,30
 358 172 358 172 329 193.5 c 128,-1,31
 300 215 300 215 233 231 c 2,32,-1
 189 241 l 2,33,34
 118 258 118 258 83.5 285.5 c 128,-1,35
 49 313 49 313 49 370 c 0,36,37
 49 408 49 408 71 439 c 128,-1,38
 93 470 93 470 132.5 488 c 128,-1,39
 172 506 172 506 222 506 c 0,40,41
 280 506 280 506 328 479.5 c 128,-1,42
 376 453 376 453 396 407 c 1,43,-1
 343 386 l 1,44,45
 330 420 330 420 295 438.5 c 128,-1,46
 260 457 260 457 220 457 c 0,47,48
 169 457 169 457 136 433 c 128,-1,49
 103 409 103 409 103 373 c 0,50,51
 103 341 103 341 126.5 322 c 128,-1,52
 150 303 150 303 204 291 c 2,53,-1
 247 281 l 2,54,55
 304 268 304 268 339 252 c 128,-1,56
 374 236 374 236 393 208.5 c 128,-1,57
 412 181 412 181 412 136 c 0,58,59
 412 74 412 74 364 32.5 c 128,-1,60
 316 -9 316 -9 241 -12 c 1,61,-1
 218 -48 l 1,62,63
 235 -44 235 -44 249 -44 c 0,64,65
 278 -44 278 -44 294.5 -60 c 128,-1,66
 311 -76 311 -76 311 -99 c 0,67,68
 311 -127 311 -127 288 -152 c 128,-1,69
 265 -177 265 -177 219 -177 c 0,70,0
 203 -177 203 -177 181.5 -170.5 c 128,-1,1
EndSplineSet
Substitution2: "'locl' Localized Forms in Latin lookup 4 subtable" uni0219
AlternateSubs2: "'aalt' Access All Alternates in Latin lookup 0 subtable" uni0219
EndChar
StartChar: uni0162
Encoding: 354 354 85
Width: 524
GlyphClass: 2
Flags: W
AnchorPoint: "Anchor-1" 262 668 basechar 0
LayerCount: 2
Fore
SplineSet
233 618 m 1,0,-1
 8 618 l 1,1,-1
 8 668 l 1,2,-1
 516 668 l 1,3,-1
 516 618 l 1,4,-1
 291 618 l 1,5,-1
 291 0 l 1,6,-1
 281 0 l 1,7,-1
 251 -48 l 1,8,9
 267 -44 267 -44 281 -44 c 0,10,11
 311 -44 311 -44 327.5 -60 c 128,-1,12
 344 -76 344 -76 344 -99 c 0,13,14
 344 -115 344 -115 334.5 -133.5 c 128,-1,15
 325 -152 325 -152 304 -164.5 c 128,-1,16
 283 -177 283 -177 252 -177 c 0,17,18
 236 -177 236 -177 214.5 -170.5 c 128,-1,19
 193 -164 193 -164 174 -154 c 1,20,-1
 188 -128 l 1,21,22
 222 -145 222 -145 251 -145 c 0,23,24
 277 -145 277 -145 289 -133.5 c 128,-1,25
 301 -122 301 -122 301 -108 c 0,26,27
 301 -92 301 -92 291.5 -84.5 c 128,-1,28
 282 -77 282 -77 260 -77 c 0,29,30
 252 -77 252 -77 237.5 -80 c 128,-1,31
 223 -83 223 -83 219 -83 c 0,32,33
 212 -83 212 -83 208 -79.5 c 128,-1,34
 204 -76 204 -76 204 -70 c 0,35,36
 204 -63 204 -63 209 -55 c 2,37,-1
 243 0 l 1,38,-1
 233 0 l 1,39,-1
 233 618 l 1,0,-1
EndSplineSet
Substitution2: "'locl' Localized Forms in Latin lookup 4 subtable" uni021A
AlternateSubs2: "'aalt' Access All Alternates in Latin lookup 0 subtable" uni021A
EndChar
StartChar: uni0163
Encoding: 355 355 196
Width: 296
GlyphClass: 2
Flags: W
AnchorPoint: "Anchor-3" 189 542 basechar 0
AnchorPoint: "Anchor-1" 150 496 basechar 0
LayerCount: 2
Fore
SplineSet
130 -170 m 128,-1,1
 108 -163 108 -163 90 -154 c 1,2,-1
 104 -128 l 1,3,4
 137 -145 137 -145 166 -145 c 0,5,6
 192 -145 192 -145 204 -133.5 c 128,-1,7
 216 -122 216 -122 216 -108 c 0,8,9
 216 -92 216 -92 207 -84.5 c 128,-1,10
 198 -77 198 -77 176 -77 c 0,11,12
 168 -77 168 -77 153 -80 c 128,-1,13
 138 -83 138 -83 134 -83 c 0,14,15
 119 -83 119 -83 119 -69 c 0,16,17
 119 -63 119 -63 124 -55 c 2,18,-1
 160 4 l 1,19,20
 129 11 129 11 116.5 36 c 128,-1,21
 104 61 104 61 104 116 c 2,22,-1
 104 451 l 1,23,-1
 19 451 l 1,24,-1
 19 496 l 1,25,-1
 104 496 l 1,26,-1
 104 620 l 1,27,-1
 160 620 l 1,28,-1
 160 496 l 1,29,-1
 261 496 l 1,30,-1
 261 451 l 1,31,-1
 160 451 l 1,32,-1
 160 118 l 2,33,34
 160 88 160 88 164 74 c 128,-1,35
 168 60 168 60 179.5 55 c 128,-1,36
 191 50 191 50 215 50 c 2,37,-1
 260 50 l 1,38,-1
 260 0 l 1,39,-1
 210 0 l 1,40,-1
 197 0 l 1,41,-1
 166 -48 l 1,42,43
 183 -44 183 -44 197 -44 c 0,44,45
 226 -44 226 -44 243 -60.5 c 128,-1,46
 260 -77 260 -77 260 -99 c 0,47,48
 260 -115 260 -115 250 -133.5 c 128,-1,49
 240 -152 240 -152 219.5 -164.5 c 128,-1,50
 199 -177 199 -177 167 -177 c 0,51,0
 152 -177 152 -177 130 -170 c 128,-1,1
EndSplineSet
Substitution2: "'locl' Localized Forms in Latin lookup 4 subtable" uni021B
AlternateSubs2: "'aalt' Access All Alternates in Latin lookup 0 subtable" uni021B
EndChar
StartChar: Uring
Encoding: 366 366 95
Width: 673
GlyphClass: 2
Flags: W
AnchorPoint: "Anchor-3" 666 668 basechar 0
AnchorPoint: "Anchor-2" 504 10 basechar 0
AnchorPoint: "Anchor-1" 337 872 basechar 0
AnchorPoint: "Anchor-0" 336 0 basechar 0
LayerCount: 2
Fore
SplineSet
141.5 58 m 128,-1,1
 80 128 80 128 80 272 c 2,2,-1
 80 668 l 1,3,-1
 138 668 l 1,4,-1
 138 268 l 2,5,6
 138 152 138 152 185.5 95 c 128,-1,7
 233 38 233 38 336 38 c 0,8,9
 438 38 438 38 486.5 95.5 c 128,-1,10
 535 153 535 153 535 268 c 2,11,-1
 535 668 l 1,12,-1
 593 668 l 1,13,-1
 593 272 l 2,14,15
 593 128 593 128 531 58 c 128,-1,16
 469 -12 469 -12 336 -12 c 256,17,0
 203 -12 203 -12 141.5 58 c 128,-1,1
268 705 m 128,-1,19
 239 734 239 734 239 774 c 256,20,21
 239 814 239 814 268 843 c 128,-1,22
 297 872 297 872 337 872 c 256,23,24
 377 872 377 872 406 843 c 128,-1,25
 435 814 435 814 435 774 c 256,26,27
 435 734 435 734 406 705 c 128,-1,28
 377 676 377 676 337 676 c 256,29,18
 297 676 297 676 268 705 c 128,-1,19
377 735 m 128,-1,31
 394 751 394 751 394 774 c 256,32,33
 394 797 394 797 377 813 c 128,-1,34
 360 829 360 829 337 829 c 256,35,36
 314 829 314 829 297 813 c 128,-1,37
 280 797 280 797 280 774 c 256,38,39
 280 751 280 751 297 735 c 128,-1,40
 314 719 314 719 337 719 c 256,41,30
 360 719 360 719 377 735 c 128,-1,31
EndSplineSet
EndChar
StartChar: Uogonek
Encoding: 370 370 94
Width: 673
GlyphClass: 2
Flags: W
AnchorPoint: "Anchor-3" 666 668 basechar 0
AnchorPoint: "Anchor-1" 337 668 basechar 0
AnchorPoint: "Anchor-0" 336 0 basechar 0
LayerCount: 2
Fore
SplineSet
395 -148 m 128,-1,1
 372 -128 372 -128 372 -94 c 0,2,3
 372 -70 372 -70 382.5 -47 c 128,-1,4
 393 -24 393 -24 411 -5 c 1,5,6
 363 -11 363 -11 328 -11 c 0,7,8
 80 -11 80 -11 80 267 c 2,9,-1
 80 668 l 1,10,-1
 138 668 l 1,11,-1
 138 268 l 2,12,13
 138 152 138 152 185.5 95 c 128,-1,14
 233 38 233 38 336 38 c 0,15,16
 438 38 438 38 486.5 95.5 c 128,-1,17
 535 153 535 153 535 268 c 2,18,-1
 535 668 l 1,19,-1
 593 668 l 1,20,-1
 593 272 l 2,21,22
 593 77 593 77 483 20 c 0,23,24
 454 5 454 5 436.5 -22.5 c 128,-1,25
 419 -50 419 -50 419 -78 c 0,26,27
 419 -100 419 -100 433 -113 c 128,-1,28
 447 -126 447 -126 471 -126 c 0,29,30
 490 -126 490 -126 504 -119 c 1,31,-1
 504 -159 l 1,32,33
 480 -168 480 -168 455 -168 c 0,34,0
 418 -168 418 -168 395 -148 c 128,-1,1
EndSplineSet
EndChar
StartChar: uogonek
Encoding: 371 371 205
Width: 526
GlyphClass: 2
Flags: W
AnchorPoint: "Anchor-3" 491 496 basechar 0
AnchorPoint: "Anchor-1" 252 496 basechar 0
AnchorPoint: "Anchor-0" 252 0 basechar 0
LayerCount: 2
Fore
SplineSet
114 35.5 m 128,-1,1
 74 83 74 83 74 167 c 2,2,-1
 74 496 l 1,3,-1
 130 496 l 1,4,-1
 130 184 l 2,5,6
 130 113 130 113 156 75.5 c 128,-1,7
 182 38 182 38 247 38 c 0,8,9
 313 38 313 38 353.5 86 c 128,-1,10
 394 134 394 134 394 220 c 2,11,-1
 394 496 l 1,12,-1
 450 496 l 1,13,-1
 450 0 l 1,14,15
 410 -13 410 -13 387.5 -35.5 c 128,-1,16
 365 -58 365 -58 365 -83 c 0,17,18
 365 -105 365 -105 379 -115.5 c 128,-1,19
 393 -126 393 -126 417 -126 c 0,20,21
 433 -126 433 -126 450 -119 c 1,22,-1
 450 -159 l 1,23,24
 428 -168 428 -168 401 -168 c 0,25,26
 364 -168 364 -168 341.5 -148 c 128,-1,27
 319 -128 319 -128 319 -94 c 256,28,29
 319 -60 319 -60 340.5 -34 c 128,-1,30
 362 -8 362 -8 407 14 c 1,31,-1
 396 80 l 1,32,33
 376 41 376 41 337 14.5 c 128,-1,34
 298 -12 298 -12 239 -12 c 0,35,0
 154 -12 154 -12 114 35.5 c 128,-1,1
EndSplineSet
EndChar
StartChar: florin
Encoding: 402 402 295
Width: 297
GlyphClass: 1
Flags: W
LayerCount: 2
Fore
SplineSet
27 -166 m 1,1,-1
 27 -120 l 1,2,3
 31 -122 31 -122 41 -124.5 c 128,-1,4
 51 -127 51 -127 59 -127 c 0,5,6
 87 -127 87 -127 102 -108.5 c 128,-1,7
 117 -90 117 -90 117 -55 c 2,8,-1
 117 453 l 1,9,-1
 32 453 l 1,10,-1
 32 496 l 1,11,-1
 117 496 l 1,12,-1
 117 566 l 2,13,14
 117 621 117 621 122.5 646 c 128,-1,15
 128 671 128 671 149.5 683 c 128,-1,16
 171 695 171 695 220 695 c 2,17,-1
 267 695 l 1,18,-1
 267 648 l 1,19,-1
 210 648 l 2,20,21
 182 648 182 648 174.5 633.5 c 128,-1,22
 167 619 167 619 167 575 c 2,23,-1
 167 496 l 1,24,-1
 267 496 l 1,25,-1
 267 453 l 1,26,-1
 167 453 l 1,27,-1
 167 -43 l 2,28,29
 167 -118 167 -118 136.5 -145 c 128,-1,30
 106 -172 106 -172 59 -172 c 0,31,0
 43 -172 43 -172 27 -166 c 1,1,-1
EndSplineSet
EndChar
StartChar: uni0237
Encoding: 567 567 159
Width: 216
GlyphClass: 2
Flags: W
AnchorPoint: "Anchor-1" 110 496 basechar 0
AnchorPoint: "Anchor-0" 100 -251 basechar 0
LayerCount: 2
Fore
SplineSet
-52 -112 m 1,0,-1
 -10 -112 l 2,1,2
 33 -112 33 -112 51.5 -104 c 128,-1,3
 70 -96 70 -96 76 -76 c 128,-1,4
 82 -56 82 -56 82 -10 c 2,5,-1
 82 496 l 1,6,-1
 138 496 l 1,7,-1
 138 -9 l 2,8,9
 138 -72 138 -72 128 -103 c 128,-1,10
 118 -134 118 -134 87 -148 c 128,-1,11
 56 -162 56 -162 -9 -162 c 2,12,-1
 -52 -162 l 1,13,-1
 -52 -112 l 1,0,-1
EndSplineSet
EndChar
StartChar: gravecomb
Encoding: 768 768 349
Width: 0
GlyphClass: 4
Flags: W
AnchorPoint: "Anchor-5" 159 697 basemark 0
AnchorPoint: "Anchor-5" 159 496 mark 0
AnchorPoint: "Anchor-1" 159 496 mark 0
LayerCount: 2
Fore
SplineSet
44.5 650 m 128,-1,1
 38 658 38 658 38 670 c 256,2,3
 38 682 38 682 45.5 689.5 c 128,-1,4
 53 697 53 697 65 697 c 0,5,6
 76 697 76 697 84.5 690 c 128,-1,7
 93 683 93 683 106 666 c 2,8,-1
 179 569 l 1,9,-1
 131 569 l 1,10,-1
 74 620 l 2,11,0
 51 642 51 642 44.5 650 c 128,-1,1
EndSplineSet
Substitution2: "Single Substitution lookup 13 subtable" gravecomb.case
Substitution2: "'case' Case-Sensitive Forms in Latin lookup 11 subtable" gravecomb.case
AlternateSubs2: "'aalt' Access All Alternates in Latin lookup 0 subtable" gravecomb.case
EndChar
StartChar: acutecomb
Encoding: 769 769 351
Width: 0
GlyphClass: 4
Flags: W
AnchorPoint: "Anchor-5" 58 697 basemark 0
AnchorPoint: "Anchor-5" 58 496 mark 0
AnchorPoint: "Anchor-1" 58 496 mark 0
LayerCount: 2
Fore
SplineSet
132.5 690 m 128,-1,1
 141 697 141 697 152 697 c 0,2,3
 164 697 164 697 171.5 689 c 128,-1,4
 179 681 179 681 179 670 c 0,5,6
 179 658 179 658 173 650.5 c 128,-1,7
 167 643 167 643 142 620 c 2,8,-1
 85 569 l 1,9,-1
 38 569 l 1,10,-1
 111 666 l 2,11,0
 124 683 124 683 132.5 690 c 128,-1,1
EndSplineSet
Substitution2: "Single Substitution lookup 13 subtable" acutecomb.case
Substitution2: "'case' Case-Sensitive Forms in Latin lookup 11 subtable" acutecomb.case
AlternateSubs2: "'aalt' Access All Alternates in Latin lookup 0 subtable" acutecomb.case
EndChar
StartChar: uni0302
Encoding: 770 770 356
Width: 0
GlyphClass: 4
Flags: W
AnchorPoint: "Anchor-5" 164 680 basemark 0
AnchorPoint: "Anchor-5" 164 496 mark 0
AnchorPoint: "Anchor-1" 164 496 mark 0
LayerCount: 2
Fore
SplineSet
165 680 m 0,1,2
 188 680 188 680 209 659 c 2,3,-1
 291 576 l 1,4,-1
 233 576 l 1,5,-1
 163 636 l 1,6,-1
 95 576 l 1,7,-1
 38 576 l 1,8,-1
 120 659 l 2,9,0
 141 680 141 680 165 680 c 0,1,2
EndSplineSet
Substitution2: "Single Substitution lookup 13 subtable" uni0302.case
Substitution2: "'case' Case-Sensitive Forms in Latin lookup 11 subtable" uni0302.case
AlternateSubs2: "'aalt' Access All Alternates in Latin lookup 0 subtable" uni0302.case
EndChar
StartChar: tildecomb
Encoding: 771 771 364
Width: 0
GlyphClass: 4
Flags: W
AnchorPoint: "Anchor-5" 179 661 basemark 0
AnchorPoint: "Anchor-5" 179 496 mark 0
AnchorPoint: "Anchor-1" 179 496 mark 0
LayerCount: 2
Fore
SplineSet
208.5 581.5 m 128,-1,1
 193 587 193 587 174 598 c 0,2,3
 157 607 157 607 145.5 611.5 c 128,-1,4
 134 616 134 616 123 616 c 0,5,6
 105 616 105 616 93.5 605.5 c 128,-1,7
 82 595 82 595 80 577 c 1,8,-1
 38 577 l 1,9,10
 46 620 46 620 69 639 c 128,-1,11
 92 658 92 658 125 658 c 0,12,13
 142 658 142 658 156.5 652.5 c 128,-1,14
 171 647 171 647 189 637 c 0,15,16
 207 628 207 628 217.5 623.5 c 128,-1,17
 228 619 228 619 240 619 c 0,18,19
 254 619 254 619 263 626 c 128,-1,20
 272 633 272 633 280 646 c 0,21,22
 289 661 289 661 302 661 c 0,23,24
 319 661 319 661 319 641 c 0,25,26
 319 632 319 632 310 616 c 128,-1,27
 301 600 301 600 283.5 588 c 128,-1,28
 266 576 266 576 241 576 c 0,29,0
 224 576 224 576 208.5 581.5 c 128,-1,1
EndSplineSet
Substitution2: "Single Substitution lookup 13 subtable" tildecomb.case
Substitution2: "'case' Case-Sensitive Forms in Latin lookup 11 subtable" tildecomb.case
AlternateSubs2: "'aalt' Access All Alternates in Latin lookup 0 subtable" tildecomb.case
EndChar
StartChar: uni0306
Encoding: 774 774 360
Width: 0
GlyphClass: 4
Flags: W
AnchorPoint: "Anchor-5" 155 677 basemark 0
AnchorPoint: "Anchor-5" 155 496 mark 0
AnchorPoint: "Anchor-1" 155 496 mark 0
LayerCount: 2
Fore
SplineSet
78 600.5 m 128,-1,1
 47 629 47 629 38 672 c 1,2,-1
 80 672 l 1,3,4
 86 648 86 648 105.5 631 c 128,-1,5
 125 614 125 614 155 614 c 0,6,7
 184 614 184 614 203.5 631 c 128,-1,8
 223 648 223 648 230 672 c 1,9,-1
 272 672 l 1,10,11
 263 629 263 629 232 600.5 c 128,-1,12
 201 572 201 572 155 572 c 256,13,0
 109 572 109 572 78 600.5 c 128,-1,1
EndSplineSet
Substitution2: "Single Substitution lookup 13 subtable" uni0306.case
Substitution2: "'case' Case-Sensitive Forms in Latin lookup 11 subtable" uni0306.case
AlternateSubs2: "'aalt' Access All Alternates in Latin lookup 0 subtable" uni0306.case
EndChar
StartChar: uni0307
Encoding: 775 775 346
Width: 0
GlyphClass: 4
Flags: W
AnchorPoint: "Anchor-5" 82 686 basemark 0
AnchorPoint: "Anchor-5" 82 496 mark 0
AnchorPoint: "Anchor-1" 82 496 mark 0
LayerCount: 2
Fore
SplineSet
51 611 m 128,-1,1
 38 624 38 624 38 642 c 256,2,3
 38 660 38 660 51 673 c 128,-1,4
 64 686 64 686 82 686 c 0,5,6
 99 686 99 686 112 673 c 128,-1,7
 125 660 125 660 125 642 c 256,8,9
 125 624 125 624 112 611 c 128,-1,10
 99 598 99 598 82 598 c 0,11,0
 64 598 64 598 51 611 c 128,-1,1
EndSplineSet
Substitution2: "Single Substitution lookup 13 subtable" uni0307.case
Substitution2: "'case' Case-Sensitive Forms in Latin lookup 11 subtable" uni0307.case
AlternateSubs2: "'aalt' Access All Alternates in Latin lookup 0 subtable" uni0307.case
EndChar
StartChar: uni0308
Encoding: 776 776 344
Width: 0
GlyphClass: 4
Flags: W
AnchorPoint: "Anchor-5" 161 686 basemark 0
AnchorPoint: "Anchor-5" 161 496 mark 0
AnchorPoint: "Anchor-1" 161 496 mark 0
LayerCount: 2
Fore
SplineSet
212 613 m 128,-1,1
 199 626 199 626 199 643 c 256,2,3
 199 660 199 660 212 673 c 128,-1,4
 225 686 225 686 242 686 c 256,5,6
 259 686 259 686 272 673 c 128,-1,7
 285 660 285 660 285 643 c 256,8,9
 285 626 285 626 272 613 c 128,-1,10
 259 600 259 600 242 600 c 256,11,0
 225 600 225 600 212 613 c 128,-1,1
50.5 613 m 128,-1,13
 38 626 38 626 38 643 c 256,14,15
 38 660 38 660 50.5 673 c 128,-1,16
 63 686 63 686 81 686 c 0,17,18
 98 686 98 686 111 673 c 128,-1,19
 124 660 124 660 124 643 c 256,20,21
 124 626 124 626 111 613 c 128,-1,22
 98 600 98 600 81 600 c 0,23,12
 63 600 63 600 50.5 613 c 128,-1,13
EndSplineSet
Substitution2: "Single Substitution lookup 13 subtable" uni0308.case
Substitution2: "'case' Case-Sensitive Forms in Latin lookup 11 subtable" uni0308.case
AlternateSubs2: "'aalt' Access All Alternates in Latin lookup 0 subtable" uni0308.case
EndChar
StartChar: uni030A
Encoding: 778 778 362
Width: 0
GlyphClass: 4
Flags: W
AnchorPoint: "Anchor-5" 134 764 basemark 0
AnchorPoint: "Anchor-5" 134 496 mark 0
AnchorPoint: "Anchor-1" 134 496 mark 0
LayerCount: 2
Fore
SplineSet
66 600.5 m 128,-1,1
 38 629 38 629 38 668 c 256,2,3
 38 707 38 707 66 735.5 c 128,-1,4
 94 764 94 764 134 764 c 0,5,6
 173 764 173 764 201.5 735.5 c 128,-1,7
 230 707 230 707 230 668 c 256,8,9
 230 629 230 629 201.5 600.5 c 128,-1,10
 173 572 173 572 134 572 c 0,11,0
 94 572 94 572 66 600.5 c 128,-1,1
173 629 m 128,-1,13
 189 645 189 645 189 668 c 256,14,15
 189 691 189 691 173 707 c 128,-1,16
 157 723 157 723 134 723 c 256,17,18
 111 723 111 723 95 707 c 128,-1,19
 79 691 79 691 79 668 c 256,20,21
 79 645 79 645 95 629 c 128,-1,22
 111 613 111 613 134 613 c 256,23,12
 157 613 157 613 173 629 c 128,-1,13
EndSplineSet
Substitution2: "Single Substitution lookup 13 subtable" uni030A.case
Substitution2: "'case' Case-Sensitive Forms in Latin lookup 11 subtable" uni030A.case
AlternateSubs2: "'aalt' Access All Alternates in Latin lookup 0 subtable" uni030A.case
EndChar
StartChar: uni030B
Encoding: 779 779 353
Width: 0
GlyphClass: 4
Flags: W
AnchorPoint: "Anchor-5" 215 696 basemark 0
AnchorPoint: "Anchor-5" 123 496 mark 0
AnchorPoint: "Anchor-1" 123 496 mark 0
LayerCount: 2
Fore
SplineSet
131 689 m 128,-1,1
 140 696 140 696 151 696 c 256,2,3
 162 696 162 696 169 689 c 128,-1,4
 176 682 176 682 176 672 c 0,5,6
 176 661 176 661 168.5 651.5 c 128,-1,7
 161 642 161 642 138 621 c 2,8,-1
 81 569 l 1,9,-1
 38 569 l 1,10,-1
 110 666 l 2,11,0
 122 682 122 682 131 689 c 128,-1,1
258 689 m 128,-1,13
 267 696 267 696 278 696 c 0,14,15
 290 696 290 696 296.5 689 c 128,-1,16
 303 682 303 682 303 672 c 0,17,18
 303 661 303 661 295.5 651.5 c 128,-1,19
 288 642 288 642 266 621 c 2,20,-1
 209 569 l 1,21,-1
 165 569 l 1,22,-1
 237 666 l 2,23,12
 249 682 249 682 258 689 c 128,-1,13
EndSplineSet
Substitution2: "Single Substitution lookup 13 subtable" uni030B.case
Substitution2: "'case' Case-Sensitive Forms in Latin lookup 11 subtable" uni030B.case
AlternateSubs2: "'aalt' Access All Alternates in Latin lookup 0 subtable" uni030B.case
EndChar
StartChar: uni030C
Encoding: 780 780 358
Width: 0
GlyphClass: 4
Flags: W
AnchorPoint: "Anchor-5" 164 674 basemark 0
AnchorPoint: "Anchor-5" 164 496 mark 0
AnchorPoint: "Anchor-1" 164 496 mark 0
LayerCount: 2
Fore
SplineSet
120 591 m 2,1,-1
 38 674 l 1,2,-1
 95 674 l 1,3,-1
 163 614 l 1,4,-1
 233 674 l 1,5,-1
 291 674 l 1,6,-1
 209 591 l 2,7,8
 188 570 188 570 165 570 c 0,9,0
 141 570 141 570 120 591 c 2,1,-1
EndSplineSet
Substitution2: "Single Substitution lookup 13 subtable" uni030C.case
Substitution2: "'case' Case-Sensitive Forms in Latin lookup 11 subtable" uni030C.case
AlternateSubs2: "'aalt' Access All Alternates in Latin lookup 0 subtable" uni030C.case
EndChar
StartChar: uni0312
Encoding: 786 786 368
Width: 0
GlyphClass: 4
Flags: W
AnchorPoint: "Anchor-5" 102 756 basemark 0
AnchorPoint: "Anchor-5" 83 496 mark 0
AnchorPoint: "Anchor-1" 83 496 mark 0
LayerCount: 2
Fore
SplineSet
47.5 610 m 128,-1,1
 38 628 38 628 38 651 c 0,2,3
 38 696 38 696 68 725 c 128,-1,4
 98 754 98 754 136 756 c 1,5,-1
 166 731 l 1,6,7
 135 728 135 728 109.5 710.5 c 128,-1,8
 84 693 84 693 84 659 c 0,9,10
 84 617 84 617 122 594 c 1,11,-1
 78 575 l 1,12,0
 57 592 57 592 47.5 610 c 128,-1,1
EndSplineSet
EndChar
StartChar: uni0326
Encoding: 806 806 369
Width: 0
GlyphClass: 4
Flags: W
AnchorPoint: "Anchor-4" 115 -236 basemark 0
AnchorPoint: "Anchor-4" 115 0 mark 0
AnchorPoint: "Anchor-0" 115 0 mark 0
LayerCount: 2
Fore
SplineSet
94.5 -187.5 m 128,-1,1
 120 -170 120 -170 120 -136 c 0,2,3
 120 -94 120 -94 82 -71 c 1,4,-1
 126 -52 l 1,5,6
 147 -69 147 -69 156.5 -87 c 128,-1,7
 166 -105 166 -105 166 -128 c 0,8,9
 166 -173 166 -173 136.5 -202 c 128,-1,10
 107 -231 107 -231 69 -233 c 1,11,-1
 38 -208 l 1,12,0
 69 -205 69 -205 94.5 -187.5 c 128,-1,1
EndSplineSet
EndChar
StartChar: uni0327
Encoding: 807 807 370
Width: 0
GlyphClass: 4
Flags: W
AnchorPoint: "Anchor-4" 128 -178 basemark 0
AnchorPoint: "Anchor-4" 128 0 mark 0
AnchorPoint: "Anchor-0" 128 0 mark 0
LayerCount: 2
Fore
SplineSet
79 -170.5 m 128,-1,1
 57 -164 57 -164 38 -154 c 1,2,-1
 52 -128 l 1,3,4
 86 -145 86 -145 115 -145 c 0,5,6
 141 -145 141 -145 153 -133.5 c 128,-1,7
 165 -122 165 -122 165 -108 c 0,8,9
 165 -92 165 -92 155.5 -84.5 c 128,-1,10
 146 -77 146 -77 124 -77 c 0,11,12
 117 -77 117 -77 102.5 -80 c 128,-1,13
 88 -83 88 -83 83 -83 c 0,14,15
 76 -83 76 -83 72 -79.5 c 128,-1,16
 68 -76 68 -76 68 -70 c 0,17,18
 68 -63 68 -63 73 -55 c 2,19,-1
 119 20 l 1,20,-1
 149 6 l 1,21,-1
 115 -48 l 1,22,23
 132 -44 132 -44 146 -44 c 0,24,25
 175 -44 175 -44 191.5 -60 c 128,-1,26
 208 -76 208 -76 208 -99 c 0,27,28
 208 -126 208 -126 185 -151.5 c 128,-1,29
 162 -177 162 -177 116 -177 c 0,30,0
 101 -177 101 -177 79 -170.5 c 128,-1,1
EndSplineSet
EndChar
StartChar: uni0328
Encoding: 808 808 371
Width: 0
GlyphClass: 4
Flags: W
AnchorPoint: "Anchor-2" 170 10 mark 0
LayerCount: 2
Fore
SplineSet
61 -148 m 128,-1,1
 38 -128 38 -128 38 -94 c 0,2,3
 38 -58 38 -58 61.5 -31.5 c 128,-1,4
 85 -5 85 -5 133 17 c 1,5,-1
 170 0 l 1,6,7
 130 -13 130 -13 107.5 -35.5 c 128,-1,8
 85 -58 85 -58 85 -83 c 0,9,10
 85 -105 85 -105 99 -115.5 c 128,-1,11
 113 -126 113 -126 136 -126 c 0,12,13
 153 -126 153 -126 170 -119 c 1,14,-1
 170 -159 l 1,15,16
 148 -168 148 -168 121 -168 c 0,17,0
 84 -168 84 -168 61 -148 c 128,-1,1
EndSplineSet
Substitution2: "Single Substitution lookup 13 subtable" uni0328.case
Substitution2: "'case' Case-Sensitive Forms in Latin lookup 11 subtable" uni0328.case
AlternateSubs2: "'aalt' Access All Alternates in Latin lookup 0 subtable" uni0328.case
EndChar
StartChar: uni03A9
Encoding: 937 937 226
Width: 678
GlyphClass: 1
Flags: W
LayerCount: 2
Fore
SplineSet
46 50 m 1,0,-1
 216 50 l 1,1,-1
 216 116 l 1,2,3
 139 153 139 153 92.5 226.5 c 128,-1,4
 46 300 46 300 46 384 c 0,5,6
 46 465 46 465 85.5 533 c 128,-1,7
 125 601 125 601 192 640.5 c 128,-1,8
 259 680 259 680 339 680 c 256,9,10
 419 680 419 680 486 640.5 c 128,-1,11
 553 601 553 601 592.5 533 c 128,-1,12
 632 465 632 465 632 384 c 0,13,14
 632 300 632 300 585.5 226.5 c 128,-1,15
 539 153 539 153 462 116 c 1,16,-1
 462 50 l 1,17,-1
 632 50 l 1,18,-1
 632 0 l 1,19,-1
 412 0 l 1,20,-1
 412 149 l 1,21,22
 487 172 487 172 534.5 237 c 128,-1,23
 582 302 582 302 582 383 c 0,24,25
 582 451 582 451 549 507.5 c 128,-1,26
 516 564 516 564 460.5 597 c 128,-1,27
 405 630 405 630 339 630 c 256,28,29
 273 630 273 630 217 597 c 128,-1,30
 161 564 161 564 128 507.5 c 128,-1,31
 95 451 95 451 95 383 c 0,32,33
 95 303 95 303 143 237.5 c 128,-1,34
 191 172 191 172 266 149 c 1,35,-1
 266 0 l 1,36,-1
 46 0 l 1,37,-1
 46 50 l 1,0,-1
EndSplineSet
EndChar
StartChar: uni03BC
Encoding: 956 956 227
Width: 527
GlyphClass: 1
Flags: W
LayerCount: 2
Fore
SplineSet
76 496 m 1,0,-1
 132 496 l 1,1,-1
 132 181 l 2,2,3
 132 121 132 121 156 80.5 c 128,-1,4
 180 40 180 40 248 40 c 256,5,6
 316 40 316 40 356 88.5 c 128,-1,7
 396 137 396 137 396 221 c 2,8,-1
 396 496 l 1,9,-1
 452 496 l 1,10,-1
 452 98 l 2,11,12
 452 68 452 68 460 58 c 128,-1,13
 468 48 468 48 496 48 c 2,14,-1
 506 48 l 1,15,-1
 506 0 l 1,16,-1
 492 0 l 2,17,18
 440 0 440 0 420 18.5 c 128,-1,19
 400 37 400 37 396 78 c 1,20,21
 376 41 376 41 338.5 16 c 128,-1,22
 301 -9 301 -9 244 -9 c 0,23,24
 204 -9 204 -9 173 5 c 128,-1,25
 142 19 142 19 132 42 c 1,26,-1
 132 -162 l 1,27,-1
 76 -162 l 1,28,-1
 76 496 l 1,0,-1
EndSplineSet
EndChar
StartChar: pi
Encoding: 960 960 228
Width: 529
GlyphClass: 1
Flags: W
LayerCount: 2
Fore
SplineSet
91 450 m 1,0,-1
 19 450 l 1,1,-1
 19 496 l 1,2,-1
 494 496 l 1,3,-1
 494 450 l 1,4,-1
 411 450 l 1,5,-1
 411 105 l 2,6,7
 411 80 411 80 415 68.5 c 128,-1,8
 419 57 419 57 429 53.5 c 128,-1,9
 439 50 439 50 461 50 c 2,10,-1
 494 50 l 1,11,-1
 494 0 l 1,12,-1
 456 0 l 2,13,14
 409 0 409 0 388.5 10 c 128,-1,15
 368 20 368 20 361.5 45.5 c 128,-1,16
 355 71 355 71 355 127 c 2,17,-1
 355 450 l 1,18,-1
 146 450 l 1,19,-1
 146 0 l 1,20,-1
 91 0 l 1,21,-1
 91 450 l 1,0,-1
EndSplineSet
EndChar
StartChar: uni1E9E
Encoding: 7838 7838 82
Width: 632
GlyphClass: 1
Flags: W
LayerCount: 2
Fore
SplineSet
310 19.5 m 128,-1,1
 270 51 270 51 256 100 c 1,2,-1
 305 119 l 1,3,4
 327 39 327 39 420 39 c 0,5,6
 471 39 471 39 505 74 c 128,-1,7
 539 109 539 109 539 170 c 0,8,9
 539 233 539 233 504 266.5 c 128,-1,10
 469 300 469 300 419 300 c 0,11,12
 395 300 395 300 372 291 c 1,13,-1
 341 341 l 1,14,-1
 523 607 l 1,15,16
 419 630 419 630 335 630 c 0,17,18
 235 630 235 630 186.5 590 c 128,-1,19
 138 550 138 550 138 446 c 2,20,-1
 138 0 l 1,21,-1
 80 0 l 1,22,-1
 80 447 l 2,23,24
 80 680 80 680 334 680 c 0,25,26
 430 680 430 680 575 645 c 1,27,-1
 575 594 l 1,28,-1
 405 347 l 1,29,30
 421 349 421 349 429 349 c 0,31,32
 473 349 473 349 511.5 327.5 c 128,-1,33
 550 306 550 306 573 265 c 128,-1,34
 596 224 596 224 596 169 c 0,35,36
 596 111 596 111 571.5 70.5 c 128,-1,37
 547 30 547 30 506.5 9 c 128,-1,38
 466 -12 466 -12 420 -12 c 0,39,0
 350 -12 350 -12 310 19.5 c 128,-1,1
EndSplineSet
EndChar
StartChar: endash
Encoding: 8211 8211 274
Width: 503
GlyphClass: 1
Flags: W
LayerCount: 2
Fore
SplineSet
60 274 m 1,0,-1
 443 274 l 1,1,-1
 443 219 l 1,2,-1
 60 219 l 1,3,-1
 60 274 l 1,0,-1
EndSplineSet
EndChar
StartChar: quoteleft
Encoding: 8216 8216 287
Width: 188
GlyphClass: 1
Flags: W
LayerCount: 2
Fore
SplineSet
59 471.5 m 128,-1,1
 45 486 45 486 45 505 c 0,2,3
 45 513 45 513 51 532 c 2,4,-1
 104 668 l 1,5,-1
 142 668 l 1,6,-1
 98 554 l 1,7,8
 116 552 116 552 129 538 c 128,-1,9
 142 524 142 524 142 506 c 0,10,11
 142 486 142 486 128 471.5 c 128,-1,12
 114 457 114 457 95 457 c 0,13,0
 73 457 73 457 59 471.5 c 128,-1,1
EndSplineSet
EndChar
StartChar: quoteright
Encoding: 8217 8217 288
Width: 188
GlyphClass: 1
Flags: W
LayerCount: 2
Fore
SplineSet
59 599.5 m 128,-1,1
 46 613 46 613 46 632 c 256,2,3
 46 651 46 651 60 665.5 c 128,-1,4
 74 680 74 680 93 680 c 0,5,6
 115 680 115 680 129 666 c 128,-1,7
 143 652 143 652 143 633 c 0,8,9
 143 626 143 626 137 606 c 2,10,-1
 84 469 l 1,11,-1
 46 469 l 1,12,-1
 90 584 l 1,13,0
 72 586 72 586 59 599.5 c 128,-1,1
EndSplineSet
EndChar
StartChar: quotesinglbase
Encoding: 8218 8218 283
Width: 188
GlyphClass: 1
Flags: W
LayerCount: 2
Fore
SplineSet
59 3.5 m 128,-1,1
 46 18 46 18 46 36 c 0,2,3
 46 55 46 55 60 69.5 c 128,-1,4
 74 84 74 84 93 84 c 0,5,6
 115 84 115 84 129 70 c 128,-1,7
 143 56 143 56 143 37 c 0,8,9
 143 30 143 30 137 10 c 2,10,-1
 84 -126 l 1,11,-1
 46 -126 l 1,12,-1
 90 -12 l 1,13,0
 72 -11 72 -11 59 3.5 c 128,-1,1
EndSplineSet
EndChar
StartChar: quotedblleft
Encoding: 8220 8220 285
Width: 321
GlyphClass: 1
Flags: W
LayerCount: 2
Fore
SplineSet
192 471.5 m 128,-1,1
 178 486 178 486 178 505 c 0,2,3
 178 516 178 516 184 532 c 2,4,-1
 237 668 l 1,5,-1
 275 668 l 1,6,-1
 231 554 l 1,7,8
 249 552 249 552 261.5 538 c 128,-1,9
 274 524 274 524 274 506 c 0,10,11
 274 486 274 486 260 471.5 c 128,-1,12
 246 457 246 457 227 457 c 0,13,0
 206 457 206 457 192 471.5 c 128,-1,1
59 471.5 m 128,-1,15
 45 486 45 486 45 505 c 0,16,17
 45 513 45 513 51 532 c 2,18,-1
 104 668 l 1,19,-1
 142 668 l 1,20,-1
 98 554 l 1,21,22
 116 552 116 552 129 538 c 128,-1,23
 142 524 142 524 142 506 c 0,24,25
 142 486 142 486 128 471.5 c 128,-1,26
 114 457 114 457 95 457 c 0,27,14
 73 457 73 457 59 471.5 c 128,-1,15
EndSplineSet
EndChar
StartChar: quotedblright
Encoding: 8221 8221 286
Width: 321
GlyphClass: 1
Flags: W
LayerCount: 2
Fore
SplineSet
192 599.5 m 128,-1,1
 179 613 179 613 179 632 c 256,2,3
 179 651 179 651 193 665.5 c 128,-1,4
 207 680 207 680 226 680 c 0,5,6
 248 680 248 680 261.5 666 c 128,-1,7
 275 652 275 652 275 633 c 0,8,9
 275 622 275 622 269 606 c 2,10,-1
 217 469 l 1,11,-1
 179 469 l 1,12,-1
 223 584 l 1,13,0
 205 586 205 586 192 599.5 c 128,-1,1
59 599.5 m 128,-1,15
 46 613 46 613 46 632 c 256,16,17
 46 651 46 651 60 665.5 c 128,-1,18
 74 680 74 680 93 680 c 0,19,20
 115 680 115 680 129 666 c 128,-1,21
 143 652 143 652 143 633 c 0,22,23
 143 626 143 626 137 606 c 2,24,-1
 84 469 l 1,25,-1
 46 469 l 1,26,-1
 90 584 l 1,27,14
 72 586 72 586 59 599.5 c 128,-1,15
EndSplineSet
EndChar
StartChar: quotedblbase
Encoding: 8222 8222 284
Width: 321
GlyphClass: 1
Flags: W
LayerCount: 2
Fore
SplineSet
192 3.5 m 128,-1,1
 179 18 179 18 179 36 c 0,2,3
 179 55 179 55 193 69.5 c 128,-1,4
 207 84 207 84 226 84 c 0,5,6
 248 84 248 84 261.5 70 c 128,-1,7
 275 56 275 56 275 37 c 0,8,9
 275 26 275 26 269 10 c 2,10,-1
 217 -126 l 1,11,-1
 179 -126 l 1,12,-1
 223 -12 l 1,13,0
 205 -11 205 -11 192 3.5 c 128,-1,1
59 3.5 m 128,-1,15
 46 18 46 18 46 36 c 0,16,17
 46 55 46 55 60 69.5 c 128,-1,18
 74 84 74 84 93 84 c 0,19,20
 115 84 115 84 129 70 c 128,-1,21
 143 56 143 56 143 37 c 0,22,23
 143 30 143 30 137 10 c 2,24,-1
 84 -126 l 1,25,-1
 46 -126 l 1,26,-1
 90 -12 l 1,27,14
 72 -11 72 -11 59 3.5 c 128,-1,15
EndSplineSet
EndChar
StartChar: dagger
Encoding: 8224 8224 307
Width: 512
GlyphClass: 1
Flags: W
LayerCount: 2
Fore
SplineSet
229 443 m 1,0,-1
 40 443 l 1,1,-1
 40 496 l 1,2,-1
 229 496 l 1,3,-1
 229 668 l 1,4,-1
 284 668 l 1,5,-1
 284 496 l 1,6,-1
 472 496 l 1,7,-1
 472 443 l 1,8,-1
 284 443 l 1,9,-1
 284 0 l 1,10,-1
 229 0 l 1,11,-1
 229 443 l 1,0,-1
EndSplineSet
EndChar
StartChar: daggerdbl
Encoding: 8225 8225 309
Width: 516
GlyphClass: 1
Flags: W
LayerCount: 2
Fore
SplineSet
234 171 m 1,0,-1
 40 171 l 1,1,-1
 40 232 l 1,2,-1
 234 232 l 1,3,-1
 234 434 l 1,4,-1
 40 434 l 1,5,-1
 40 496 l 1,6,-1
 234 496 l 1,7,-1
 234 668 l 1,8,-1
 283 668 l 1,9,-1
 283 496 l 1,10,-1
 476 496 l 1,11,-1
 476 434 l 1,12,-1
 283 434 l 1,13,-1
 283 232 l 1,14,-1
 476 232 l 1,15,-1
 476 171 l 1,16,-1
 283 171 l 1,17,-1
 283 0 l 1,18,-1
 234 0 l 1,19,-1
 234 171 l 1,0,-1
EndSplineSet
EndChar
StartChar: perthousand
Encoding: 8240 8240 342
Width: 1269
GlyphClass: 1
Flags: W
LayerCount: 2
Fore
SplineSet
643 668 m 1,0,-1
 705 668 l 1,1,-1
 228 0 l 1,2,-1
 166 0 l 1,3,-1
 643 668 l 1,0,-1
127 356 m 128,-1,5
 87 379 87 379 63.5 419 c 128,-1,6
 40 459 40 459 40 506 c 0,7,8
 40 554 40 554 63.5 594 c 128,-1,9
 87 634 87 634 127 657 c 128,-1,10
 167 680 167 680 214 680 c 0,11,12
 262 680 262 680 302 657 c 128,-1,13
 342 634 342 634 365.5 594 c 128,-1,14
 389 554 389 554 389 506 c 0,15,16
 389 459 389 459 365.5 419 c 128,-1,17
 342 379 342 379 302 356 c 128,-1,18
 262 333 262 333 214 333 c 0,19,4
 167 333 167 333 127 356 c 128,-1,5
301.5 420 m 128,-1,21
 337 456 337 456 337 506 c 0,22,23
 337 557 337 557 301.5 593 c 128,-1,24
 266 629 266 629 214 629 c 0,25,26
 163 629 163 629 127 593 c 128,-1,27
 91 557 91 557 91 506 c 0,28,29
 91 456 91 456 127 420 c 128,-1,30
 163 384 163 384 214 384 c 0,31,20
 266 384 266 384 301.5 420 c 128,-1,21
570 11 m 128,-1,33
 530 34 530 34 506.5 74 c 128,-1,34
 483 114 483 114 483 162 c 0,35,36
 483 209 483 209 506.5 249 c 128,-1,37
 530 289 530 289 570 312 c 128,-1,38
 610 335 610 335 658 335 c 0,39,40
 705 335 705 335 745 312 c 128,-1,41
 785 289 785 289 808.5 249 c 128,-1,42
 832 209 832 209 832 162 c 0,43,44
 832 114 832 114 808.5 74 c 128,-1,45
 785 34 785 34 745 11 c 128,-1,46
 705 -12 705 -12 658 -12 c 0,47,32
 610 -12 610 -12 570 11 c 128,-1,33
745 75 m 128,-1,49
 781 111 781 111 781 162 c 0,50,51
 781 212 781 212 745 248 c 128,-1,52
 709 284 709 284 658 284 c 256,53,54
 607 284 607 284 571 248.5 c 128,-1,55
 535 213 535 213 535 162 c 256,56,57
 535 111 535 111 570.5 75 c 128,-1,58
 606 39 606 39 658 39 c 0,59,48
 709 39 709 39 745 75 c 128,-1,49
967 11 m 128,-1,61
 927 34 927 34 903.5 74 c 128,-1,62
 880 114 880 114 880 162 c 0,63,64
 880 209 880 209 903.5 249 c 128,-1,65
 927 289 927 289 967 312 c 128,-1,66
 1007 335 1007 335 1054 335 c 0,67,68
 1102 335 1102 335 1142 312 c 128,-1,69
 1182 289 1182 289 1205.5 249 c 128,-1,70
 1229 209 1229 209 1229 162 c 0,71,72
 1229 114 1229 114 1205.5 74 c 128,-1,73
 1182 34 1182 34 1142 11 c 128,-1,74
 1102 -12 1102 -12 1054 -12 c 0,75,60
 1007 -12 1007 -12 967 11 c 128,-1,61
1141.5 75 m 128,-1,77
 1177 111 1177 111 1177 162 c 256,78,79
 1177 213 1177 213 1141.5 248.5 c 128,-1,80
 1106 284 1106 284 1054 284 c 0,81,82
 1003 284 1003 284 967 248 c 128,-1,83
 931 212 931 212 931 162 c 0,84,85
 931 111 931 111 967 75 c 128,-1,86
 1003 39 1003 39 1054 39 c 0,87,76
 1106 39 1106 39 1141.5 75 c 128,-1,77
EndSplineSet
EndChar
StartChar: guilsinglleft
Encoding: 8249 8249 291
Width: 328
GlyphClass: 1
Flags: W
LayerCount: 2
Fore
SplineSet
59 250 m 1,0,-1
 207 460 l 1,1,-1
 269 460 l 1,2,-1
 121 250 l 1,3,-1
 269 40 l 1,4,-1
 207 40 l 1,5,-1
 59 250 l 1,0,-1
EndSplineSet
EndChar
StartChar: guilsinglright
Encoding: 8250 8250 292
Width: 328
GlyphClass: 1
Flags: W
LayerCount: 2
Fore
SplineSet
207 250 m 1,0,-1
 59 460 l 1,1,-1
 121 460 l 1,2,-1
 269 250 l 1,3,-1
 121 40 l 1,4,-1
 59 40 l 1,5,-1
 207 250 l 1,0,-1
EndSplineSet
EndChar
StartChar: Euro
Encoding: 8364 8364 314
Width: 665
GlyphClass: 1
Flags: W
LayerCount: 2
Fore
SplineSet
204.5 56.5 m 128,-1,1
 137 126 137 126 119 245 c 1,2,-1
 29 245 l 1,3,-1
 50 284 l 1,4,-1
 114 284 l 1,5,-1
 112 338 l 2,6,7
 112 351 112 351 114 383 c 1,8,-1
 29 383 l 1,9,-1
 50 422 l 1,10,-1
 119 422 l 1,11,12
 140 540 140 540 211.5 611.5 c 128,-1,13
 283 683 283 683 388 683 c 0,14,15
 465 683 465 683 526.5 643.5 c 128,-1,16
 588 604 588 604 620 530 c 1,17,-1
 569 511 l 1,18,19
 546 567 546 567 500 600 c 128,-1,20
 454 633 454 633 386 633 c 0,21,22
 298 633 298 633 244.5 577 c 128,-1,23
 191 521 191 521 175 422 c 1,24,-1
 454 422 l 1,25,-1
 433 383 l 1,26,-1
 170 383 l 1,27,28
 168 351 168 351 168 333 c 2,29,-1
 170 284 l 1,30,-1
 387 284 l 1,31,-1
 367 245 l 1,32,-1
 176 245 l 1,33,34
 194 149 194 149 249.5 93 c 128,-1,35
 305 37 305 37 384 37 c 0,36,37
 515 37 515 37 573 156 c 1,38,-1
 623 137 l 1,39,40
 591 62 591 62 528 24.5 c 128,-1,41
 465 -13 465 -13 382 -13 c 0,42,0
 272 -13 272 -13 204.5 56.5 c 128,-1,1
EndSplineSet
EndChar
StartChar: uni20B9
Encoding: 8377 8377 315
Width: 512
GlyphClass: 1
Flags: W
LayerCount: 2
Fore
SplineSet
75 291 m 1,0,-1
 75 336 l 1,1,-1
 104 336 l 2,2,3
 199 336 199 336 250.5 365 c 128,-1,4
 302 394 302 394 309 456 c 1,5,-1
 75 456 l 1,6,-1
 75 496 l 1,7,-1
 309 496 l 1,8,9
 302 556 302 556 250 586.5 c 128,-1,10
 198 617 198 617 104 617 c 2,11,-1
 75 617 l 1,12,-1
 75 668 l 1,13,-1
 462 668 l 1,14,-1
 462 628 l 1,15,-1
 277 628 l 1,16,17
 360 584 360 584 369 496 c 1,18,-1
 462 496 l 1,19,-1
 462 456 l 1,20,-1
 369 456 l 1,21,22
 356 312 356 312 155 291 c 1,23,-1
 466 0 l 1,24,-1
 388 0 l 1,25,-1
 75 291 l 1,0,-1
EndSplineSet
EndChar
StartChar: uni2113
Encoding: 8467 8467 308
Width: 423
GlyphClass: 1
Flags: W
LayerCount: 2
Fore
SplineSet
152.5 24 m 128,-1,1
 126 60 126 60 126 137 c 2,2,-1
 126 203 l 1,3,-1
 59 151 l 1,4,-1
 59 213 l 1,5,-1
 126 266 l 1,6,-1
 126 525 l 2,7,8
 126 594 126 594 152.5 637 c 128,-1,9
 179 680 179 680 240 680 c 0,10,11
 293 680 293 680 321.5 641 c 128,-1,12
 350 602 350 602 350 541 c 0,13,14
 350 452 350 452 308.5 383.5 c 128,-1,15
 267 315 267 315 178 241 c 1,16,-1
 178 136 l 2,17,18
 178 83 178 83 197.5 60 c 128,-1,19
 217 37 217 37 247 37 c 0,20,21
 296 37 296 37 341 79 c 1,22,-1
 368 37 l 1,23,24
 345 14 345 14 313.5 1 c 128,-1,25
 282 -12 282 -12 250 -12 c 0,26,0
 179 -12 179 -12 152.5 24 c 128,-1,1
269.5 417 m 128,-1,28
 299 477 299 477 299 542 c 0,29,30
 299 588 299 588 283 611 c 128,-1,31
 267 634 267 634 239 634 c 0,32,33
 178 634 178 634 178 526 c 2,34,-1
 178 308 l 1,35,27
 240 357 240 357 269.5 417 c 128,-1,28
EndSplineSet
EndChar
StartChar: trademark
Encoding: 8482 8482 303
Width: 813
GlyphClass: 1
Flags: W
LayerCount: 2
Fore
SplineSet
370 668 m 1,0,-1
 445 668 l 1,1,-1
 551 363 l 1,2,-1
 657 668 l 1,3,-1
 731 668 l 1,4,-1
 731 307 l 1,5,-1
 686 307 l 1,6,-1
 686 616 l 1,7,-1
 575 307 l 1,8,-1
 526 307 l 1,9,-1
 416 616 l 1,10,-1
 416 307 l 1,11,-1
 370 307 l 1,12,-1
 370 668 l 1,0,-1
163 625 m 1,13,-1
 46 625 l 1,14,-1
 46 668 l 1,15,-1
 325 668 l 1,16,-1
 325 625 l 1,17,-1
 208 625 l 1,18,-1
 208 307 l 1,19,-1
 163 307 l 1,20,-1
 163 625 l 1,13,-1
EndSplineSet
EndChar
StartChar: partialdiff
Encoding: 8706 8706 340
Width: 578
GlyphClass: 1
Flags: W
LayerCount: 2
Fore
SplineSet
183.5 15 m 128,-1,1
 130 42 130 42 95 100 c 128,-1,2
 60 158 60 158 60 245 c 256,3,4
 60 332 60 332 93.5 389 c 128,-1,5
 127 446 127 446 179 472.5 c 128,-1,6
 231 499 231 499 287 499 c 0,7,8
 348 499 348 499 394.5 470.5 c 128,-1,9
 441 442 441 442 459 391 c 1,10,11
 449 482 449 482 397 536.5 c 128,-1,12
 345 591 345 591 275.5 611.5 c 128,-1,13
 206 632 206 632 137 627 c 1,14,-1
 137 680 l 1,15,16
 294 680 294 680 378.5 622 c 128,-1,17
 463 564 463 564 491 476 c 128,-1,18
 519 388 519 388 519 272 c 0,19,20
 519 161 519 161 482 98 c 128,-1,21
 445 35 445 35 394 11.5 c 128,-1,22
 343 -12 343 -12 293 -12 c 0,23,0
 237 -12 237 -12 183.5 15 c 128,-1,1
371.5 58.5 m 128,-1,25
 410 79 410 79 435 125.5 c 128,-1,26
 460 172 460 172 460 244 c 0,27,28
 460 314 460 314 435 360 c 128,-1,29
 410 406 410 406 371 427 c 128,-1,30
 332 448 332 448 289 448 c 0,31,32
 247 448 247 448 208 427 c 128,-1,33
 169 406 169 406 144 360 c 128,-1,34
 119 314 119 314 119 244 c 0,35,36
 119 172 119 172 144 126 c 128,-1,37
 169 80 169 80 207.5 59 c 128,-1,38
 246 38 246 38 289 38 c 0,39,24
 333 38 333 38 371.5 58.5 c 128,-1,25
EndSplineSet
EndChar
StartChar: product
Encoding: 8719 8719 337
Width: 572
GlyphClass: 1
Flags: W
LayerCount: 2
Fore
SplineSet
60 668 m 1,0,-1
 512 668 l 1,1,-1
 512 -162 l 1,2,-1
 454 -162 l 1,3,-1
 454 605 l 1,4,-1
 117 605 l 1,5,-1
 117 -162 l 1,6,-1
 60 -162 l 1,7,-1
 60 668 l 1,0,-1
EndSplineSet
EndChar
StartChar: summation
Encoding: 8721 8721 338
Width: 572
GlyphClass: 1
Flags: W
LayerCount: 2
Fore
SplineSet
59 -105 m 1,0,-1
 308 253 l 1,1,-1
 59 611 l 1,2,-1
 59 668 l 1,3,-1
 513 668 l 1,4,-1
 513 611 l 1,5,-1
 126 611 l 1,6,-1
 374 253 l 1,7,-1
 126 -105 l 1,8,-1
 513 -105 l 1,9,-1
 513 -162 l 1,10,-1
 59 -162 l 1,11,-1
 59 -105 l 1,0,-1
EndSplineSet
EndChar
StartChar: minus
Encoding: 8722 8722 321
Width: 606
GlyphClass: 1
Flags: W
LayerCount: 2
Fore
SplineSet
55 276 m 1,0,-1
 551 276 l 1,1,-1
 551 224 l 1,2,-1
 55 224 l 1,3,-1
 55 276 l 1,0,-1
EndSplineSet
EndChar
StartChar: radical
Encoding: 8730 8730 339
Width: 519
GlyphClass: 1
Flags: W
LayerCount: 2
Fore
SplineSet
147 171 m 1,0,-1
 59 171 l 1,1,-1
 59 225 l 1,2,-1
 186 225 l 1,3,-1
 300 -72 l 1,4,-1
 400 668 l 1,5,-1
 459 668 l 1,6,-1
 342 -162 l 1,7,-1
 272 -162 l 1,8,-1
 147 171 l 1,0,-1
EndSplineSet
EndChar
StartChar: infinity
Encoding: 8734 8734 335
Width: 785
GlyphClass: 1
Flags: W
LayerCount: 2
Fore
SplineSet
98.5 151 m 128,-1,1
 58 192 58 192 58 256 c 256,2,3
 58 320 58 320 98.5 361 c 128,-1,4
 139 402 139 402 208 402 c 0,5,6
 259 402 259 402 303 374 c 128,-1,7
 347 346 347 346 393 296 c 1,8,9
 438 346 438 346 482 374 c 128,-1,10
 526 402 526 402 577 402 c 0,11,12
 646 402 646 402 687 361 c 128,-1,13
 728 320 728 320 728 256 c 256,14,15
 728 192 728 192 687 151 c 128,-1,16
 646 110 646 110 577 110 c 0,17,18
 526 110 526 110 482 138 c 128,-1,19
 438 166 438 166 393 216 c 1,20,21
 347 166 347 166 303 138 c 128,-1,22
 259 110 259 110 208 110 c 0,23,0
 139 110 139 110 98.5 151 c 128,-1,1
280.5 179.5 m 128,-1,25
 313 199 313 199 359 256 c 1,26,27
 313 313 313 313 280.5 332.5 c 128,-1,28
 248 352 248 352 209 352 c 0,29,30
 167 352 167 352 138 323.5 c 128,-1,31
 109 295 109 295 109 256 c 256,32,33
 109 217 109 217 138 188.5 c 128,-1,34
 167 160 167 160 209 160 c 0,35,24
 248 160 248 160 280.5 179.5 c 128,-1,25
647.5 188.5 m 128,-1,37
 677 217 677 217 677 256 c 256,38,39
 677 295 677 295 647.5 323.5 c 128,-1,40
 618 352 618 352 576 352 c 0,41,42
 537 352 537 352 504.5 332.5 c 128,-1,43
 472 313 472 313 427 256 c 1,44,45
 472 199 472 199 504.5 179.5 c 128,-1,46
 537 160 537 160 576 160 c 0,47,36
 618 160 618 160 647.5 188.5 c 128,-1,37
EndSplineSet
EndChar
StartChar: integral
Encoding: 8747 8747 336
Width: 444
GlyphClass: 1
Flags: W
LayerCount: 2
Fore
SplineSet
79 -156.5 m 128,-1,1
 59 -141 59 -141 59 -118 c 0,2,3
 59 -100 59 -100 72 -87 c 128,-1,4
 85 -74 85 -74 105 -74 c 0,5,6
 127 -74 127 -74 140 -87 c 128,-1,7
 153 -100 153 -100 153 -122 c 0,8,9
 153 -131 153 -131 150 -138 c 1,10,11
 165 -137 165 -137 177.5 -116 c 128,-1,12
 190 -95 190 -95 191 -41 c 2,13,-1
 195 502 l 2,14,15
 196 607 196 607 226.5 644.5 c 128,-1,16
 257 682 257 682 311 682 c 0,17,18
 345 682 345 682 365 666.5 c 128,-1,19
 385 651 385 651 385 628 c 0,20,21
 385 610 385 610 372.5 597 c 128,-1,22
 360 584 360 584 339 584 c 0,23,24
 317 584 317 584 304 597 c 128,-1,25
 291 610 291 610 291 632 c 0,26,27
 291 641 291 641 294 648 c 1,28,29
 279 647 279 647 266.5 625.5 c 128,-1,30
 254 604 254 604 253 550 c 2,31,-1
 249 8 l 2,32,33
 248 -97 248 -97 217.5 -134.5 c 128,-1,34
 187 -172 187 -172 133 -172 c 0,35,0
 99 -172 99 -172 79 -156.5 c 128,-1,1
EndSplineSet
EndChar
StartChar: approxequal
Encoding: 8776 8776 331
Width: 567
GlyphClass: 1
Flags: W
LayerCount: 2
Fore
SplineSet
80.5 194 m 128,-1,1
 111 224 111 224 166 224 c 0,2,3
 193 224 193 224 222 215 c 128,-1,4
 251 206 251 206 295 189 c 0,5,6
 335 174 335 174 359 166.5 c 128,-1,7
 383 159 383 159 404 159 c 0,8,9
 466 159 466 159 474 230 c 1,10,-1
 524 220 l 1,11,12
 517 168 517 168 486.5 138 c 128,-1,13
 456 108 456 108 401 108 c 0,14,15
 374 108 374 108 345 117 c 128,-1,16
 316 126 316 126 272 143 c 0,17,18
 232 158 232 158 208 165.5 c 128,-1,19
 184 173 184 173 163 173 c 0,20,21
 101 173 101 173 93 102 c 1,22,-1
 43 112 l 1,23,0
 50 164 50 164 80.5 194 c 128,-1,1
80.5 381 m 128,-1,25
 111 411 111 411 166 411 c 0,26,27
 193 411 193 411 222 402 c 128,-1,28
 251 393 251 393 295 376 c 0,29,30
 335 361 335 361 359 353.5 c 128,-1,31
 383 346 383 346 404 346 c 0,32,33
 466 346 466 346 474 417 c 1,34,-1
 524 406 l 1,35,36
 517 354 517 354 486.5 324 c 128,-1,37
 456 294 456 294 401 294 c 0,38,39
 374 294 374 294 345 303 c 128,-1,40
 316 312 316 312 272 329 c 0,41,42
 232 344 232 344 208 351.5 c 128,-1,43
 184 359 184 359 163 359 c 0,44,45
 101 359 101 359 93 288 c 1,46,-1
 43 299 l 1,47,24
 50 351 50 351 80.5 381 c 128,-1,25
EndSplineSet
EndChar
StartChar: notequal
Encoding: 8800 8800 325
Width: 628
GlyphClass: 1
Flags: W
LayerCount: 2
Fore
SplineSet
202 134 m 1,0,-1
 66 134 l 1,1,-1
 66 186 l 1,2,-1
 239 186 l 1,3,-1
 329 315 l 1,4,-1
 66 315 l 1,5,-1
 66 366 l 1,6,-1
 365 366 l 1,7,-1
 456 496 l 1,8,-1
 519 496 l 1,9,-1
 428 366 l 1,10,-1
 562 366 l 1,11,-1
 562 315 l 1,12,-1
 392 315 l 1,13,-1
 302 186 l 1,14,-1
 562 186 l 1,15,-1
 562 134 l 1,16,-1
 266 134 l 1,17,-1
 172 0 l 1,18,-1
 108 0 l 1,19,-1
 202 134 l 1,0,-1
EndSplineSet
EndChar
StartChar: greaterequal
Encoding: 8805 8805 328
Width: 571
GlyphClass: 1
Flags: W
LayerCount: 2
Fore
SplineSet
59 162 m 1,0,-1
 433 291 l 1,1,-1
 59 422 l 1,2,-1
 59 484 l 1,3,-1
 513 317 l 1,4,-1
 513 266 l 1,5,-1
 59 100 l 1,6,-1
 59 162 l 1,0,-1
59 55 m 1,7,-1
 513 55 l 1,8,-1
 513 0 l 1,9,-1
 59 0 l 1,10,-1
 59 55 l 1,7,-1
EndSplineSet
EndChar
StartChar: lozenge
Encoding: 9674 9674 343
Width: 539
GlyphClass: 1
Flags: W
LayerCount: 2
Fore
SplineSet
60 316 m 1,0,-1
 271 696 l 1,1,-1
 480 316 l 1,2,-1
 271 -64 l 1,3,-1
 60 316 l 1,0,-1
418 316 m 1,4,-1
 271 580 l 1,5,-1
 121 316 l 1,6,-1
 271 52 l 1,7,-1
 418 316 l 1,4,-1
EndSplineSet
EndChar
StartChar: .notdef
Encoding: 65536 -1 0
Width: 527
GlyphClass: 1
Flags: W
LayerCount: 2
Fore
SplineSet
50 700 m 1,0,-1
 477 700 l 1,1,-1
 477 0 l 1,2,-1
 50 0 l 1,3,-1
 50 700 l 1,0,-1
449 21 m 1,4,-1
 264 329 l 1,5,-1
 79 21 l 1,6,-1
 449 21 l 1,4,-1
251 350 m 1,7,-1
 71 650 l 1,8,-1
 71 49 l 1,9,-1
 251 350 l 1,7,-1
457 652 m 1,10,-1
 276 350 l 1,11,-1
 457 47 l 1,12,-1
 457 652 l 1,10,-1
449 680 m 1,13,-1
 78 680 l 1,14,-1
 263 371 l 1,15,-1
 449 680 l 1,13,-1
EndSplineSet
EndChar
StartChar: acutecomb.case
Encoding: 65553 -1 352
Width: 0
GlyphClass: 4
Flags: W
AnchorPoint: "Anchor-5" 62 855 basemark 0
AnchorPoint: "Anchor-5" 62 668 mark 0
AnchorPoint: "Anchor-1" 62 668 mark 0
LayerCount: 2
Fore
SplineSet
145.5 835 m 128,-1,1
 154 840 154 840 163 840 c 0,2,3
 174 840 174 840 181.5 833.5 c 128,-1,4
 189 827 189 827 189 816 c 0,5,6
 189 803 189 803 181 796 c 128,-1,7
 173 789 173 789 147 773 c 2,8,-1
 89 739 l 1,9,-1
 38 739 l 1,10,-1
 122 816 l 2,11,0
 137 830 137 830 145.5 835 c 128,-1,1
EndSplineSet
EndChar
StartChar: gravecomb.case
Encoding: 65552 -1 350
Width: 0
GlyphClass: 4
Flags: W
AnchorPoint: "Anchor-5" 166 855 basemark 0
AnchorPoint: "Anchor-5" 166 668 mark 0
AnchorPoint: "Anchor-1" 166 668 mark 0
LayerCount: 2
Fore
SplineSet
46 796 m 128,-1,1
 38 803 38 803 38 816 c 0,2,3
 38 828 38 828 45.5 834 c 128,-1,4
 53 840 53 840 65 840 c 0,5,6
 75 840 75 840 83 835 c 128,-1,7
 91 830 91 830 106 816 c 2,8,-1
 189 739 l 1,9,-1
 139 739 l 1,10,-1
 81 773 l 2,11,0
 54 789 54 789 46 796 c 128,-1,1
EndSplineSet
EndChar
StartChar: one.tf
Encoding: 65540 -1 240
Width: 632
GlyphClass: 1
Flags: W
LayerCount: 2
Fore
SplineSet
121 50 m 1,0,-1
 301 50 l 1,1,-1
 301 532 l 1,2,-1
 121 532 l 1,3,-1
 121 572 l 1,4,5
 211 572 211 572 257 592 c 128,-1,6
 303 612 303 612 321 668 c 1,7,-1
 357 668 l 1,8,-1
 357 50 l 1,9,-1
 522 50 l 1,10,-1
 522 0 l 1,11,-1
 121 0 l 1,12,-1
 121 50 l 1,0,-1
EndSplineSet
Substitution2: "'pnum' Proportional Numbers in Latin lookup 9 subtable" one
AlternateSubs2: "'aalt' Access All Alternates in Latin lookup 0 subtable" one
EndChar
StartChar: uni0307.case
Encoding: 65550 -1 347
Width: 0
GlyphClass: 4
Flags: W
AnchorPoint: "Anchor-5" 82 826 basemark 0
AnchorPoint: "Anchor-5" 82 668 mark 0
AnchorPoint: "Anchor-1" 82 668 mark 0
LayerCount: 2
Fore
SplineSet
51 751.5 m 128,-1,1
 38 764 38 764 38 783 c 0,2,3
 38 801 38 801 51 813.5 c 128,-1,4
 64 826 64 826 82 826 c 0,5,6
 99 826 99 826 112 813.5 c 128,-1,7
 125 801 125 801 125 783 c 256,8,9
 125 765 125 765 112.5 752 c 128,-1,10
 100 739 100 739 82 739 c 256,11,0
 64 739 64 739 51 751.5 c 128,-1,1
EndSplineSet
EndChar
StartChar: uni0307.large
Encoding: 65551 -1 348
Width: 0
GlyphClass: 4
Flags: W
AnchorPoint: "Anchor-5" 85 694 basemark 0
AnchorPoint: "Anchor-5" 85 496 mark 0
AnchorPoint: "Anchor-1" 85 496 mark 0
LayerCount: 2
Fore
SplineSet
52 614 m 128,-1,1
 38 628 38 628 38 647 c 256,2,3
 38 666 38 666 52 680 c 128,-1,4
 66 694 66 694 85 694 c 0,5,6
 105 694 105 694 118.5 680.5 c 128,-1,7
 132 667 132 667 132 647 c 0,8,9
 132 628 132 628 118 614 c 128,-1,10
 104 600 104 600 85 600 c 256,11,0
 66 600 66 600 52 614 c 128,-1,1
EndSplineSet
EndChar
StartChar: uni030A.case
Encoding: 65559 -1 363
Width: 0
GlyphClass: 4
Flags: W
AnchorPoint: "Anchor-5" 134 835 basemark 0
AnchorPoint: "Anchor-5" 134 668 mark 0
AnchorPoint: "Anchor-1" 134 668 mark 0
LayerCount: 2
Fore
SplineSet
66 672 m 128,-1,1
 38 700 38 700 38 739 c 0,2,3
 38 779 38 779 66 807 c 128,-1,4
 94 835 94 835 134 835 c 256,5,6
 174 835 174 835 202 807 c 128,-1,7
 230 779 230 779 230 739 c 0,8,9
 230 700 230 700 202 672 c 128,-1,10
 174 644 174 644 134 644 c 256,11,0
 94 644 94 644 66 672 c 128,-1,1
173 701 m 128,-1,13
 189 717 189 717 189 739 c 0,14,15
 189 762 189 762 173 778 c 128,-1,16
 157 794 157 794 134 794 c 0,17,18
 112 794 112 794 95.5 778 c 128,-1,19
 79 762 79 762 79 739 c 0,20,21
 79 717 79 717 95 701 c 128,-1,22
 111 685 111 685 134 685 c 256,23,12
 157 685 157 685 173 701 c 128,-1,13
EndSplineSet
EndChar
StartChar: uni030C.alt
Encoding: 65555 -1 355
Width: 0
GlyphClass: 4
Flags: W
AnchorPoint: "Anchor-3" 18 496 mark 0
LayerCount: 2
Fore
SplineSet
69.5 706.5 m 128,-1,1
 77 718 77 718 93 718 c 0,2,3
 105 718 105 718 113.5 711.5 c 128,-1,4
 122 705 122 705 122 691 c 0,5,6
 122 682 122 682 111 652 c 2,7,-1
 72 540 l 1,8,-1
 38 540 l 1,9,-1
 58 670 l 2,10,0
 62 695 62 695 69.5 706.5 c 128,-1,1
EndSplineSet
EndChar
StartChar: uni0328.alt
Encoding: 65562 -1 372
Width: 0
GlyphClass: 4
Flags: W
AnchorPoint: "Anchor-2" 170 10 mark 0
LayerCount: 2
Fore
SplineSet
61 -148 m 128,-1,1
 38 -128 38 -128 38 -94 c 0,2,3
 38 -57 38 -57 61.5 -24 c 128,-1,4
 85 9 85 9 121 26 c 1,5,-1
 153 22 l 1,6,7
 120 4 120 4 102.5 -22 c 128,-1,8
 85 -48 85 -48 85 -78 c 0,9,10
 85 -100 85 -100 99.5 -113 c 128,-1,11
 114 -126 114 -126 137 -126 c 0,12,13
 156 -126 156 -126 170 -119 c 1,14,-1
 170 -159 l 1,15,16
 148 -168 148 -168 121 -168 c 0,17,0
 84 -168 84 -168 61 -148 c 128,-1,1
EndSplineSet
EndChar
StartChar: uni0328.case
Encoding: 65563 -1 373
Width: 0
GlyphClass: 4
Flags: W
AnchorPoint: "Anchor-2" 170 10 mark 0
LayerCount: 2
Fore
SplineSet
61.5 -148 m 128,-1,1
 38 -128 38 -128 38 -94 c 0,2,3
 38 -30 38 -30 118 10 c 1,4,-1
 170 0 l 1,5,6
 130 -13 130 -13 107.5 -35 c 128,-1,7
 85 -57 85 -57 85 -83 c 0,8,9
 85 -105 85 -105 99 -115.5 c 128,-1,10
 113 -126 113 -126 137 -126 c 0,11,12
 156 -126 156 -126 170 -119 c 1,13,-1
 170 -159 l 1,14,15
 148 -168 148 -168 121 -168 c 0,16,0
 85 -168 85 -168 61.5 -148 c 128,-1,1
EndSplineSet
EndChar
